<svg width="40" height="40" viewBox="0 0 40 40" fill="none" xmlns="http://www.w3.org/2000/svg">
<g id="&#240;&#159;&#166;&#134; emoji &#34;left-pointing magnifying glass&#34;">
<path id="Vector" d="M31.593 28.6915L28.7765 31.5247L17.5139 20.1987L20.3304 17.3689L31.593 28.6915Z" fill="url(#paint0_linear_696_2218)"/>
<path id="Vector_2" opacity="0.2" d="M20.3271 18.7888L30.1798 28.6949L28.7733 30.1081L18.9205 20.2021L20.3271 18.7888ZM20.3271 17.3689L17.5106 20.1987L28.7733 31.5247L31.5897 28.6949L20.3271 17.3689Z" fill="#424242"/>
<path id="Vector_3" d="M13.6042 27.3516C21.1166 27.3516 27.2067 21.2288 27.2067 13.6758C27.2067 6.12287 21.1166 0 13.6042 0C6.09175 0 0.00170898 6.12287 0.00170898 13.6758C0.00170898 21.2288 6.09175 27.3516 13.6042 27.3516Z" fill="url(#paint1_radial_696_2218)"/>
<path id="Vector_4" d="M34.7728 28.4348C32.6129 26.2616 30.2564 24.735 28.2799 24.0817C27.7399 23.9017 27.2566 23.5851 26.8533 23.1784L26.26 22.5818L22.6769 26.1816L23.2702 26.7782C23.6735 27.1815 23.9901 27.6681 24.1668 28.2114C24.8201 30.198 26.3367 32.5645 28.4965 34.7377C30.933 37.1875 33.6162 38.8141 35.7261 39.3007L36.0194 39.5974C36.5493 40.1274 37.406 40.1274 37.9326 39.5974L38.4626 39.0641C38.5859 38.9841 38.6992 38.8941 38.8025 38.7941C38.9059 38.6908 38.9959 38.5775 39.0725 38.4541L39.6025 37.9208C40.1325 37.3909 40.1325 36.5276 39.6025 35.9976L39.3092 35.701C38.8259 33.5844 37.2093 30.8846 34.7728 28.4348Z" fill="url(#paint2_radial_696_2218)"/>
<path id="Vector_5" opacity="0.2" d="M13.6042 0.999938C16.9706 0.999938 20.1337 2.31652 22.5136 4.70971C27.43 9.65273 27.43 17.6989 22.5136 22.6419C20.1337 25.0351 16.9706 26.3517 13.6042 26.3517C10.2377 26.3517 7.07456 25.0351 4.69471 22.6419C-0.221653 17.6989 -0.221653 9.65273 4.69471 4.70971C7.07456 2.31652 10.241 0.999938 13.6042 0.999938ZM13.6042 0C10.1244 0 6.64125 1.33658 3.98475 4.00642C-1.32825 9.34608 -1.32825 18.0055 3.98475 23.3485C6.64125 26.0184 10.121 27.355 13.6042 27.355C17.0873 27.355 20.567 26.0184 23.2235 23.3485C28.5365 18.0089 28.5365 9.34942 23.2235 4.00642C20.567 1.33658 17.0873 0 13.6042 0Z" fill="#424242"/>
<path id="Vector_6" opacity="0.2" d="M26.26 23.9984C26.7633 24.4717 27.3466 24.8283 27.9633 25.0316C29.8698 25.6649 32.093 27.1615 34.0629 29.1414C36.2761 31.3679 37.876 33.9044 38.3359 35.9243L38.3993 36.2043L38.6026 36.4076L38.8959 36.7042C39.0359 36.8476 39.0359 37.0775 38.8959 37.2175L38.3659 37.7508L38.2893 37.8275L38.2326 37.9208C38.1893 37.9875 38.146 38.0442 38.096 38.0908C38.046 38.1408 37.9926 38.1841 37.926 38.2275L37.836 38.2875L37.7593 38.3641L37.2293 38.8974C37.1393 38.9874 37.036 39.0008 36.9827 39.0008C36.9294 39.0008 36.8227 38.9874 36.736 38.8974L36.4427 38.6008L36.2394 38.3975L35.9594 38.3341C33.9495 37.8708 31.4297 36.2676 29.2165 34.0411C27.2466 32.0612 25.7567 29.8247 25.1268 27.9081C24.9234 27.2882 24.5668 26.6949 24.0935 26.1916L26.26 23.9984ZM26.2567 22.5818L22.6736 26.1816L23.2669 26.7782C23.6702 27.1815 23.9868 27.6681 24.1635 28.2114C24.8168 30.198 26.3334 32.5645 28.4932 34.7377C30.9297 37.1875 33.6129 38.8141 35.7228 39.3007L36.0161 39.5974C36.2794 39.864 36.626 39.9974 36.9727 39.9974C37.3193 39.9974 37.666 39.864 37.9293 39.5974L38.4593 39.0641C38.5826 38.9841 38.6959 38.8941 38.7992 38.7941C38.9026 38.6908 38.9926 38.5775 39.0692 38.4541L39.5992 37.9208C40.1292 37.3909 40.1292 36.5276 39.5992 35.9976L39.3059 35.701C38.8226 33.5811 37.206 30.8846 34.7695 28.4348C32.6096 26.2616 30.2531 24.735 28.2766 24.0817C27.7366 23.9017 27.2533 23.5851 26.85 23.1784L26.2567 22.5818Z" fill="#424242"/>
<path id="Vector_7" d="M13.5775 24.7217C19.6596 24.7217 24.5901 19.7643 24.5901 13.6491C24.5901 7.53381 19.6596 2.57642 13.5775 2.57642C7.49535 2.57642 2.56482 7.53381 2.56482 13.6491C2.56482 19.7643 7.49535 24.7217 13.5775 24.7217Z" fill="url(#paint3_radial_696_2218)"/>
<path id="Vector_8" opacity="0.2" d="M13.5774 3.57635C16.2506 3.57635 18.7637 4.62295 20.6536 6.52284C24.56 10.4493 24.56 16.8422 20.6536 20.7686C18.7637 22.6685 16.2506 23.7151 13.5774 23.7151C10.9042 23.7151 8.39104 22.6685 6.50116 20.7686C2.59474 16.8422 2.59474 10.4493 6.50116 6.52284C8.38771 4.62295 10.9042 3.57635 13.5774 3.57635ZM13.5774 2.57642C10.7576 2.57642 7.94107 3.65635 5.7912 5.81955C1.49147 10.1426 1.49147 17.1522 5.7912 21.4786C7.94107 23.6418 10.7609 24.7217 13.5774 24.7217C16.3939 24.7217 19.2137 23.6418 21.3636 21.4786C25.6633 17.1555 25.6633 10.1459 21.3636 5.81955C19.2137 3.65635 16.3939 2.57642 13.5774 2.57642Z" fill="#039BE5"/>
<path id="Vector_9" d="M27.73 24.3649L24.4002 27.7147C24.0235 28.0947 23.4136 28.0947 23.0369 27.7147L22.7169 27.3914C22.3403 27.0114 22.3403 26.3981 22.7169 26.0215L26.0467 22.6717C26.4234 22.2917 27.0333 22.2917 27.41 22.6717L27.73 22.995C28.1066 23.375 28.1066 23.9883 27.73 24.3649Z" fill="url(#paint4_radial_696_2218)"/>
<path id="Vector_10" opacity="0.2" d="M26.7267 23.0553C26.7733 23.0553 26.86 23.0653 26.9367 23.142L27.2566 23.4653C27.3733 23.5853 27.3733 23.7753 27.2566 23.8952L23.9269 27.245C23.8502 27.3217 23.7635 27.3317 23.7169 27.3317C23.6702 27.3317 23.5835 27.3217 23.5069 27.245L23.1869 26.9217C23.0702 26.8017 23.0702 26.6117 23.1869 26.4918L26.5167 23.142C26.5934 23.0686 26.6833 23.0553 26.7267 23.0553ZM26.7267 22.3887C26.48 22.3887 26.2334 22.482 26.0467 22.672L22.7169 26.0218C22.3403 26.4018 22.3403 27.0151 22.7169 27.3917L23.0369 27.715C23.2236 27.905 23.4702 27.9983 23.7169 27.9983C23.9635 27.9983 24.2102 27.905 24.3968 27.715L27.7266 24.3652C28.1033 23.9852 28.1033 23.3719 27.7266 22.9953L27.4066 22.672C27.22 22.4853 26.9733 22.3887 26.7267 22.3887Z" fill="#424242"/>
</g>
<defs>
<linearGradient id="paint0_linear_696_2218" x1="22.3307" y1="22.224" x2="24.642" y2="24.5354" gradientUnits="userSpaceOnUse">
<stop stop-color="#EEEEEE"/>
<stop offset="1" stop-color="#9E9E9E"/>
</linearGradient>
<radialGradient id="paint1_radial_696_2218" cx="0" cy="0" r="1" gradientUnits="userSpaceOnUse" gradientTransform="translate(13.1171 0.111093) scale(27.3459 27.335)">
<stop stop-color="#E0E0E0"/>
<stop offset="0.2274" stop-color="#DBDBDB"/>
<stop offset="0.4939" stop-color="#CDCDCD"/>
<stop offset="0.7789" stop-color="#B5B5B5"/>
<stop offset="1" stop-color="#9E9E9E"/>
</radialGradient>
<radialGradient id="paint2_radial_696_2218" cx="0" cy="0" r="1" gradientUnits="userSpaceOnUse" gradientTransform="translate(26.4166 22.8318) scale(17.1989 17.1989)">
<stop stop-color="#FFA726"/>
<stop offset="0.0404" stop-color="#FFA623"/>
<stop offset="0.5168" stop-color="#FF9800"/>
<stop offset="1" stop-color="#FB8C00"/>
</radialGradient>
<radialGradient id="paint3_radial_696_2218" cx="0" cy="0" r="1" gradientUnits="userSpaceOnUse" gradientTransform="translate(6.34292 6.4995) scale(21.6913 21.6913)">
<stop stop-color="#B3E5FC"/>
<stop offset="0.1696" stop-color="#ADE3FC"/>
<stop offset="0.3927" stop-color="#9DDDFB"/>
<stop offset="0.6456" stop-color="#81D4FA"/>
<stop offset="0.9186" stop-color="#5CC7F8"/>
<stop offset="1" stop-color="#4FC3F7"/>
</radialGradient>
<radialGradient id="paint4_radial_696_2218" cx="0" cy="0" r="1" gradientUnits="userSpaceOnUse" gradientTransform="translate(24.3989 23.554) scale(4.29678 4.29507)">
<stop stop-color="#E0E0E0"/>
<stop offset="1" stop-color="#9E9E9E"/>
</radialGradient>
</defs>
</svg>
