<svg width="35" height="35" viewBox="0 0 35 35" fill="none" xmlns="http://www.w3.org/2000/svg">
<g id="&#240;&#159;&#166;&#134; emoji &#34;rocket&#34;">
<path id="Vector" d="M2.97606 26.7437C0.15191 29.5678 0 34.7155 0 34.7155C0 34.7155 5.14423 34.5636 7.97183 31.7394C10.7994 28.9153 11.9698 25.5077 10.5888 24.1301C9.20783 22.7491 5.80021 23.9195 2.97606 26.7437Z" fill="url(#paint0_linear_696_2405)"/>
<path id="Vector_2" opacity="0.2" d="M8.97651 24.2408C9.47022 24.2408 9.84654 24.3685 10.0986 24.6171C11.048 25.5666 10.2056 28.5254 7.48158 31.2528C5.51365 33.2208 2.23722 33.8008 0.752646 33.9665C0.918366 32.4819 1.49839 29.2055 3.46286 27.2376C5.28233 25.4146 7.44705 24.2408 8.97651 24.2408ZM8.97651 23.5503C7.31586 23.5503 4.99577 24.7241 2.97606 26.7473C0.15191 29.5715 0 34.7191 0 34.7191C0 34.7191 5.14423 34.5672 7.97183 31.7431C10.7994 28.9189 11.9698 25.5113 10.5888 24.1338C10.1952 23.7333 9.63939 23.5503 8.97651 23.5503Z" fill="#424242"/>
<path id="Vector_3" d="M3.83223 27.7381C2.05419 29.5161 1.95752 32.7546 1.95752 32.7546C1.95752 32.7546 5.19597 32.6579 6.97401 30.8799C8.75205 29.1018 9.49088 26.9544 8.62085 26.0878C7.75082 25.2212 5.61372 25.9566 3.83223 27.7381Z" fill="url(#paint1_linear_696_2405)"/>
<path id="Vector_4" d="M7.47808 27.7692C9.16981 29.5749 11.3898 29.385 11.5728 29.0881L13.1195 26.5746C13.2127 26.4227 13.1264 26.1811 13.0608 26.1189L8.8867 21.9448C8.8211 21.8792 8.58979 21.8033 8.43788 21.8965L5.92445 23.4432C5.63099 23.6262 5.29955 25.4388 7.47808 27.7692Z" fill="#546E7A"/>
<path id="Vector_5" d="M18.8438 32.361C18.4986 32.6407 18.036 32.5785 17.9773 32.1642C17.815 31.018 17.922 28.7152 16.4789 27.272C15.0703 25.8634 12.7812 25.6562 12.7812 25.6562L21.3987 21.4097C21.3987 21.4097 23.0214 23.9127 22.1272 27.4757C21.3814 30.4207 20.1075 31.3287 18.8438 32.361Z" fill="#0288D1"/>
<path id="Vector_6" opacity="0.2" d="M20.9118 22.801C20.974 22.9702 21.0396 23.1635 21.0982 23.3776C21.333 24.2338 21.5298 25.5976 21.119 27.2202C20.5976 29.2986 19.8174 30.1894 18.9025 30.9697C18.7851 29.6508 18.5296 27.8555 17.2073 26.5366C16.7239 26.0533 16.1577 25.6873 15.6019 25.4146L20.9118 22.801ZM21.3952 21.4097L12.7777 25.6563C12.7777 25.6563 15.0702 25.8669 16.4753 27.272C17.9185 28.7152 17.8115 31.018 17.9737 32.1642C18.0083 32.4093 18.1878 32.5336 18.3984 32.5336C18.5434 32.5336 18.7022 32.4749 18.8403 32.361C20.1039 31.3287 21.3779 30.4207 22.1202 27.4757C23.0213 23.9093 21.3952 21.4097 21.3952 21.4097Z" fill="#424242"/>
<path id="Vector_7" d="M2.45819 16.4689C2.11984 16.759 2.24068 17.2768 2.65498 17.3355C3.80121 17.4978 6.10403 17.3908 7.54718 18.8339C8.9558 20.2425 9.24926 22.2381 9.24926 22.2381L13.413 13.4238C13.413 13.4238 11.2103 12.3915 8.00636 13.2236C5.79676 13.8002 3.60442 15.4815 2.45819 16.4689Z" fill="#0288D1"/>
<path id="Vector_8" opacity="0.2" d="M10.4921 13.9349C11.0687 13.9349 11.5659 13.9971 11.9594 14.073L9.37007 19.5625C9.09387 19.0688 8.73826 18.5613 8.27908 18.1055C7.05344 16.8799 5.42385 16.5726 4.13952 16.4414C5.25468 15.5921 6.77033 14.6185 8.26181 14.2284C9.00755 14.0316 9.75675 13.9349 10.4921 13.9349ZM10.4921 12.8992C9.76365 12.8992 8.92469 12.9855 8.00633 13.2237C5.79673 13.8003 3.60784 15.4816 2.46161 16.4691C2.12326 16.7591 2.2441 17.2769 2.6584 17.3356C3.80463 17.4979 6.10745 17.3909 7.5506 18.834C8.95922 20.2426 9.25268 22.2382 9.25268 22.2382L13.413 13.424C13.413 13.424 12.2943 12.8992 10.4921 12.8992Z" fill="#424242"/>
<path id="Vector_9" opacity="0.2" d="M8.53463 23.0562L11.9595 26.4811L10.8789 28.2385C10.8444 28.2419 10.8064 28.2419 10.7649 28.2419C10.4301 28.2419 9.26311 28.1556 8.23426 27.0577C6.93267 25.6663 6.72897 24.5788 6.74623 24.1541L8.53463 23.0562ZM8.60713 21.8513C8.54844 21.8513 8.48975 21.8651 8.43796 21.8927L5.92454 23.4395C5.62762 23.6225 5.29618 25.435 7.47471 27.7655C8.58297 28.9497 9.91909 29.2777 10.7615 29.2777C11.2034 29.2777 11.5072 29.1879 11.5694 29.0843L13.1161 26.5709C13.2093 26.419 13.123 26.1773 13.0574 26.1152L8.88679 21.9445C8.84536 21.9031 8.72797 21.8513 8.60713 21.8513Z" fill="#424242"/>
<path id="Vector_10" d="M24.3471 1.91333C25.7454 2.5555 27.6304 3.6603 29.4292 5.45905C30.0645 6.09431 30.6065 6.74338 31.076 7.37865C31.984 8.60428 32.6055 9.77468 33.0129 10.6896C32.1049 13.0753 30.3924 15.8511 28.718 17.5256C21.8786 24.365 14.3245 28.2698 10.4162 25.5043C10.1884 25.342 9.96397 25.1936 9.76027 25.0106C6.40789 21.9966 10.2471 13.3687 17.2211 6.39468C18.9716 4.64426 21.8889 2.85586 24.3471 1.91333Z" fill="url(#paint2_radial_696_2405)"/>
<path id="Vector_11" d="M22.5276 14.8911C24.2246 14.8911 25.6003 13.5154 25.6003 11.8183C25.6003 10.1213 24.2246 8.74561 22.5276 8.74561C20.8305 8.74561 19.4548 10.1213 19.4548 11.8183C19.4548 13.5154 20.8305 14.8911 22.5276 14.8911Z" fill="#455A64"/>
<path id="Vector_12" opacity="0.2" d="M22.5276 9.43611C23.1629 9.43611 23.7636 9.68469 24.2124 10.1335C24.6612 10.5823 24.9098 11.1831 24.9098 11.8183C24.9098 12.4536 24.6612 13.0543 24.2124 13.5032C23.7636 13.952 23.1629 14.2006 22.5276 14.2006C21.8923 14.2006 21.2916 13.952 20.8428 13.5032C19.9141 12.5744 19.9141 11.0622 20.8428 10.1335C21.2916 9.68469 21.8889 9.43611 22.5276 9.43611ZM22.5276 8.74561C21.7404 8.74561 20.9533 9.04597 20.3525 9.64671C19.151 10.8482 19.151 12.7919 20.3525 13.9934C20.9533 14.5941 21.7404 14.8945 22.5276 14.8945C23.3148 14.8945 24.1019 14.5941 24.7027 13.9934C25.9041 12.7919 25.9041 10.8482 24.7027 9.64671C24.1019 9.04597 23.3148 8.74561 22.5276 8.74561Z" fill="#424242"/>
<path id="Vector_13" d="M16.1887 20.771C17.4167 20.771 18.4122 19.7756 18.4122 18.5476C18.4122 17.3197 17.4167 16.3242 16.1887 16.3242C14.9608 16.3242 13.9653 17.3197 13.9653 18.5476C13.9653 19.7756 14.9608 20.771 16.1887 20.771Z" fill="#455A64"/>
<path id="Vector_14" d="M24.3471 1.91333C23.7084 5.06547 29.2738 11.2385 33.0129 10.6896C34.1764 7.68246 34.6528 5.64203 34.9705 2.13084C35.1327 0.352798 34.6114 -0.15472 32.9646 0.0386198C28.5971 0.54959 26.8709 0.881031 24.3471 1.91333Z" fill="#E53935"/>
<g id="Group">
<path id="Vector_15" opacity="0.2" d="M33.5549 1.03624C33.7621 1.03624 33.8657 1.06041 33.9036 1.07422C33.9313 1.13636 34.0003 1.37804 33.9416 2.03747C33.6343 5.43818 33.1924 7.37159 32.0496 10.32C31.1727 12.6159 29.5017 15.2778 27.986 16.7935C22.7003 22.0793 17.1486 25.366 13.4959 25.366C12.5119 25.366 11.6764 25.1278 11.0135 24.6583L10.8996 24.5789C10.7235 24.458 10.5751 24.351 10.4508 24.2405C9.89147 23.7365 9.59455 22.9665 9.56693 21.9515C9.47026 18.2573 12.9159 12.1602 17.9496 7.12646C19.5274 5.54866 22.3101 3.8017 24.7131 2.88333L24.7338 2.87297C27.1747 1.8752 28.8733 1.56102 33.0785 1.06731C33.2615 1.0466 33.4203 1.03624 33.5549 1.03624ZM33.5549 0.000488281C33.3754 0.000488281 33.1821 0.0142985 32.9646 0.038466C28.5971 0.549437 26.8709 0.880877 24.3471 1.91318C21.8889 2.85226 18.9716 4.64065 17.2211 6.39107C10.2471 13.3651 6.40789 21.9929 9.76027 25.007C9.96052 25.1865 10.1849 25.3384 10.4162 25.5007C11.2794 26.1118 12.322 26.3983 13.4959 26.3983C17.632 26.3983 23.3908 22.8526 28.7214 17.5254C30.3959 15.8509 32.1083 13.0751 33.0163 10.6894C34.1798 7.68231 34.6563 5.64188 34.9739 2.13068C35.1086 0.587414 34.7357 0.000488281 33.5549 0.000488281Z" fill="#424242"/>
<path id="Vector_16" opacity="0.2" d="M16.1888 17.0147C16.5997 17.0147 16.9829 17.1735 17.2729 17.4635C17.5629 17.7536 17.7218 18.1368 17.7218 18.5476C17.7218 18.9585 17.5629 19.3417 17.2729 19.6317C16.9829 19.9217 16.5997 20.0805 16.1888 20.0805C15.778 20.0805 15.3948 19.9217 15.1048 19.6317C14.8147 19.3417 14.6559 18.9585 14.6559 18.5476C14.6559 18.1368 14.8147 17.7536 15.1048 17.4635C15.3982 17.1735 15.7814 17.0147 16.1888 17.0147ZM16.1888 16.3242C15.6192 16.3242 15.053 16.5417 14.618 16.9767C13.7514 17.8433 13.7514 19.2519 14.618 20.1185C15.053 20.5535 15.6192 20.771 16.1888 20.771C16.7585 20.771 17.3247 20.5535 17.7597 20.1185C18.6263 19.2519 18.6263 17.8433 17.7597 16.9767C17.3282 16.5417 16.7585 16.3242 16.1888 16.3242Z" fill="#424242"/>
</g>
</g>
<defs>
<linearGradient id="paint0_linear_696_2405" x1="11.1633" y1="29.1321" x2="-0.00345243" y2="29.1321" gradientUnits="userSpaceOnUse">
<stop stop-color="#FF6D00"/>
<stop offset="0.2487" stop-color="#FF9B00"/>
<stop offset="0.5135" stop-color="#FFC600"/>
<stop offset="0.721" stop-color="#FFE000"/>
<stop offset="0.8439" stop-color="#FFEA00"/>
</linearGradient>
<linearGradient id="paint1_linear_696_2405" x1="7.37623" y1="27.2775" x2="1.59501" y2="33.2345" gradientUnits="userSpaceOnUse">
<stop offset="0.0044475" stop-color="#C62828"/>
<stop offset="0.2711" stop-color="#D75327"/>
<stop offset="0.5983" stop-color="#E98126"/>
<stop offset="0.8504" stop-color="#F59D25"/>
<stop offset="0.9953" stop-color="#F9A825"/>
</linearGradient>
<radialGradient id="paint2_radial_696_2405" cx="0" cy="0" r="1" gradientUnits="userSpaceOnUse" gradientTransform="translate(23.6186 6.75029) rotate(180) scale(12.5923 12.5923)">
<stop offset="0.0112" stop-color="#F5F5F5"/>
<stop offset="0.9995" stop-color="#BDBDBD"/>
</radialGradient>
</defs>
</svg>
