<svg width="35" height="35" viewBox="0 0 35 35" fill="none" xmlns="http://www.w3.org/2000/svg">
<g id="&#240;&#159;&#166;&#134; emoji &#34;writing hand: light skin tone&#34;">
<path id="Vector" d="M34.9941 19.9733C34.9941 19.0985 34.2856 18.3812 33.3845 18.3374C32.6614 18.3025 30.8622 18.7603 29.8445 18.282C27.3339 17.1011 16.9851 11.654 16.9851 11.654C16.0753 11.1612 13.8446 10.4323 12.7132 10.7151L4.46103 14.0043C3.65622 14.2055 3.00304 14.6925 2.58606 15.3252C2.2828 15.6693 1.95038 18.0604 1.49549 20.2328C1.0406 22.4052 0.483646 23.8428 0.483646 23.8428C0.034587 25.4991 1.34386 26.6101 2.50733 26.8083C3.6708 27.0066 5.19294 26.2922 5.642 24.633L6.59844 20.0433C6.75298 19.2968 7.36825 18.7253 8.13807 18.6115L11.0453 18.7165L10.0218 23.9507C10.0218 23.9507 15.2005 30.5787 22.5225 32.1504C25.2082 32.7278 27.7071 31.0482 29.6317 30.9286C30.5211 30.8732 32.3698 31.0686 33.1833 31.3048C34.0873 31.5672 34.9971 30.9024 34.9971 29.9897V19.9733H34.9941Z" fill="url(#paint0_radial_696_2378)"/>
<path id="Vector_2" d="M24.4092 32.588C22.5547 32.553 19.7116 31.5004 17.7579 30.6431C16.3145 30.0103 14.6728 29.9461 13.1827 30.4739L11.6868 31.0017C10.2668 31.5033 8.67464 31.0309 7.78819 29.8441L4.85181 25.9163L29.3605 25.8667C29.3605 25.8667 28.9115 32.6755 24.4092 32.588Z" fill="url(#paint1_linear_696_2378)"/>
<path id="Vector_3" d="M10.6663 20.0492L15.046 12.8059L15.0169 14.016C14.9877 15.2524 15.7955 16.3634 17.0085 16.757L10.6663 20.0492Z" fill="#E6B77E"/>
<path id="Vector_4" d="M5.7234 31.1881L0.713762 34.8914C0.358014 35.1538 -0.0852133 34.871 0.0168457 34.4453L1.3961 28.6891C1.42817 28.5579 1.48066 28.4267 1.55356 28.3101L18.1629 0.649163C18.5158 0.0630532 19.236 -0.170224 19.7725 0.133037L22.3298 1.57644C22.8664 1.8797 23.0151 2.59995 22.6623 3.18897L6.08206 30.7886C5.99167 30.9461 5.8692 31.0831 5.7234 31.1881Z" fill="#1E88E5"/>
<path id="Vector_5" d="M13.3111 11.5257C14.3055 11.5257 15.8801 12.0476 16.5799 12.4267C17.0028 12.6483 26.9725 17.8971 29.4744 19.0722C29.9088 19.2763 30.4454 19.3755 31.116 19.3755C31.6293 19.3755 32.1308 19.3201 32.574 19.2705C32.8627 19.2384 33.1368 19.2093 33.303 19.2093H33.3438C33.7783 19.2297 34.1195 19.565 34.1195 19.9703V29.9867C34.1195 30.287 33.8425 30.4853 33.5859 30.4853C33.5334 30.4853 33.478 30.4766 33.4255 30.462C32.574 30.2141 30.9236 30.0421 29.9759 30.0421C29.8301 30.0421 29.696 30.045 29.5764 30.0537C28.7483 30.1062 27.8939 30.3832 26.9899 30.6807L26.8121 30.739C26.6925 30.7769 26.5817 30.844 26.4884 30.9285C25.9227 31.4534 25.2695 31.71 24.4968 31.71H24.4268C23.0825 31.6838 20.7206 30.9839 18.1079 29.838C17.204 29.4414 16.2446 29.2402 15.2532 29.2402C14.4454 29.2402 13.6494 29.3772 12.8912 29.6455L11.3953 30.1733C11.1154 30.2724 10.8238 30.322 10.5293 30.322C9.72157 30.322 8.96051 29.9459 8.48812 29.3189L8.09155 28.7911C7.92534 28.5695 7.66582 28.4412 7.39171 28.4412C7.36255 28.4412 7.33631 28.4412 7.30715 28.4441C7.21967 28.4529 7.13219 28.4558 7.05055 28.4558C6.20491 28.4558 5.89582 28.0271 5.73836 27.7035C5.51383 27.2515 5.48467 26.7849 5.6538 26.3242C5.72086 26.1405 5.72086 25.9451 5.66546 25.7673C5.855 25.7439 6.03579 25.6565 6.17867 25.5136C6.38279 25.3065 6.6219 25.1287 6.88434 24.9858C6.896 24.98 6.90475 24.9741 6.9135 24.9683L10.8792 22.6093C11.0921 22.481 11.2437 22.271 11.2904 22.0261L11.9056 18.8856C11.9581 18.6144 11.8823 18.3345 11.6957 18.1303C11.5295 17.9466 11.2933 17.8417 11.0483 17.8417C11.0221 17.8417 10.9929 17.8417 10.9667 17.8446L8.47062 18.0808C8.45604 18.0837 8.43855 18.0837 8.42397 18.0866C7.31298 18.2499 6.41195 19.078 6.16409 20.154L4.80817 24.3647C4.80525 24.3763 4.79942 24.3909 4.7965 24.4026C4.78192 24.4609 4.76151 24.5251 4.73235 24.6009C4.66528 24.7875 4.66237 24.9829 4.71777 25.1607C4.53406 25.1841 4.35911 25.2657 4.21914 25.4028C3.85756 25.7556 3.35893 25.9656 2.88946 25.9656C2.80781 25.9656 2.72616 25.9597 2.65035 25.9451C2.17504 25.8635 1.70849 25.5661 1.46355 25.1812C1.26526 24.8691 1.21277 24.5076 1.31483 24.1081C1.41981 23.8281 1.92427 22.4343 2.34709 20.4135C2.49289 19.7137 2.6241 19.0139 2.74949 18.3345C2.93028 17.3576 3.15481 16.1446 3.29186 15.8384C3.29769 15.8296 3.30644 15.818 3.31227 15.8092C3.6272 15.3339 4.11125 14.9928 4.67111 14.8528C4.70902 14.844 4.74693 14.8324 4.78192 14.8178L12.97 11.5519C13.0458 11.5402 13.1566 11.5257 13.3111 11.5257ZM13.3111 10.6509C13.0924 10.6509 12.8912 10.6713 12.7163 10.715L4.46408 14.0042C3.65927 14.2054 3.0061 14.6924 2.58911 15.3252C2.28585 15.6693 1.95343 18.0604 1.49854 20.2328C1.04365 22.4081 0.486698 23.8398 0.486698 23.8398C0.0376387 25.4961 1.34691 26.6071 2.51038 26.8054C2.63577 26.8258 2.76407 26.8374 2.89529 26.8374C3.55721 26.8374 4.27746 26.5692 4.83441 26.0268C4.60113 26.6741 4.61571 27.3915 4.9598 28.0884C5.39719 28.9748 6.17867 29.3277 7.05638 29.3277C7.1701 29.3277 7.28382 29.3218 7.39755 29.3102L7.79412 29.838C8.44438 30.7069 9.47372 31.1939 10.5351 31.1939C10.923 31.1939 11.3137 31.1297 11.6928 30.9956L13.1887 30.4678C13.8593 30.2316 14.5592 30.115 15.259 30.115C16.1134 30.115 16.9678 30.2899 17.7638 30.6399C19.7175 31.4971 22.5635 32.5498 24.4151 32.5848H24.4997C25.5845 32.5848 26.4301 32.1795 27.0862 31.57C28.0105 31.2697 28.8678 30.9752 29.6347 30.9256C29.7368 30.9198 29.8534 30.9169 29.9817 30.9169C30.9411 30.9169 32.4691 31.0947 33.1864 31.3018C33.3234 31.3426 33.4576 31.3601 33.5917 31.3601C34.344 31.3601 35.0001 30.7623 35.0001 29.9867V19.9732C35.0001 19.0984 34.2915 18.3811 33.3905 18.3374C33.3643 18.3374 33.3351 18.3345 33.3089 18.3345C32.8161 18.3345 31.9442 18.5007 31.1219 18.5007C30.6553 18.5007 30.2092 18.4482 29.8534 18.282C27.3428 17.101 16.994 11.654 16.994 11.654C16.2184 11.237 14.5038 10.6509 13.3111 10.6509ZM5.55465 24.9012C5.58673 24.8137 5.61589 24.7263 5.64213 24.633L7.01264 20.3844C7.16719 19.6379 7.78245 19.0664 8.55227 18.9526L11.0454 18.7194L10.4302 21.8599L6.46444 24.2189C6.12035 24.4084 5.81418 24.6388 5.55465 24.9012Z" fill="#E6B77E"/>
<path id="Vector_6" d="M5.7234 31.1881L0.713762 34.8914C0.358014 35.1538 -0.0852133 34.871 0.0168457 34.4453L1.3961 28.6891C1.42817 28.5579 1.48066 28.4267 1.55356 28.3101L18.1629 0.649163C18.5158 0.0630532 19.236 -0.170224 19.7725 0.133037L22.3298 1.57644C22.8664 1.8797 23.0151 2.59995 22.6623 3.18897L6.08206 30.7886C5.99167 30.9461 5.8692 31.0831 5.7234 31.1881Z" fill="url(#paint2_linear_696_2378)"/>
<path id="Vector_7" opacity="0.2" d="M19.2596 0.876744C19.2917 0.876744 19.3208 0.882576 19.3442 0.897156L21.9015 2.34056C21.9131 2.34639 21.951 2.36972 21.9714 2.4397C21.9831 2.48344 22.0006 2.59717 21.9131 2.74005L5.33293 30.3426C5.29793 30.398 5.25419 30.4505 5.20171 30.4884L1.14559 33.486L2.24491 28.8934C2.25658 28.8467 2.27407 28.803 2.30032 28.7592L18.9155 1.10127C19.0059 0.946727 19.1546 0.876744 19.2596 0.876744ZM19.2596 0.00195312C18.8397 0.00195312 18.411 0.238147 18.1632 0.649298L1.55091 28.3073C1.47801 28.4268 1.42553 28.5551 1.39345 28.6863L0.014196 34.4425C-0.0587033 34.7574 0.159994 34.9936 0.422432 34.9936C0.518659 34.9936 0.620718 34.9615 0.714029 34.8915L5.72367 31.1882C5.86946 31.0804 5.99193 30.9462 6.08525 30.7888L22.6654 3.18911C23.0183 2.603 22.8696 1.87984 22.333 1.57658L19.7757 0.133172C19.6153 0.0456926 19.4375 0.00195312 19.2596 0.00195312Z" fill="#424242"/>
<path id="Vector_8" d="M21.782 17.6317C18.1632 16.2583 15.3639 16.4624 13.3256 18.072C11.9143 19.1889 6.80262 22.828 4.56024 25.2162C3.49007 26.3592 4.48734 27.6452 5.41753 28.2254C7.24001 29.3685 9.06249 29.2781 13.0224 26.8753C15.0461 25.6477 16.3437 26.6712 17.7812 27.6539C17.7812 27.6539 20.0295 29.5172 22.0094 30.2141C23.9893 30.9111 28.617 29.8409 30.1654 27.4964C31.877 24.9042 29.1069 20.4136 21.782 17.6317Z" fill="url(#paint3_radial_696_2378)"/>
<g id="Clip path group">
<mask id="mask0_696_2378" style="mask-type:luminance" maskUnits="userSpaceOnUse" x="4" y="16" width="22" height="15">
<g id="f">
<path id="Vector_9" d="M20.6447 17.2469C20.044 17.0661 19.4696 16.9319 18.9156 16.8445C16.6469 16.4858 14.7895 16.9145 13.3286 18.0692C11.9172 19.186 6.80555 22.8251 4.56316 25.2133C3.493 26.3564 4.49027 27.6423 5.42046 28.2226C7.24294 29.3656 9.06542 29.2752 13.0253 26.8725C15.049 25.6449 16.3466 26.6684 17.7842 27.6511C17.7842 27.6511 20.0324 29.5144 22.0123 30.2113C22.7909 30.4854 23.9748 30.4854 25.2228 30.2433C19.3559 30.1442 17.0552 18.7573 17.0552 18.7573C17.0552 18.7573 17.0523 17.556 20.6447 17.2469Z" fill="white"/>
</g>
</mask>
<g mask="url(#mask0_696_2378)">
<g id="Group">
<path id="Vector_10" d="M17.4167 17.597C18.0933 17.597 18.8281 17.6903 19.6096 17.874C18.8397 22.0234 20.1548 26.2311 23.2224 29.5437C22.7675 29.5233 22.473 29.4504 22.2981 29.3891C20.4931 28.7535 18.3586 26.998 18.3382 26.9805C18.3178 26.9631 18.2974 26.9485 18.274 26.931L18.0758 26.7939C17.1077 26.1262 16.1046 25.4351 14.804 25.4351C14.0634 25.4351 13.3315 25.6596 12.5675 26.1233C10.363 27.4588 8.86421 28.0565 7.70657 28.0565C7.07963 28.0565 6.51393 27.8787 5.87825 27.4792C5.39129 27.173 5.01804 26.7123 4.9743 26.3536C4.95681 26.2282 4.96847 26.0504 5.19592 25.8083C6.89593 23.9946 10.3805 21.379 12.4625 19.8189C13.069 19.364 13.5502 19.0025 13.8651 18.7546C14.8594 17.976 16.02 17.597 17.4167 17.597ZM17.4167 16.7222C15.813 16.7222 14.4541 17.18 13.3256 18.0693C11.9143 19.1862 6.80262 22.8253 4.56024 25.2135C3.49007 26.3565 4.48734 27.6425 5.41753 28.2228C6.13777 28.6747 6.85802 28.9342 7.70948 28.9342C9.01292 28.9342 10.6284 28.3277 13.0224 26.8756C13.6843 26.4732 14.2675 26.3128 14.807 26.3128C15.9121 26.3128 16.8161 26.9922 17.7812 27.6541C17.7812 27.6541 20.0295 29.5174 22.0094 30.2144C22.4118 30.3543 22.9192 30.4243 23.4907 30.4243C24.0272 30.4243 24.6163 30.3631 25.2199 30.2464C21.4379 27.0243 19.3792 22.2071 20.6447 17.247C19.4754 16.8942 18.4023 16.7222 17.4167 16.7222Z" fill="#E6B77E"/>
</g>
</g>
</g>
</g>
<defs>
<radialGradient id="paint0_radial_696_2378" cx="0" cy="0" r="1" gradientUnits="userSpaceOnUse" gradientTransform="translate(9.81998 19.7125) scale(14.5228 14.1863)">
<stop stop-color="#F9DDBD"/>
<stop offset="0.3269" stop-color="#F8DBBA"/>
<stop offset="0.6038" stop-color="#F5D5AF"/>
<stop offset="0.8616" stop-color="#F0CB9E"/>
<stop offset="1" stop-color="#EDC391"/>
</radialGradient>
<linearGradient id="paint1_linear_696_2378" x1="4.85268" y1="29.2288" x2="29.3605" y2="29.2288" gradientUnits="userSpaceOnUse">
<stop stop-color="#EDC391"/>
<stop offset="1" stop-color="#EDC391"/>
</linearGradient>
<linearGradient id="paint2_linear_696_2378" x1="18.493" y1="4.25593" x2="3.26115" y2="31.6751" gradientUnits="userSpaceOnUse">
<stop stop-color="#64B5F6"/>
<stop offset="1" stop-color="#2196F3"/>
</linearGradient>
<radialGradient id="paint3_radial_696_2378" cx="0" cy="0" r="1" gradientUnits="userSpaceOnUse" gradientTransform="translate(15.0434 22.5526) scale(10.6378 10.3091)">
<stop stop-color="#F9DDBD"/>
<stop offset="0.3269" stop-color="#F8DBBA"/>
<stop offset="0.6038" stop-color="#F5D5AF"/>
<stop offset="0.8616" stop-color="#F0CB9E"/>
<stop offset="1" stop-color="#EDC391"/>
</radialGradient>
</defs>
</svg>
