<svg width="40" height="35" viewBox="0 0 40 35" fill="none" xmlns="http://www.w3.org/2000/svg">
<g id="&#240;&#159;&#166;&#134; emoji &#34;telephone&#34;">
<path id="Vector" d="M38.0717 5.92056C36.3651 3.82643 30.3773 0 19.9995 0C9.62169 0 3.63389 3.82643 1.92721 5.92056C0.220527 8.01468 0.137274 10.4514 0.220527 12.1837C0.223729 12.2798 0.239739 12.4239 0.268557 12.5904C0.470285 13.7463 0.819307 14.5756 5.55831 14.5756C10.6143 14.5756 11.1747 13.3301 11.2067 12.4175C11.2579 10.9317 11.434 8.96249 12.1033 8.54622C12.891 8.06271 13.5666 6.33362 19.9995 6.23115C26.4324 6.33362 27.108 8.06271 27.8989 8.54942C28.5713 8.96569 28.7442 10.9317 28.7955 12.4207C28.8275 13.3333 29.3878 14.5788 34.4438 14.5788C39.1796 14.5788 39.5319 13.7463 39.7336 12.5936C39.7624 12.4271 39.7752 12.283 39.7816 12.1869C39.8617 10.4514 39.7816 8.01789 38.0717 5.92056Z" fill="#D32F2F"/>
<path id="Vector_2" d="M34.4438 15.8598C31.4179 15.8598 27.9309 15.5076 27.838 12.7731C27.8188 12.2415 28.2351 11.7964 28.7634 11.7804C29.2886 11.7612 29.7368 12.1775 29.7561 12.7058C29.7689 13.0772 30.2524 13.9386 34.4438 13.9386C39.4166 13.9386 39.8008 11.9918 39.8008 11.9918C40.1178 12.7731 40.8511 15.5812 34.4438 15.8598Z" fill="#A31919"/>
<path id="Vector_3" d="M5.55197 15.5395C8.57789 15.5395 12.0649 15.1873 12.1578 12.4527C12.177 11.9212 11.7607 11.4761 11.2324 11.4601C10.7072 11.4409 10.259 11.8572 10.2397 12.3855C10.2269 12.7569 9.74343 13.6183 5.55197 13.6183C0.579215 13.6183 0.194972 11.6714 0.194972 11.6714C-0.112423 12.3855 -0.855295 15.2609 5.55197 15.5395Z" fill="#A31919"/>
<path id="Vector_4" d="M30.8991 4.4476C29.2149 3.74956 25.8431 2.80176 19.9994 2.80176C14.1557 2.80176 10.7872 3.74956 9.09972 4.4476C8.54577 4.67495 8.49453 5.43063 9.00686 5.74122C9.96427 6.32399 11.1554 7.4351 11.4628 9.46198C11.4724 9.52923 11.4916 9.59006 11.5108 9.6509C11.6453 9.12577 11.8311 8.71591 12.0968 8.55261C12.8909 8.0627 13.5666 6.3336 19.9994 6.23113C26.4323 6.3336 27.1079 8.06269 27.8988 8.5494C28.1646 8.71271 28.3503 9.12257 28.4848 9.6477C28.504 9.58686 28.5232 9.52602 28.5328 9.45878C28.8402 7.4351 30.0314 6.32079 30.9888 5.73802C31.5011 5.43063 31.4531 4.67495 30.8991 4.4476Z" fill="#A31919"/>
<path id="Vector_5" d="M37.7837 9.64774C37.1273 8.04352 36.5669 7.3743 34.7033 6.63783C34.0309 6.37206 33.6274 5.87895 33.7939 5.46909C33.9605 5.05923 34.3959 4.91514 35.0908 5.09765C37.0408 5.60357 38.5266 7.43193 38.5298 9.57729C38.5266 10.5763 38.0398 10.2721 37.7837 9.64774Z" fill="#FF5252"/>
<path id="Vector_6" d="M2.83988 6.43289C2.96156 6.83954 3.75566 6.50013 4.71947 6.42328C6.05472 6.31761 6.44857 6.73388 7.04095 7.35507C7.53726 7.877 8.24811 7.88661 8.51068 7.53118C8.77645 7.17576 8.61955 6.78191 8.16166 6.22796C7.82224 5.81489 6.35891 4.83187 4.19754 5.41464C3.70763 5.55233 2.7118 6.00381 2.83988 6.43289Z" fill="#FF5252"/>
<path id="Vector_7" d="M5.55518 25.4176V32.2348C5.55518 33.49 6.63746 34.5082 7.96951 34.5082H32.0296C33.3616 34.5082 34.4439 33.49 34.4439 32.2348V25.2607L5.55518 25.4176Z" fill="#B93221"/>
<path id="Vector_8" d="M34.3734 24.2713C34.3734 24.2713 31.8726 12.6415 31.4691 10.5858C31.0657 8.53012 30.3644 7.92494 29.1797 7.90572C28.3824 7.89292 27.5402 7.34537 27.3994 6.36235C27.2585 5.39213 27.2264 4.82217 27.1688 4.3931C27.1112 3.96402 27.1272 3.33643 26.5124 3.33643H25.2924C24.7481 3.33643 24.7032 3.44209 24.6136 4.21058C24.5239 4.98227 24.4023 6.46801 24.1013 7.21088C23.8419 7.84809 23.1567 7.90572 22.766 7.90572H17.2297C16.8423 7.90572 16.1538 7.84809 15.8945 7.21088C15.5935 6.46801 15.4686 4.97907 15.3821 4.21058C15.2925 3.43889 15.2476 3.33643 14.7033 3.33643H13.4833C12.8717 3.33643 12.8877 3.96402 12.8269 4.3931C12.7693 4.82217 12.7373 5.39213 12.5964 6.36235C12.4523 7.34537 11.6133 7.89292 10.816 7.90572C9.63128 7.92494 8.93004 8.53012 8.52658 10.5858C8.12313 12.6415 5.62234 24.2713 5.62234 24.2713C5.28613 26.5351 6.07063 27.4829 10.1308 27.4829H29.8617C33.9283 27.4829 34.7128 26.5351 34.3734 24.2713Z" fill="#FF5252"/>
<path id="Vector_9" d="M27.8444 13.6376L26.6532 11.6939L24.0148 11.2393L23.0542 11.8124C22.83 11.9469 22.5514 11.9373 22.3337 11.7964L21.8374 11.4698L18.1839 11.4986L17.8028 11.774C17.5819 11.9341 17.2841 11.9437 17.0536 11.8028L16.1762 11.2649L12.1545 13.6376L10.7231 21.8028L10.7904 23.2789C10.8032 23.5799 11.053 23.8168 11.3539 23.8168H28.6481C28.9491 23.8168 29.1989 23.5799 29.2117 23.2789L29.2789 21.8028L27.8444 13.6376Z" fill="#4E342E"/>
<g id="Group">
<path id="Vector_10" d="M24.6872 18.0051H27.9885C28.2991 18.0051 28.5361 17.7233 28.4816 17.4192L28.1774 15.674C28.1358 15.4339 27.9277 15.261 27.6843 15.261H24.4823C24.1813 15.261 23.9508 15.5236 23.986 15.8213L24.1941 17.5664C24.2197 17.8162 24.4343 18.0051 24.6872 18.0051Z" fill="#F5F5F5"/>
<path id="Vector_11" d="M18.5234 14.1435H21.5173C21.8023 14.1435 22.0328 13.9033 22.0168 13.6184L21.9175 11.7132C21.9047 11.4474 21.6838 11.2393 21.418 11.2393H18.6226C18.3569 11.2393 18.1359 11.4474 18.1231 11.7132L18.0239 13.6184C18.0078 13.9033 18.2384 14.1435 18.5234 14.1435Z" fill="#F5F5F5"/>
<path id="Vector_12" d="M21.8408 19.4492H18.2001C17.9343 19.4492 17.7134 19.6574 17.7006 19.9231L17.6109 21.6682C17.5949 21.9532 17.8254 22.1934 18.1104 22.1934H21.9304C22.2154 22.1934 22.446 21.9532 22.4299 21.6682L22.3403 19.9231C22.3275 19.6574 22.1065 19.4492 21.8408 19.4492Z" fill="#F5F5F5"/>
<path id="Vector_13" d="M18.3312 18.0051H21.7062C21.9911 18.0051 22.2217 17.765 22.2057 17.48L22.116 15.7349C22.1032 15.4691 21.8823 15.261 21.6165 15.261H18.4209C18.1551 15.261 17.9342 15.4691 17.9213 15.7349L17.8317 17.48C17.8189 17.765 18.0462 18.0051 18.3312 18.0051Z" fill="#F5F5F5"/>
<path id="Vector_14" d="M15.0397 19.4492H11.5559C11.3125 19.4492 11.1044 19.6253 11.0627 19.8623L10.7585 21.6074C10.7041 21.9148 10.9411 22.1934 11.2517 22.1934H14.8347C15.0877 22.1934 15.3022 22.0044 15.331 21.7515L15.5392 20.0064C15.5712 19.7118 15.3407 19.4492 15.0397 19.4492Z" fill="#F5F5F5"/>
<path id="Vector_15" d="M12.0104 18.0052H15.3501C15.6031 18.0052 15.8176 17.8162 15.8465 17.5633L16.0546 15.8182C16.0898 15.5204 15.8593 15.2578 15.5583 15.2578H12.3178C12.0745 15.2578 11.8663 15.4339 11.8247 15.6709L11.5205 17.416C11.4629 17.7234 11.6998 18.0052 12.0104 18.0052Z" fill="#F5F5F5"/>
<path id="Vector_16" d="M24.2454 14.1435H27.3386C27.6492 14.1435 27.8861 13.8617 27.8317 13.5575L27.4987 11.6523C27.457 11.4122 27.2489 11.2393 27.0056 11.2393H24.0181C23.7171 11.2393 23.4865 11.5018 23.5217 11.7996L23.7491 13.7048C23.7779 13.9546 23.9924 14.1435 24.2454 14.1435Z" fill="#F5F5F5"/>
<path id="Vector_17" d="M16.2915 13.7016L16.5188 11.7964C16.554 11.4987 16.3235 11.2361 16.0225 11.2361H12.9934C12.75 11.2361 12.5419 11.4122 12.5002 11.6491L12.1672 13.5544C12.1128 13.8617 12.3498 14.1403 12.6604 14.1403H15.7951C16.0481 14.1435 16.2626 13.9546 16.2915 13.7016Z" fill="#F5F5F5"/>
<path id="Vector_18" d="M24.5017 20.0096L24.7098 21.7547C24.7386 22.0076 24.9532 22.1966 25.2061 22.1966H28.7476C29.0582 22.1966 29.2951 21.9148 29.2407 21.6106L28.9365 19.8655C28.8949 19.6253 28.6867 19.4524 28.4434 19.4524H24.998C24.7002 19.4492 24.4665 19.7118 24.5017 20.0096Z" fill="#F5F5F5"/>
</g>
</g>
</svg>
