<svg width="35" height="36" viewBox="0 0 35 36" fill="none" xmlns="http://www.w3.org/2000/svg">
<g id="&#240;&#159;&#166;&#134; emoji &#34;film projector&#34;">
<path id="Vector" d="M4.66675 21H14.0001V29.1667H4.66675V21Z" fill="url(#paint0_linear_696_2363)"/>
<path id="Vector_2" d="M1.925 15.4466L8.16667 21V29.1666L1.925 34.72C1.16958 35.3675 0 34.8279 0 33.8333V16.3333C0 15.3358 1.16958 14.7991 1.925 15.4466Z" fill="url(#paint1_linear_696_2363)"/>
<path id="Vector_3" d="M8.16663 21H12.8333V29.1667H8.16663V21Z" fill="url(#paint2_linear_696_2363)"/>
<path id="Vector_4" opacity="0.2" d="M1.1725 16.0388C1.23667 16.0388 1.295 16.0622 1.35042 16.1088L7.58333 21.6534L7.83417 21.8751H13.125V28.2917H7.83417L7.58333 28.5134L1.35333 34.058C1.295 34.1047 1.23667 34.1251 1.1725 34.1251C1.07625 34.1251 0.875 34.0551 0.875 33.8334V16.3334C0.875 16.2459 0.904167 16.1788 0.959583 16.1263C1.01792 16.0709 1.09667 16.0388 1.1725 16.0388ZM1.1725 15.1638C0.571667 15.1638 0 15.6363 0 16.3334V33.8334C0 34.5305 0.571667 35.003 1.1725 35.003C1.43208 35.003 1.6975 34.9155 1.925 34.7201L8.16667 29.1667H14V21.0001H8.16667L1.925 15.4467C1.6975 15.2513 1.43208 15.1638 1.1725 15.1638Z" fill="#424242"/>
<path id="Vector_5" d="M32.6667 33.8158H14.8313C13.5421 33.8158 12.4979 32.7716 12.4979 31.4824V18.6666C12.4979 17.3774 13.5421 16.3333 14.8313 16.3333H32.6667C33.9558 16.3333 35 17.3774 35 18.6666V31.4824C35 32.7716 33.9558 33.8158 32.6667 33.8158Z" fill="url(#paint3_radial_696_2363)"/>
<path id="Vector_6" d="M14.8079 30.5259H24.08C24.3104 30.5259 24.5 30.7155 24.5 30.9459V31.08C24.5 31.3105 24.3104 31.5 24.08 31.5H14.8079C14.5775 31.5 14.3879 31.3105 14.3879 31.08V30.9459C14.3909 30.7155 14.5775 30.5259 14.8079 30.5259Z" fill="#0288D1"/>
<path id="Vector_7" d="M14.8079 28.7759H24.08C24.3104 28.7759 24.5 28.9655 24.5 29.1959V29.33C24.5 29.5605 24.3104 29.75 24.08 29.75H14.8079C14.5775 29.75 14.3879 29.5605 14.3879 29.33V29.1959C14.3909 28.9655 14.5775 28.7759 14.8079 28.7759Z" fill="#0288D1"/>
<path id="Vector_8" d="M14.8079 27.0259H24.08C24.3104 27.0259 24.5 27.2155 24.5 27.4459V27.58C24.5 27.8105 24.3104 28 24.08 28H14.8079C14.5775 28 14.3879 27.8105 14.3879 27.58V27.4459C14.3909 27.2155 14.5775 27.0259 14.8079 27.0259Z" fill="#0288D1"/>
<path id="Vector_9" opacity="0.2" d="M32.6667 17.2083C33.4717 17.2083 34.125 17.8616 34.125 18.6666V31.4824C34.125 32.2874 33.4717 32.9408 32.6667 32.9408H14.8313C14.0263 32.9408 13.3729 32.2874 13.3729 31.4824V18.6666C13.3729 17.8616 14.0263 17.2083 14.8313 17.2083H32.6667ZM32.6667 16.3333H14.8313C13.5421 16.3333 12.4979 17.3774 12.4979 18.6666V31.4824C12.4979 32.7716 13.5421 33.8158 14.8313 33.8158H32.6667C33.9558 33.8158 35 32.7716 35 31.4824V18.6666C35 17.3774 33.9558 16.3333 32.6667 16.3333Z" fill="#424242"/>
<path id="Vector_10" d="M12.8333 0C7.67958 0 3.5 4.17958 3.5 9.33333C3.5 14.4871 7.67958 18.6667 12.8333 18.6667C17.9871 18.6667 22.1667 14.4871 22.1667 9.33333C22.1667 4.17958 17.99 0 12.8333 0ZM14.1021 5.53292L15.0179 2.56083C15.0704 2.39167 15.2512 2.29833 15.4175 2.35958C16.3946 2.72125 17.3104 3.29 18.0921 4.07458C18.9875 4.97 19.6029 6.03458 19.9471 7.16625C19.9967 7.32958 19.8975 7.50167 19.7342 7.54833L16.7592 8.42042C16.5987 8.46708 16.4296 8.37958 16.38 8.22208C16.2079 7.66792 15.9046 7.14292 15.4642 6.70542C15.1112 6.3525 14.7058 6.09 14.2742 5.90917C14.1283 5.84792 14.0554 5.68458 14.1021 5.53292ZM5.92958 6.56833C6.29125 5.66125 6.8425 4.80958 7.5775 4.07458C8.37083 3.28125 9.29833 2.70667 10.2842 2.34792C10.4504 2.28667 10.6342 2.38583 10.6838 2.555L11.5588 5.54167C11.6025 5.69042 11.5296 5.85083 11.3867 5.91208C10.9579 6.09292 10.5554 6.35542 10.2054 6.70542C9.89625 7.01458 9.65417 7.36458 9.47625 7.73792C9.41208 7.875 9.25167 7.93625 9.10875 7.8925L6.12792 6.97375C5.95875 6.92125 5.8625 6.73458 5.92958 6.56833ZM11.7367 13.2008L10.8208 16.1671C10.7712 16.3333 10.5933 16.4267 10.43 16.3712C9.38875 16.0154 8.40875 15.4233 7.5775 14.5921C6.80458 13.8192 6.23875 12.915 5.87708 11.9525C5.81583 11.7862 5.91208 11.6025 6.08417 11.55L9.06792 10.675C9.21667 10.6312 9.38 10.6983 9.44125 10.8412C9.61917 11.2467 9.87292 11.6287 10.2083 11.9612C10.6021 12.355 11.0658 12.6408 11.5558 12.8217C11.7046 12.88 11.7833 13.0492 11.7367 13.2008ZM11.2875 10.8792C10.4329 10.0246 10.4329 8.63917 11.2875 7.78458C12.1421 6.93 13.5275 6.93 14.3821 7.78458C15.2367 8.63917 15.2367 10.0246 14.3821 10.8792C13.5275 11.7337 12.1421 11.7337 11.2875 10.8792ZM19.9325 11.5529C19.5854 12.6642 18.9729 13.7112 18.095 14.5921C17.22 15.4671 16.1787 16.0767 15.0733 16.4237C14.91 16.4762 14.735 16.3771 14.6883 16.2137L13.8162 13.2358C13.7696 13.0783 13.8542 12.9092 14.0117 12.8567C14.5425 12.6817 15.0442 12.3842 15.4671 11.9612C15.9046 11.5237 16.2079 11.0017 16.38 10.4504C16.4296 10.29 16.6046 10.2025 16.765 10.2521L19.7283 11.1679C19.8858 11.2204 19.9821 11.3925 19.9325 11.5529Z" fill="url(#paint4_radial_696_2363)"/>
<path id="Vector_11" d="M28.5833 4.66675C25.0395 4.66675 22.1666 7.53966 22.1666 11.0834C22.1666 14.6272 25.0395 17.5001 28.5833 17.5001C32.127 17.5001 35 14.6272 35 11.0834C35 7.53966 32.127 4.66675 28.5833 4.66675ZM29.4554 8.47008L30.0854 6.42841C30.1204 6.31175 30.2458 6.24758 30.3595 6.28841C31.0304 6.53633 31.6604 6.92716 32.2 7.46675C32.8154 8.08216 33.2383 8.81425 33.4745 9.59008C33.5095 9.70091 33.4425 9.8205 33.3287 9.85258L31.2841 10.4534C31.1733 10.4855 31.0566 10.4272 31.0216 10.3163C30.902 9.93425 30.695 9.5755 30.3916 9.27216C30.1495 9.03008 29.8695 8.84925 29.572 8.72383C29.4729 8.68591 29.4233 8.57508 29.4554 8.47008ZM23.835 9.18175C24.0858 8.55758 24.462 7.97425 24.9666 7.46675C25.512 6.92133 26.1479 6.52758 26.8275 6.27966C26.9412 6.23883 27.0666 6.30591 27.1016 6.42258L27.7025 8.47591C27.7316 8.578 27.682 8.68883 27.5858 8.72966C27.2912 8.85508 27.0141 9.033 26.775 9.27508C26.562 9.488 26.3958 9.73008 26.2733 9.98675C26.2295 10.0801 26.1187 10.1238 26.0225 10.0917L23.972 9.45883C23.8554 9.42383 23.7912 9.2955 23.835 9.18175ZM27.8279 13.7434L27.1979 15.7822C27.1629 15.8959 27.0404 15.9601 26.9295 15.9222C26.212 15.6772 25.5383 15.2688 24.9695 14.6972C24.4387 14.1663 24.0479 13.5451 23.8 12.883C23.7562 12.7692 23.8233 12.6409 23.9429 12.6059L25.9962 12.0051C26.0983 11.9759 26.2091 12.0226 26.2529 12.1188C26.3754 12.3988 26.5504 12.6613 26.7808 12.8888C27.052 13.1601 27.37 13.3555 27.7083 13.4809C27.8075 13.5217 27.86 13.6384 27.8279 13.7434ZM27.5537 12.1159C26.985 11.5472 26.985 10.6226 27.5537 10.0538C28.1225 9.48508 29.047 9.48508 29.6158 10.0538C30.1845 10.6226 30.1845 11.5472 29.6158 12.1159C29.0441 12.6847 28.1225 12.6847 27.5537 12.1159ZM33.4629 12.6088C33.2237 13.373 32.8037 14.0934 32.2 14.6972C31.5991 15.298 30.8816 15.718 30.1233 15.9572C30.0095 15.9922 29.89 15.9251 29.8579 15.8113L29.257 13.7638C29.225 13.6559 29.2833 13.5392 29.3912 13.5042C29.7558 13.3847 30.1 13.1805 30.3916 12.8888C30.692 12.5884 30.902 12.2297 31.0187 11.8505C31.0537 11.7397 31.1733 11.6813 31.2812 11.7134L33.317 12.3434C33.4308 12.3813 33.4979 12.498 33.4629 12.6088Z" fill="url(#paint5_radial_696_2363)"/>
<g id="Group" opacity="0.2">
<path id="Vector_12" d="M32.0834 27.9998C32.4042 27.9998 32.6667 28.2623 32.6667 28.5832C32.6667 28.904 32.4042 29.1665 32.0834 29.1665C31.7626 29.1665 31.5001 28.904 31.5001 28.5832C31.5001 28.2623 31.7626 27.9998 32.0834 27.9998ZM32.0834 27.4165C31.4388 27.4165 30.9167 27.9386 30.9167 28.5832C30.9167 29.2278 31.4388 29.7498 32.0834 29.7498C32.728 29.7498 33.2501 29.2278 33.2501 28.5832C33.2501 27.9386 32.728 27.4165 32.0834 27.4165Z" fill="#424242"/>
<path id="Vector_13" d="M32.0834 30.3333C32.4042 30.3333 32.6667 30.5958 32.6667 30.9167C32.6667 31.2375 32.4042 31.5 32.0834 31.5C31.7626 31.5 31.5001 31.2375 31.5001 30.9167C31.5001 30.5958 31.7626 30.3333 32.0834 30.3333ZM32.0834 29.75C31.4388 29.75 30.9167 30.2721 30.9167 30.9167C30.9167 31.5612 31.4388 32.0833 32.0834 32.0833C32.728 32.0833 33.2501 31.5612 33.2501 30.9167C33.2501 30.2721 32.728 29.75 32.0834 29.75Z" fill="#424242"/>
</g>
<path id="Vector_14" d="M32.0833 29.1667C32.4055 29.1667 32.6667 28.9055 32.6667 28.5833C32.6667 28.2612 32.4055 28 32.0833 28C31.7612 28 31.5 28.2612 31.5 28.5833C31.5 28.9055 31.7612 29.1667 32.0833 29.1667Z" fill="url(#paint6_linear_696_2363)"/>
<path id="Vector_15" d="M32.0833 31.5002C32.4055 31.5002 32.6667 31.239 32.6667 30.9168C32.6667 30.5947 32.4055 30.3335 32.0833 30.3335C31.7612 30.3335 31.5 30.5947 31.5 30.9168C31.5 31.239 31.7612 31.5002 32.0833 31.5002Z" fill="url(#paint7_linear_696_2363)"/>
<g id="Group_2">
<path id="Vector_16" opacity="0.2" d="M12.8333 0.875C17.4971 0.875 21.2917 4.66958 21.2917 9.33333C21.2917 13.9971 17.4971 17.7917 12.8333 17.7917C8.16958 17.7917 4.375 13.9971 4.375 9.33333C4.375 4.66958 8.1725 0.875 12.8333 0.875ZM12.8333 0C7.67958 0 3.5 4.17958 3.5 9.33333C3.5 14.4871 7.67958 18.6667 12.8333 18.6667C17.9871 18.6667 22.1667 14.4871 22.1667 9.33333C22.1667 4.17958 17.99 0 12.8333 0Z" fill="#424242"/>
<path id="Vector_17" opacity="0.2" d="M28.5833 5.54175C31.64 5.54175 34.125 8.02675 34.125 11.0834C34.125 14.1401 31.64 16.6251 28.5833 16.6251C25.5266 16.6251 23.0416 14.1401 23.0416 11.0834C23.0416 8.02675 25.5295 5.54175 28.5833 5.54175ZM28.5833 4.66675C25.0395 4.66675 22.1666 7.53966 22.1666 11.0834C22.1666 14.6272 25.0395 17.5001 28.5833 17.5001C32.127 17.5001 35 14.6272 35 11.0834C35 7.53966 32.127 4.66675 28.5833 4.66675Z" fill="#424242"/>
<path id="Vector_18" opacity="0.2" d="M10.3833 2.33049C10.5175 2.33049 10.64 2.4209 10.6808 2.55507L11.5558 5.54173C11.5996 5.69048 11.5267 5.8509 11.3837 5.91215C10.955 6.09299 10.5525 6.35548 10.2025 6.70548C9.89333 7.01465 9.65124 7.36465 9.47333 7.7409C9.42374 7.84882 9.31291 7.91007 9.19916 7.91007C9.16708 7.91007 9.13791 7.90423 9.10583 7.89548L6.125 6.97673C5.95291 6.92423 5.85958 6.73757 5.92666 6.57132C6.28833 5.66424 6.83958 4.81257 7.57458 4.07757C8.36791 3.28423 9.29541 2.70965 10.2812 2.3509C10.3162 2.33632 10.3512 2.33049 10.3833 2.33049ZM15.3154 2.34215C15.3504 2.34215 15.3854 2.34799 15.4175 2.35965C16.3946 2.72132 17.3104 3.29007 18.0921 4.07465C18.9875 4.97007 19.6029 6.03465 19.9471 7.16632C19.9967 7.32965 19.8975 7.50173 19.7342 7.5484L16.7592 8.42048C16.73 8.42923 16.7008 8.43215 16.6717 8.43215C16.5404 8.43215 16.4208 8.35048 16.38 8.21923C16.2079 7.66507 15.9046 7.14007 15.4642 6.70257C15.1112 6.34965 14.7058 6.08715 14.2742 5.90632C14.1283 5.84507 14.0583 5.68173 14.1021 5.53298L15.0179 2.5609C15.0617 2.42965 15.1842 2.34215 15.3154 2.34215ZM12.8333 7.1459C13.3933 7.1459 13.9533 7.35882 14.3792 7.78757C15.2337 8.64215 15.2337 10.0276 14.3792 10.8822C13.9533 11.308 13.3933 11.5238 12.8333 11.5238C12.2733 11.5238 11.7133 11.3109 11.2875 10.8822C10.4329 10.0276 10.4329 8.64215 11.2875 7.78757C11.7162 7.35882 12.2762 7.1459 12.8333 7.1459ZM16.6687 10.2405C16.6979 10.2405 16.73 10.2463 16.7621 10.2551L19.7254 11.1709C19.8887 11.2205 19.9821 11.3926 19.9325 11.5559C19.5854 12.6672 18.9729 13.7142 18.095 14.5951C17.22 15.4701 16.1787 16.0797 15.0733 16.4267C15.0442 16.4355 15.015 16.4413 14.9829 16.4413C14.8487 16.4413 14.7262 16.3509 14.6854 16.2167L13.8133 13.2388C13.7667 13.0813 13.8512 12.9122 14.0087 12.8597C14.5396 12.6847 15.0412 12.3872 15.4642 11.9642C15.9017 11.5267 16.205 11.0047 16.3771 10.4534C16.4179 10.3222 16.5404 10.2405 16.6687 10.2405ZM9.15541 10.6634C9.27499 10.6634 9.38875 10.7305 9.43833 10.8413C9.61625 11.2467 9.87 11.6288 10.2054 11.9613C10.5992 12.3551 11.0629 12.6409 11.5529 12.8217C11.7046 12.8772 11.7804 13.0463 11.7337 13.2009L10.8208 16.1672C10.78 16.3013 10.6575 16.3888 10.5262 16.3888C10.4942 16.3888 10.4621 16.383 10.43 16.3742C9.38874 16.0184 8.40874 15.4263 7.57749 14.5951C6.80458 13.8222 6.23874 12.918 5.87708 11.9555C5.81583 11.7892 5.91208 11.6055 6.08416 11.553L9.06791 10.678C9.09416 10.6692 9.12624 10.6634 9.15541 10.6634ZM10.3833 2.03882C10.3133 2.03882 10.2462 2.05048 10.1821 2.07382C9.11749 2.46173 8.1725 3.06549 7.3675 3.86757C6.62083 4.61424 6.04624 5.48632 5.65541 6.45757C5.59416 6.60923 5.6 6.78424 5.67291 6.93299C5.74583 7.08465 5.87999 7.20132 6.04041 7.2509L9.02124 8.16965C9.07958 8.18715 9.14083 8.1959 9.19916 8.1959C9.42958 8.1959 9.63958 8.06465 9.73583 7.86049C9.905 7.50465 10.1296 7.18674 10.4067 6.90674C10.7187 6.59465 11.0833 6.34965 11.4946 6.17757C11.7746 6.0609 11.9175 5.75173 11.8329 5.45715L10.9579 2.47049C10.8879 2.21674 10.6487 2.03882 10.3833 2.03882ZM15.3154 2.05049C15.0558 2.05049 14.8196 2.22549 14.7408 2.47632L13.825 5.4484C13.7346 5.7459 13.8775 6.05799 14.1633 6.17757C14.5775 6.34965 14.945 6.59757 15.26 6.91257C15.6537 7.30632 15.9367 7.7759 16.1029 8.30965C16.1817 8.55757 16.4092 8.72673 16.6746 8.72673C16.7329 8.72673 16.7883 8.71798 16.8437 8.7034L19.8187 7.83132C19.9733 7.78757 20.1046 7.67965 20.1804 7.53673C20.2562 7.39673 20.2737 7.2334 20.2271 7.08174C19.8596 5.87424 19.1946 4.7659 18.2992 3.87049C17.5058 3.07715 16.5696 2.47632 15.5196 2.0884C15.4525 2.06215 15.3854 2.05049 15.3154 2.05049ZM12.8333 6.85423C12.1712 6.85423 11.55 7.1109 11.0804 7.58048C10.115 8.5459 10.115 10.1209 11.0804 11.0863C11.55 11.5559 12.1712 11.8126 12.8333 11.8126C13.4954 11.8126 14.1167 11.5559 14.5862 11.0863C15.5517 10.1209 15.5517 8.5459 14.5862 7.58048C14.1196 7.11382 13.4983 6.85423 12.8333 6.85423ZM16.6687 9.94882C16.4062 9.94882 16.1758 10.1151 16.1 10.3659C15.9337 10.8967 15.6508 11.3663 15.2571 11.7572C14.8779 12.1363 14.4287 12.4134 13.9154 12.5826C13.6092 12.6847 13.44 13.0084 13.5333 13.3205L14.4054 16.2984C14.4812 16.5551 14.7175 16.733 14.9829 16.733C15.0442 16.733 15.1025 16.7242 15.1608 16.7067C16.3392 16.3363 17.4242 15.6772 18.2992 14.8022C19.18 13.9213 19.8421 12.8305 20.2096 11.6434C20.2562 11.4917 20.2417 11.3313 20.1658 11.1913C20.09 11.0484 19.9646 10.9434 19.8071 10.8938L16.8467 9.97507C16.7912 9.95757 16.73 9.94882 16.6687 9.94882ZM9.15541 10.3717C9.09708 10.3717 9.03874 10.3805 8.98333 10.398L5.99958 11.273C5.83916 11.3197 5.70208 11.4334 5.62916 11.5851C5.55624 11.7338 5.54749 11.9059 5.60291 12.0576C5.99083 13.093 6.58583 14.0147 7.37041 14.7992C8.21625 15.6451 9.21374 16.2663 10.3367 16.6484C10.3979 16.6688 10.4621 16.6805 10.5262 16.6805C10.7858 16.6805 11.0221 16.5055 11.1008 16.2547L12.0167 13.2884C12.11 12.9822 11.9525 12.6584 11.6579 12.5505C11.1883 12.3784 10.7712 12.113 10.4154 11.7572C10.1179 11.4597 9.88166 11.1126 9.70958 10.7247C9.61041 10.5117 9.39458 10.3717 9.15541 10.3717Z" fill="#424242"/>
<path id="Vector_19" opacity="0.2" d="M26.9004 6.26774C26.9908 6.26774 27.0783 6.32899 27.1046 6.42232L27.7054 8.47566C27.7346 8.57774 27.685 8.68857 27.5887 8.72941C27.2942 8.85482 27.0171 9.03274 26.7779 9.27482C26.565 9.48774 26.3987 9.72982 26.2762 9.98649C26.2412 10.0594 26.1654 10.1032 26.0867 10.1032C26.0663 10.1032 26.0429 10.1002 26.0225 10.0944L23.9721 9.46149C23.8554 9.42649 23.7883 9.29524 23.835 9.18149C24.0858 8.55732 24.4621 7.97399 24.9667 7.46649C25.5121 6.92107 26.1479 6.52732 26.8275 6.27941C26.8538 6.27357 26.8771 6.26774 26.9004 6.26774ZM30.2896 6.27649C30.3129 6.27649 30.3362 6.27941 30.3596 6.28816C31.0304 6.53607 31.6604 6.92691 32.2 7.46649C32.8154 8.08191 33.2383 8.81399 33.4746 9.58982C33.5096 9.70066 33.4425 9.82024 33.3287 9.85232L31.2842 10.4532C31.2638 10.459 31.2433 10.4619 31.2229 10.4619C31.1325 10.4619 31.0508 10.4065 31.0217 10.3161C30.9021 9.93399 30.695 9.57524 30.3917 9.27191C30.1496 9.02982 29.8696 8.84899 29.5721 8.72357C29.4729 8.68274 29.4233 8.56899 29.4554 8.46691L30.0854 6.42524C30.1146 6.33774 30.1992 6.27649 30.2896 6.27649ZM28.5833 9.62482C28.9567 9.62482 29.33 9.76774 29.6158 10.0507C30.1846 10.6194 30.1846 11.544 29.6158 12.1127C29.33 12.3986 28.9567 12.5415 28.5833 12.5415C28.21 12.5415 27.8367 12.3986 27.5508 12.1157C26.9821 11.5469 26.9821 10.6223 27.5508 10.0536C27.8367 9.76774 28.21 9.62482 28.5833 9.62482ZM31.22 11.7073C31.2404 11.7073 31.2608 11.7102 31.2842 11.7161L33.32 12.3461C33.4308 12.3811 33.4979 12.4977 33.4629 12.6115C33.2238 13.3757 32.8038 14.0961 32.2 14.6998C31.5992 15.3007 30.8817 15.7207 30.1233 15.9598C30.1029 15.9657 30.0825 15.9686 30.0621 15.9686C29.9717 15.9686 29.8842 15.9073 29.8579 15.814L29.2571 13.7665C29.225 13.6586 29.2833 13.5419 29.3912 13.5069C29.7558 13.3873 30.1 13.1832 30.3917 12.8915C30.6921 12.5911 30.9021 12.2323 31.0187 11.8532C31.0479 11.7627 31.1296 11.7073 31.22 11.7073ZM26.0546 11.999C26.1363 11.999 26.215 12.0457 26.25 12.1215C26.3725 12.4015 26.5475 12.664 26.7779 12.8915C27.0492 13.1627 27.3671 13.3582 27.7054 13.4836C27.8104 13.5215 27.8629 13.6382 27.8308 13.7432L27.2008 15.7819C27.1717 15.8723 27.0871 15.9336 26.9967 15.9336C26.9762 15.9336 26.9529 15.9307 26.9296 15.9219C26.2121 15.6769 25.5383 15.2686 24.9696 14.6969C24.4387 14.1661 24.0479 13.5448 23.8 12.8827C23.7562 12.769 23.8233 12.6407 23.9429 12.6057L25.9962 12.0048C26.0137 12.0019 26.0342 11.999 26.0546 11.999ZM26.9004 5.97607C26.8421 5.97607 26.7867 5.98482 26.7313 6.00524C25.9875 6.27649 25.3254 6.69941 24.7625 7.25941C24.2404 7.78149 23.8379 8.39107 23.5667 9.07066C23.5142 9.19899 23.52 9.34482 23.5812 9.47024C23.6425 9.59857 23.7533 9.69482 23.8904 9.73566L25.9408 10.3686C25.9904 10.3832 26.04 10.3919 26.0896 10.3919C26.2821 10.3919 26.46 10.2811 26.5417 10.109C26.6525 9.87566 26.8012 9.66274 26.985 9.47899C27.1921 9.27191 27.4342 9.11149 27.7025 8.99774C27.9358 8.89857 28.0583 8.63899 27.9883 8.39399L27.3875 6.34066C27.3204 6.12774 27.1221 5.97607 26.9004 5.97607ZM30.2896 5.98482C30.0708 5.98482 29.8725 6.13066 29.8083 6.34357L29.1783 8.38524C29.1025 8.63607 29.2221 8.89857 29.4613 8.99774C29.7354 9.11149 29.9775 9.27482 30.1875 9.48191C30.4471 9.74149 30.6367 10.0536 30.7446 10.4065C30.8088 10.6165 31.0013 10.7565 31.2229 10.7565C31.2725 10.7565 31.3192 10.7507 31.3658 10.7361L33.4104 10.1352C33.5388 10.0973 33.6496 10.0069 33.7137 9.89024C33.7779 9.77066 33.7925 9.63649 33.7517 9.50816C33.495 8.66524 33.0283 7.88649 32.4042 7.26232C31.8471 6.70524 31.1937 6.28816 30.4587 6.01691C30.4062 5.99649 30.3479 5.98482 30.2896 5.98482ZM28.5833 9.33316C28.1167 9.33316 27.6763 9.51399 27.3467 9.84649C26.6642 10.529 26.6642 11.6402 27.3467 12.3198C27.6763 12.6523 28.1167 12.8332 28.5833 12.8332C29.05 12.8332 29.4904 12.6523 29.82 12.3198C30.5025 11.6373 30.5025 10.5261 29.82 9.84649C29.4904 9.51691 29.05 9.33316 28.5833 9.33316ZM31.22 11.4157C30.9983 11.4157 30.8058 11.5557 30.7417 11.7657C30.6308 12.1157 30.4442 12.4248 30.1846 12.6844C29.9337 12.9352 29.6362 13.119 29.2979 13.2298C29.0412 13.3144 28.8983 13.5857 28.9771 13.8482L29.5779 15.8957C29.6421 16.1115 29.8404 16.2602 30.0621 16.2602C30.1117 16.2602 30.1613 16.2515 30.2108 16.2369C31.0333 15.9773 31.7946 15.5165 32.4071 14.904C33.0225 14.2886 33.4863 13.5244 33.7429 12.6961C33.7838 12.5677 33.7692 12.4336 33.7079 12.314C33.6437 12.1944 33.5387 12.104 33.4075 12.0661L31.3717 11.4361C31.3221 11.4244 31.2696 11.4157 31.22 11.4157ZM26.0546 11.7073C26.005 11.7073 25.9583 11.7132 25.9088 11.7277L23.8554 12.3286C23.7212 12.3694 23.6075 12.4627 23.5433 12.5882C23.4821 12.7136 23.4733 12.8565 23.5229 12.9848C23.7942 13.7082 24.2112 14.3527 24.7596 14.904C25.3487 15.4932 26.0487 15.9307 26.8333 16.1961C26.8858 16.2136 26.9383 16.2223 26.9938 16.2223C27.2125 16.2223 27.4108 16.0765 27.475 15.8665L28.105 13.8277C28.1837 13.5711 28.0496 13.2998 27.8017 13.2065C27.4925 13.0927 27.2154 12.9177 26.9821 12.6815C26.7867 12.4861 26.6292 12.2557 26.5154 11.999C26.4367 11.824 26.2558 11.7073 26.0546 11.7073Z" fill="#424242"/>
</g>
</g>
<defs>
<linearGradient id="paint0_linear_696_2363" x1="9.33283" y1="21.1091" x2="9.33283" y2="29.0675" gradientUnits="userSpaceOnUse">
<stop stop-color="#29B6F6"/>
<stop offset="0.9957" stop-color="#0277BD"/>
</linearGradient>
<linearGradient id="paint1_linear_696_2363" x1="4.08304" y1="16.7343" x2="4.08304" y2="32.4129" gradientUnits="userSpaceOnUse">
<stop stop-color="#29B6F6"/>
<stop offset="0.9957" stop-color="#0277BD"/>
</linearGradient>
<linearGradient id="paint2_linear_696_2363" x1="12.2103" y1="25.0827" x2="8.44663" y2="25.0827" gradientUnits="userSpaceOnUse">
<stop stop-color="#0288D1"/>
<stop offset="1" stop-color="#0288D1" stop-opacity="0"/>
</linearGradient>
<radialGradient id="paint3_radial_696_2363" cx="0" cy="0" r="1" gradientUnits="userSpaceOnUse" gradientTransform="translate(23.7076 16.6697) scale(17.744 18.0275)">
<stop stop-color="#81D4FA"/>
<stop offset="1" stop-color="#039BE5"/>
</radialGradient>
<radialGradient id="paint4_radial_696_2363" cx="0" cy="0" r="1" gradientUnits="userSpaceOnUse" gradientTransform="translate(12.9442 0.475066) scale(18.0154)">
<stop stop-color="#42A5F5"/>
<stop offset="0.9891" stop-color="#1565C0"/>
</radialGradient>
<radialGradient id="paint5_radial_696_2363" cx="0" cy="0" r="1" gradientUnits="userSpaceOnUse" gradientTransform="translate(28.6562 4.88637) scale(12.6502)">
<stop stop-color="#42A5F5"/>
<stop offset="0.9891" stop-color="#1565C0"/>
</radialGradient>
<linearGradient id="paint6_linear_696_2363" x1="32.0833" y1="27.9265" x2="32.0833" y2="29.0967" gradientUnits="userSpaceOnUse">
<stop stop-color="#FF1744"/>
<stop offset="1" stop-color="#D50000"/>
</linearGradient>
<linearGradient id="paint7_linear_696_2363" x1="32.0833" y1="30.2606" x2="32.0833" y2="31.4302" gradientUnits="userSpaceOnUse">
<stop stop-color="#76FF03"/>
<stop offset="1" stop-color="#64DD17"/>
</linearGradient>
</defs>
</svg>
