<svg width="40" height="41" viewBox="0 0 40 41" fill="none" xmlns="http://www.w3.org/2000/svg">
<g id="&#240;&#159;&#166;&#134; emoji &#34;glowing star&#34;">
<g id="Group">
<path id="Vector" d="M10.82 10.7312L6.10645 7.711C5.69976 7.46098 5.63309 6.89762 5.96977 6.56094L7.73987 4.79084C8.07989 4.45082 8.65325 4.52416 8.8966 4.94085L11.8434 9.73111C12.2301 10.3911 11.4734 11.1312 10.82 10.7312Z" fill="#FFC107"/>
<path id="Vector_2" d="M6.69983 25.2587L1.2262 25.3688C0.749512 25.3788 0.409494 25.8321 0.529501 26.2921L1.1662 28.7123C1.28954 29.179 1.81957 29.4023 2.23959 29.169L7.07652 26.6388C7.74322 26.2621 7.46654 25.2421 6.69983 25.2587Z" fill="#FFC107"/>
<path id="Vector_3" d="M19.4139 34.5555L18.2138 39.8858C18.1038 40.3491 18.4538 40.7958 18.9305 40.7958H21.434C21.9174 40.7958 22.2674 40.3391 22.1474 39.8724L20.844 34.5421C20.6506 33.7988 19.5939 33.8088 19.4139 34.5555Z" fill="#FFC107"/>
<path id="Vector_4" d="M29.1809 10.7312L33.8945 7.711C34.3012 7.46098 34.3678 6.89762 34.0312 6.56094L32.2611 4.79084C31.921 4.45082 31.3477 4.52416 31.1043 4.94085L28.1575 9.73111C27.7708 10.3911 28.5275 11.1312 29.1809 10.7312Z" fill="#FFC107"/>
<path id="Vector_5" d="M33.3013 25.2587L38.7749 25.3688C39.2516 25.3788 39.5916 25.8321 39.4716 26.2921L38.8349 28.7123C38.7115 29.179 38.1815 29.4023 37.7615 29.169L32.9246 26.6388C32.2579 26.2621 32.5345 25.2421 33.3013 25.2587Z" fill="#FFC107"/>
</g>
<path id="Vector_6" d="M21.3506 0.870576L25.8375 11.1045C26.1809 11.8878 26.9242 12.4245 27.7776 12.5012L38.7082 13.4812C39.9449 13.6613 40.4383 15.178 39.5416 16.0514L31.3078 22.9684C30.6411 23.5284 30.3377 24.4085 30.5211 25.2585L32.9145 36.4625C33.1246 37.6925 31.8345 38.6326 30.7278 38.0492L21.1873 32.4623C20.4539 32.0322 19.5472 32.0322 18.8138 32.4623L9.27329 38.0459C8.1699 38.6259 6.87649 37.6892 7.08651 36.4591L9.47997 25.2552C9.65998 24.4052 9.35996 23.5251 8.69326 22.9651L0.456152 16.0547C-0.437229 15.1847 0.0561311 13.6646 1.28953 13.4846L12.2201 12.5045C13.0735 12.4279 13.8169 11.8912 14.1602 11.1078L18.6471 0.873909C19.2038 -0.246151 20.7972 -0.24615 21.3506 0.870576Z" fill="#FDD835"/>
<path id="Vector_7" d="M21.0238 11.7178L20.2638 4.17741C20.2338 3.75739 20.1471 3.03735 20.8205 3.03735C21.3538 3.03735 21.6439 4.14741 21.6439 4.14741L23.924 10.2011C24.784 12.5045 24.4307 13.2946 23.6006 13.7613C22.6473 14.2946 21.2405 13.8779 21.0238 11.7178Z" fill="#FFFF8D"/>
<path id="Vector_8" d="M30.4278 22.2983L36.9682 17.1947C37.2915 16.9246 37.8749 16.4946 37.4082 16.0046C37.0382 15.6179 36.0381 16.1746 36.0381 16.1746L30.3145 18.4114C28.6077 19.0014 27.4743 19.8748 27.3743 20.9749C27.2443 22.4416 28.5611 23.5717 30.4278 22.2983Z" fill="#F4B400"/>
</g>
</svg>
