<svg width="35" height="42" viewBox="0 0 35 42" fill="none" xmlns="http://www.w3.org/2000/svg">
<g id="&#240;&#159;&#166;&#134; emoji &#34;bust in silhouette&#34;">
<path id="Vector" d="M35 39.726V41.0959H0V39.726C0 34.3493 6.81507 31.7466 14.3836 31.1986V30.8219C11.1986 29.863 8.35616 27.4658 6.95206 23.5274C5.5137 23.0137 4.69178 18.2877 5.06849 17.6712C4.79452 15.6849 2.91096 0.10274 17.5 0C32.0548 0.0684932 30.2055 15.6164 29.8973 17.637C30.274 18.2534 29.4521 22.9795 28.0137 23.4932C26.6438 27.4315 23.8014 29.863 20.6164 30.8219V31.1644C28.2192 31.7808 35 34.6575 35 39.726Z" fill="url(#paint0_linear_696_2386)"/>
</g>
<defs>
<linearGradient id="paint0_linear_696_2386" x1="17.5" y1="0" x2="17.5" y2="41.0959" gradientUnits="userSpaceOnUse">
<stop offset="0.1531" stop-color="#1E88E5"/>
<stop offset="1" stop-color="#1565C0"/>
</linearGradient>
</defs>
</svg>
