<svg width="26" height="47" viewBox="0 0 26 47" fill="none" xmlns="http://www.w3.org/2000/svg">
<g id="&#240;&#159;&#166;&#134; emoji &#34;mobile phone&#34;">
<path id="Vector" d="M21.6905 47H3.35267C1.50792 47 0 45.4921 0 43.6473V3.35267C0 1.50792 1.50792 0 3.35267 0H21.6866C23.5313 0 25.0392 1.50792 25.0392 3.35267V43.6434C25.0432 45.4921 23.5353 47 21.6905 47Z" fill="url(#paint0_linear_696_2336)"/>
<path id="Vector_2" opacity="0.2" d="M21.6905 1.175C22.8929 1.175 23.8682 2.15417 23.8682 3.35267V43.6434C23.8682 44.8458 22.889 45.8211 21.6905 45.8211H3.35267C2.15025 45.8211 1.175 44.8419 1.175 43.6434V3.35267C1.175 2.15025 2.15417 1.175 3.35267 1.175H21.6905ZM21.6905 0H3.35267C1.50792 0 0 1.50792 0 3.35267V43.6434C0 45.4882 1.50792 46.9961 3.35267 46.9961H21.6866C23.5313 46.9961 25.0392 45.4882 25.0392 43.6434V3.35267C25.0432 1.50792 23.5353 0 21.6905 0Z" fill="#EEEEEE"/>
<path id="Vector_3" d="M21.3732 40.7453H3.67768C3.38393 40.7453 3.14502 40.5064 3.14502 40.2126V6.7917C3.14502 6.49795 3.38393 6.25903 3.67768 6.25903H21.3732C21.6669 6.25903 21.9059 6.49795 21.9059 6.7917V40.2126C21.9059 40.5025 21.6669 40.7453 21.3732 40.7453Z" fill="url(#paint1_linear_696_2336)"/>
<path id="Vector_4" d="M16.2658 4.17106H8.77718C8.50693 4.17106 8.2876 3.95173 8.2876 3.68148C8.2876 3.41123 8.50693 3.19189 8.77718 3.19189H16.2658C16.5361 3.19189 16.7554 3.41123 16.7554 3.68148C16.7554 3.95173 16.5361 4.17106 16.2658 4.17106Z" fill="#212121"/>
<path id="Vector_5" d="M16.2658 43.808H8.77718C8.50693 43.808 8.2876 43.5887 8.2876 43.3184C8.2876 43.0482 8.50693 42.8289 8.77718 42.8289H16.2658C16.5361 42.8289 16.7554 43.0482 16.7554 43.3184C16.7554 43.5848 16.5361 43.808 16.2658 43.808Z" fill="black"/>
<path id="Vector_6" d="M20.116 10.9589H4.98594C4.8371 10.9589 4.7196 10.8414 4.7196 10.6926V8.11936C4.7196 7.97053 4.8371 7.85303 4.98594 7.85303H20.1121C20.2609 7.85303 20.3784 7.97053 20.3784 8.11936V10.6926C20.3824 10.8375 20.2609 10.9589 20.116 10.9589Z" fill="#F5F5F5"/>
<path id="Vector_7" d="M6.95207 31.3335H5.5499C5.07598 31.3335 4.68823 30.9497 4.68823 30.4718V29.0697C4.68823 28.5958 5.07207 28.208 5.5499 28.208H6.95207C7.42598 28.208 7.81373 28.5918 7.81373 29.0697V30.4718C7.81373 30.9497 7.4299 31.3335 6.95207 31.3335Z" fill="#159E5C"/>
<path id="Vector_8" d="M6.95207 36.0335H5.5499C5.07598 36.0335 4.68823 35.6496 4.68823 35.1718V33.7696C4.68823 33.2957 5.07207 32.908 5.5499 32.908H6.95207C7.42598 32.908 7.81373 33.2918 7.81373 33.7696V35.1718C7.81373 35.6496 7.4299 36.0335 6.95207 36.0335Z" fill="#FB5352"/>
<path id="Vector_9" d="M11.1233 36.0335H9.72116C9.24725 36.0335 8.8595 35.6496 8.8595 35.1718V33.7696C8.8595 33.2957 9.24333 32.908 9.72116 32.908H11.1233C11.5972 32.908 11.985 33.2918 11.985 33.7696V35.1718C11.985 35.6496 11.5972 36.0335 11.1233 36.0335Z" fill="#4587F5"/>
<path id="Vector_10" d="M15.4159 36.0335H14.0099C13.5359 36.0335 13.1482 35.6496 13.1482 35.1718V33.7696C13.1482 33.2957 13.532 32.908 14.0099 32.908H15.412C15.8859 32.908 16.2737 33.2918 16.2737 33.7696V35.1718C16.2776 35.6496 15.8899 36.0335 15.4159 36.0335Z" fill="#159E5C"/>
<path id="Vector_11" d="M19.462 36.0335H18.0598C17.5859 36.0335 17.1981 35.6496 17.1981 35.1718V33.7696C17.1981 33.2957 17.582 32.908 18.0598 32.908H19.462C19.9359 32.908 20.3236 33.2918 20.3236 33.7696V35.1718C20.3236 35.6496 19.9359 36.0335 19.462 36.0335Z" fill="#FECD41"/>
<path id="Vector_12" d="M11.1233 31.3335H9.72116C9.24725 31.3335 8.8595 30.9497 8.8595 30.4718V29.0697C8.8595 28.5958 9.24333 28.208 9.72116 28.208H11.1233C11.5972 28.208 11.985 28.5918 11.985 29.0697V30.4718C11.985 30.9497 11.5972 31.3335 11.1233 31.3335Z" fill="#FECD41"/>
<path id="Vector_13" d="M15.4159 31.3335H14.0099C13.5359 31.3335 13.1482 30.9497 13.1482 30.4718V29.0697C13.1482 28.5958 13.532 28.208 14.0099 28.208H15.412C15.8859 28.208 16.2737 28.5918 16.2737 29.0697V30.4718C16.2776 30.9497 15.8899 31.3335 15.4159 31.3335Z" fill="#FF6D00"/>
<path id="Vector_14" d="M19.462 31.3335H18.0598C17.5859 31.3335 17.1981 30.9497 17.1981 30.4718V29.0697C17.1981 28.5958 17.582 28.208 18.0598 28.208H19.462C19.9359 28.208 20.3236 28.5918 20.3236 29.0697V30.4718C20.3236 30.9497 19.9359 31.3335 19.462 31.3335Z" fill="#DE493C"/>
<g id="Group">
<path id="Vector_15" d="M12.5215 38.5791C12.8466 38.5791 13.109 38.8416 13.109 39.1666C13.109 39.4917 12.8466 39.7541 12.5215 39.7541C12.1964 39.7541 11.934 39.4917 11.934 39.1666C11.934 38.8416 12.1964 38.5791 12.5215 38.5791ZM12.5215 38.3833C12.0907 38.3833 11.7382 38.7358 11.7382 39.1666C11.7382 39.5975 12.0907 39.95 12.5215 39.95C12.9523 39.95 13.3048 39.5975 13.3048 39.1666C13.3048 38.7358 12.9523 38.3833 12.5215 38.3833Z" fill="white"/>
<path id="Vector_16" d="M18.4551 38.5791C18.5139 38.5791 18.5648 38.6301 18.5648 38.6888V39.6445C18.5648 39.7032 18.5139 39.7541 18.4551 39.7541H17.4995C17.4407 39.7541 17.3898 39.7032 17.3898 39.6445V38.6888C17.3898 38.6301 17.4407 38.5791 17.4995 38.5791H18.4551ZM18.4551 38.3833H17.4995C17.3311 38.3833 17.194 38.5204 17.194 38.6888V39.6445C17.194 39.8129 17.3311 39.95 17.4995 39.95H18.4551C18.6236 39.95 18.7606 39.8129 18.7606 39.6445V38.6888C18.7606 38.5204 18.6236 38.3833 18.4551 38.3833Z" fill="white"/>
<path id="Vector_17" d="M7.6179 38.6653V39.668L6.61915 39.1666L7.6179 38.6653ZM7.75498 38.3833C7.74715 38.3833 7.73931 38.3833 7.73148 38.3911L6.28231 39.1196C6.23923 39.1392 6.23923 39.198 6.28231 39.2215L7.73148 39.95C7.73931 39.9539 7.74715 39.9578 7.75498 39.9578C7.78631 39.9578 7.80981 39.9343 7.80981 39.903V38.4381C7.81373 38.4068 7.78631 38.3833 7.75498 38.3833Z" fill="white"/>
</g>
</g>
<defs>
<linearGradient id="paint0_linear_696_2336" x1="12.5216" y1="47" x2="12.5216" y2="0" gradientUnits="userSpaceOnUse">
<stop offset="0.0029098" stop-color="#212121"/>
<stop offset="1" stop-color="#4D4D4D"/>
</linearGradient>
<linearGradient id="paint1_linear_696_2336" x1="12.5243" y1="40.7453" x2="12.5243" y2="6.25668" gradientUnits="userSpaceOnUse">
<stop offset="0.0085898" stop-color="#9E9E9E"/>
<stop offset="0.9987" stop-color="#616161"/>
</linearGradient>
</defs>
</svg>
