<svg width="40" height="40" viewBox="0 0 40 40" fill="none" xmlns="http://www.w3.org/2000/svg">
<g id="&#240;&#159;&#166;&#134; emoji &#34;sparkles&#34;">
<path id="Vector" d="M39.4956 19.3157L34.8 17.8021C31.7966 16.8111 30.037 14.3807 29.2111 11.3267L27.1448 1.26132C27.0909 1.06244 26.9594 0.796143 26.5549 0.796143C26.2144 0.796143 26.0189 1.06244 25.965 1.26132L23.8987 11.3301C23.0694 14.3841 21.3132 16.8145 18.3098 17.8055L13.6142 19.319C12.9501 19.5348 12.94 20.4719 13.6007 20.6977L18.33 22.3258C21.3233 23.3202 23.0694 25.7473 23.8987 28.7878L25.9684 38.7419C26.0223 38.9408 26.1335 39.2981 26.5583 39.2981C27.0066 39.2981 27.0942 38.9408 27.1482 38.7419L29.2179 28.7878C30.0471 25.7439 31.7932 23.3169 34.7865 22.3258L39.5159 20.6977C40.1698 20.4685 40.1597 19.5314 39.4956 19.3157Z" fill="#FDD835"/>
<path id="Vector_2" d="M39.9406 19.7369C39.8664 19.5515 39.7214 19.3897 39.4956 19.3156L34.8 17.8021C31.7966 16.811 30.037 14.3806 29.2111 11.3266L27.1448 1.26123C27.1144 1.14662 27.0066 0.937629 26.8818 0.876953L27.5493 10.9794C28.0448 15.5908 28.4695 17.7616 32.1505 18.3953C35.3124 18.9414 38.9697 19.5684 39.9406 19.7369Z" fill="#FFEE58"/>
<path id="Vector_3" d="M39.9507 20.2629L31.8067 22.1304C28.9381 22.8585 27.3571 24.5203 27.3571 28.8687L26.5582 39.2982C26.8313 39.2712 27.0537 39.1229 27.1481 38.742L29.2178 28.7878C30.0471 25.744 31.7932 23.3169 34.7865 22.3259L39.5158 20.6978C39.7383 20.6169 39.8799 20.4517 39.9507 20.2629Z" fill="#F4B400"/>
<path id="Vector_4" d="M12.6028 28.0733C9.79491 27.1463 9.53872 26.1013 9.0668 24.3384L7.89037 20.2124C7.81958 19.9461 7.12518 19.9461 7.05102 20.2124L6.25213 24.0249C5.77684 25.7811 4.76558 27.1766 3.0397 27.7463L0.289074 28.9396C-0.0918336 29.0643 -0.0985753 29.6036 0.282332 29.7317L3.05318 30.7127C4.77232 31.2823 5.77684 32.6779 6.2555 34.4273L7.05439 38.0746C7.12855 38.3409 7.81958 38.3409 7.89037 38.0746L8.82747 34.4442C9.30276 32.6846 10.0309 31.2857 12.3669 30.7127L14.9692 29.7317C15.3501 29.6003 15.3467 29.0609 14.9624 28.9362L12.6028 28.0733Z" fill="#FDD835"/>
<path id="Vector_5" d="M8.11287 24.2776C8.3994 26.9271 8.54434 27.6619 10.6916 28.2114L15.1647 29.0844C15.1175 29.0204 15.0501 28.9664 14.9591 28.9395L12.5995 28.0732C10.1354 27.2304 9.45448 26.1585 8.99267 24.0146C8.53086 21.8708 8.03871 20.4719 8.03871 20.4719C7.8668 20.0101 7.62073 20.0337 7.62073 20.0337L8.11287 24.2776Z" fill="#FFEE58"/>
<g id="Group">
<path id="Vector_6" d="M8.19381 33.5272C8.19381 31.0294 9.55901 29.7923 11.7298 29.7923L15.1074 29.6541C15.1074 29.6541 14.9119 29.9136 14.5715 29.9945L12.3669 30.7125C10.4961 31.4642 9.64328 31.8417 9.06349 34.4002C9.06349 34.4002 8.31516 37.3767 8.17358 37.6902C7.97807 38.1284 7.74548 38.2194 7.74548 38.2194L8.19381 33.5272Z" fill="#F4B400"/>
<path id="Vector_7" d="M18.6467 8.2961C18.8355 8.23205 18.8288 7.96238 18.6366 7.90845L16.0343 7.20731C15.4882 7.05899 15.0635 6.63763 14.9085 6.09492L13.8837 1.86449C13.8331 1.65887 13.5399 1.65887 13.4893 1.86786L12.5253 6.08144C12.3769 6.641 11.9387 7.07247 11.3792 7.21742L8.79371 7.88822C8.60157 7.93879 8.58808 8.20845 8.77685 8.27587L11.5039 9.21971C11.9927 9.38826 12.3702 9.78602 12.5185 10.2815L13.4927 14.1884C13.5433 14.3906 13.8331 14.394 13.8837 14.1884L14.8916 10.2681C15.0433 9.77253 15.4242 9.37814 15.9163 9.21297L18.6467 8.2961Z" fill="#F4B400" stroke="#F4B400" stroke-width="0.269661" stroke-miterlimit="10"/>
</g>
</g>
</svg>
