<svg width="51" height="49" viewBox="0 0 51 49" fill="none" xmlns="http://www.w3.org/2000/svg">
<g id="&#240;&#159;&#166;&#134; emoji &#34;artist palette&#34;">
<path id="Vector" d="M48.2169 26.6071C49.4357 25.4925 52.3509 19.9457 46.9287 14.978C45.1048 13.3047 40.9795 11.5127 36.3215 11.5127C29.2549 11.5127 20.2457 15.1054 16.7428 23.1505C11.6969 34.7304 21.2242 46.2523 32.9083 46.2523C38.2901 46.2523 44.1842 42.9347 46.5813 39.5708C46.7318 39.3594 46.8968 39.1597 47.0531 38.9541C47.6437 38.187 48.793 36.0534 44.9282 34.4264C43.2115 33.7026 43.0002 32.0351 43.2115 31.2043C43.8455 28.6943 46.0052 28.6307 48.2169 26.6071ZM39.5696 39.1655C37.6966 39.8023 35.757 39.096 35.2359 37.5848C34.7148 36.0765 35.8091 34.3366 37.6821 33.6998C39.5552 33.0629 41.4948 33.7692 42.0159 35.2804C42.537 36.7887 41.4427 38.5286 39.5696 39.1655Z" fill="url(#paint0_radial_696_2275)"/>
<g id="Group">
<g id="Clip path group">
<mask id="mask0_696_2275" style="mask-type:luminance" maskUnits="userSpaceOnUse" x="7" y="4" width="35" height="38">
<g id="b">
<path id="Vector_2" d="M34.9746 12.8616C35.2096 11.2269 33.9442 5.08978 26.6012 4.68959C24.1299 4.55318 19.8042 5.78508 16.2035 8.74012C10.741 13.2232 6.05613 21.7157 8.45221 30.1568C11.898 42.3092 26.5722 45.1716 35.604 37.7592C39.7641 34.345 42.2155 28.0412 41.9344 23.9202C41.9167 23.6613 41.9175 23.4022 41.9079 23.1442C41.8778 22.1765 41.4126 19.7981 37.393 20.9923C35.6068 21.5219 34.3856 20.367 34.0219 19.5907C32.9196 17.2483 34.5486 15.829 34.9746 12.8616ZM36.2573 28.0551C35.2134 29.7357 33.266 30.4201 31.9045 29.5826C30.5448 28.7473 30.2869 26.7081 31.3308 25.0275C32.3746 23.347 34.322 22.6625 35.6835 23.5C37.0432 24.3353 37.3011 26.3745 36.2573 28.0551Z" fill="white"/>
</g>
</mask>
<g mask="url(#mask0_696_2275)">
<path id="Vector_3" opacity="0.2" d="M23.1265 39.1386C25.1102 37.5106 26.3877 35.7882 25.9799 35.2913C25.5722 34.7945 23.6336 35.7114 21.6499 37.3394C19.6663 38.9674 18.3888 40.6899 18.7965 41.1867C19.2043 41.6835 21.1429 40.7666 23.1265 39.1386Z" fill="#FFA726"/>
</g>
</g>
<g id="Clip path group_2">
<mask id="mask1_696_2275" style="mask-type:luminance" maskUnits="userSpaceOnUse" x="15" y="11" width="36" height="36">
<g id="b_2">
<path id="Vector_4" d="M48.2169 26.6071C49.4357 25.4925 52.3509 19.9457 46.9287 14.978C45.1048 13.3047 40.9795 11.5127 36.3215 11.5127C29.2549 11.5127 20.2457 15.1054 16.7428 23.1505C11.6969 34.7304 21.2242 46.2523 32.9083 46.2523C38.2901 46.2523 44.1842 42.9347 46.5813 39.5708C46.7318 39.3594 46.8968 39.1597 47.0531 38.9541C47.6437 38.187 48.793 36.0534 44.9282 34.4264C43.2115 33.7026 43.0002 32.0351 43.2115 31.2043C43.8455 28.6943 46.0052 28.6307 48.2169 26.6071ZM39.5696 39.1655C37.6966 39.8023 35.757 39.096 35.2359 37.5848C34.7148 36.0765 35.8091 34.3366 37.6821 33.6998C39.5552 33.0629 41.4948 33.7692 42.0159 35.2804C42.537 36.7887 41.4427 38.5286 39.5696 39.1655Z" fill="white"/>
</g>
</mask>
<g mask="url(#mask1_696_2275)">
<path id="Vector_5" opacity="0.2" d="M17.5593 39.8136C17.5593 39.8136 24.5217 32.828 26.8434 33.9918C29.1652 35.1556 21.0419 42.1412 21.0419 42.1412H19.881L21.0419 43.3049C21.0419 43.3049 31.4841 35.1556 30.3261 31.6614C29.1681 28.1671 17.4261 38.2358 16.6473 38.6904L17.5593 39.8136Z" fill="#FFA726"/>
</g>
</g>
<g id="Clip path group_3">
<mask id="mask2_696_2275" style="mask-type:luminance" maskUnits="userSpaceOnUse" x="15" y="11" width="36" height="36">
<g id="b_3">
<path id="Vector_6" d="M48.2169 26.6071C49.4357 25.4925 52.3509 19.9457 46.9287 14.978C45.1048 13.3047 40.9795 11.5127 36.3215 11.5127C29.2549 11.5127 20.2457 15.1054 16.7428 23.1505C11.6969 34.7304 21.2242 46.2523 32.9083 46.2523C38.2901 46.2523 44.1842 42.9347 46.5813 39.5708C46.7318 39.3594 46.8968 39.1597 47.0531 38.9541C47.6437 38.187 48.793 36.0534 44.9282 34.4264C43.2115 33.7026 43.0002 32.0351 43.2115 31.2043C43.8455 28.6943 46.0052 28.6307 48.2169 26.6071ZM39.5696 39.1655C37.6966 39.8023 35.757 39.096 35.2359 37.5848C34.7148 36.0765 35.8091 34.3366 37.6821 33.6998C39.5552 33.0629 41.4948 33.7692 42.0159 35.2804C42.537 36.7887 41.4427 38.5286 39.5696 39.1655Z" fill="white"/>
</g>
</mask>
<g mask="url(#mask2_696_2275)">
<path id="Vector_7" opacity="0.2" d="M14.6384 35.6914C14.6384 35.6914 24.3511 27.9329 33.916 27.0123C33.916 27.0123 36.9587 26.3348 36.2841 28.6595C35.6067 30.9871 32.1298 39.229 23.4797 44.9003L22.4664 44.1736C22.4664 44.1736 37.251 33.8473 32.4686 29.143C32.4686 29.143 31.9359 28.2716 28.7977 29.5309C25.6596 30.7902 15.0727 37.9205 15.0727 37.9205L14.6384 35.6914Z" fill="#FFA726"/>
</g>
</g>
<g id="Clip path group_4">
<mask id="mask3_696_2275" style="mask-type:luminance" maskUnits="userSpaceOnUse" x="15" y="11" width="36" height="36">
<g id="b_4">
<path id="Vector_8" d="M48.2169 26.6071C49.4357 25.4925 52.3509 19.9457 46.9287 14.978C45.1048 13.3047 40.9795 11.5127 36.3215 11.5127C29.2549 11.5127 20.2457 15.1054 16.7428 23.1505C11.6969 34.7304 21.2242 46.2523 32.9083 46.2523C38.2901 46.2523 44.1842 42.9347 46.5813 39.5708C46.7318 39.3594 46.8968 39.1597 47.0531 38.9541C47.6437 38.187 48.793 36.0534 44.9282 34.4264C43.2115 33.7026 43.0002 32.0351 43.2115 31.2043C43.8455 28.6943 46.0052 28.6307 48.2169 26.6071ZM39.5696 39.1655C37.6966 39.8023 35.757 39.096 35.2359 37.5848C34.7148 36.0765 35.8091 34.3366 37.6821 33.6998C39.5552 33.0629 41.4948 33.7692 42.0159 35.2804C42.537 36.7887 41.4427 38.5286 39.5696 39.1655Z" fill="white"/>
</g>
</mask>
<g mask="url(#mask3_696_2275)">
<path id="Vector_9" opacity="0.2" d="M13.2401 33.0859C13.2401 33.0859 20.2373 28.1471 28.184 25.53C36.1306 22.913 39.3325 17.7947 39.3325 17.7947C39.3325 17.7947 39.3904 22.4353 26.9391 27.3162C14.4878 32.1972 14.3084 34.6347 14.3084 34.6347L13.2401 33.0859Z" fill="#FFA726"/>
</g>
</g>
<g id="Clip path group_5">
<mask id="mask4_696_2275" style="mask-type:luminance" maskUnits="userSpaceOnUse" x="15" y="11" width="36" height="36">
<g id="b_5">
<path id="Vector_10" d="M48.2169 26.6071C49.4357 25.4925 52.3509 19.9457 46.9287 14.978C45.1048 13.3047 40.9795 11.5127 36.3215 11.5127C29.2549 11.5127 20.2457 15.1054 16.7428 23.1505C11.6969 34.7304 21.2242 46.2523 32.9083 46.2523C38.2901 46.2523 44.1842 42.9347 46.5813 39.5708C46.7318 39.3594 46.8968 39.1597 47.0531 38.9541C47.6437 38.187 48.793 36.0534 44.9282 34.4264C43.2115 33.7026 43.0002 32.0351 43.2115 31.2043C43.8455 28.6943 46.0052 28.6307 48.2169 26.6071ZM39.5696 39.1655C37.6966 39.8023 35.757 39.096 35.2359 37.5848C34.7148 36.0765 35.8091 34.3366 37.6821 33.6998C39.5552 33.0629 41.4948 33.7692 42.0159 35.2804C42.537 36.7887 41.4427 38.5286 39.5696 39.1655Z" fill="white"/>
</g>
</mask>
<g mask="url(#mask4_696_2275)">
<path id="Vector_11" opacity="0.2" d="M33.1778 11.3621C33.1778 11.3621 21.9106 24.6905 16.0396 21.5958L14.9713 23.6773C14.9713 23.6773 24.875 24.9279 34.6571 11.2405L33.1778 11.3621Z" fill="#FFA726"/>
</g>
</g>
<g id="Clip path group_6">
<mask id="mask5_696_2275" style="mask-type:luminance" maskUnits="userSpaceOnUse" x="15" y="11" width="36" height="36">
<g id="b_6">
<path id="Vector_12" d="M48.2169 26.6071C49.4357 25.4925 52.3509 19.9457 46.9287 14.978C45.1048 13.3047 40.9795 11.5127 36.3215 11.5127C29.2549 11.5127 20.2457 15.1054 16.7428 23.1505C11.6969 34.7304 21.2242 46.2523 32.9083 46.2523C38.2901 46.2523 44.1842 42.9347 46.5813 39.5708C46.7318 39.3594 46.8968 39.1597 47.0531 38.9541C47.6437 38.187 48.793 36.0534 44.9282 34.4264C43.2115 33.7026 43.0002 32.0351 43.2115 31.2043C43.8455 28.6943 46.0052 28.6307 48.2169 26.6071ZM39.5696 39.1655C37.6966 39.8023 35.757 39.096 35.2359 37.5848C34.7148 36.0765 35.8091 34.3366 37.6821 33.6998C39.5552 33.0629 41.4948 33.7692 42.0159 35.2804C42.537 36.7887 41.4427 38.5286 39.5696 39.1655Z" fill="white"/>
</g>
</mask>
<g mask="url(#mask5_696_2275)">
<path id="Vector_13" opacity="0.2" d="M14.3256 26.7982C14.3256 26.7982 22.805 25.6084 27.8451 22.2155C32.8853 18.8226 35.4328 12.7576 43.3216 13.0529L44.9226 13.7071C44.9226 13.7071 39.7637 12.5752 35.4936 17.6356C31.2236 22.696 30.1582 23.11 26.3629 24.4793C22.5676 25.8486 13.4948 27.8693 13.4948 27.8693L14.3256 26.7982Z" fill="#FFA726"/>
</g>
</g>
<g id="Clip path group_7">
<mask id="mask6_696_2275" style="mask-type:luminance" maskUnits="userSpaceOnUse" x="15" y="11" width="36" height="36">
<g id="b_7">
<path id="Vector_14" d="M48.2169 26.6071C49.4357 25.4925 52.3509 19.9457 46.9287 14.978C45.1048 13.3047 40.9795 11.5127 36.3215 11.5127C29.2549 11.5127 20.2457 15.1054 16.7428 23.1505C11.6969 34.7304 21.2242 46.2523 32.9083 46.2523C38.2901 46.2523 44.1842 42.9347 46.5813 39.5708C46.7318 39.3594 46.8968 39.1597 47.0531 38.9541C47.6437 38.187 48.793 36.0534 44.9282 34.4264C43.2115 33.7026 43.0002 32.0351 43.2115 31.2043C43.8455 28.6943 46.0052 28.6307 48.2169 26.6071ZM39.5696 39.1655C37.6966 39.8023 35.757 39.096 35.2359 37.5848C34.7148 36.0765 35.8091 34.3366 37.6821 33.6998C39.5552 33.0629 41.4948 33.7692 42.0159 35.2804C42.537 36.7887 41.4427 38.5286 39.5696 39.1655Z" fill="white"/>
</g>
</mask>
<g mask="url(#mask6_696_2275)">
<path id="Vector_15" opacity="0.2" d="M48.5731 16.2197C48.5731 16.2197 42.4965 19.6821 40.6206 22.0184C40.6206 22.0184 47.9738 18.3302 50.1508 18.7818L48.5731 16.2197Z" fill="#FFA726"/>
</g>
</g>
<g id="Clip path group_8">
<mask id="mask7_696_2275" style="mask-type:luminance" maskUnits="userSpaceOnUse" x="15" y="11" width="36" height="36">
<g id="b_8">
<path id="Vector_16" d="M48.2169 26.6071C49.4357 25.4925 52.3509 19.9457 46.9287 14.978C45.1048 13.3047 40.9795 11.5127 36.3215 11.5127C29.2549 11.5127 20.2457 15.1054 16.7428 23.1505C11.6969 34.7304 21.2242 46.2523 32.9083 46.2523C38.2901 46.2523 44.1842 42.9347 46.5813 39.5708C46.7318 39.3594 46.8968 39.1597 47.0531 38.9541C47.6437 38.187 48.793 36.0534 44.9282 34.4264C43.2115 33.7026 43.0002 32.0351 43.2115 31.2043C43.8455 28.6943 46.0052 28.6307 48.2169 26.6071ZM39.5696 39.1655C37.6966 39.8023 35.757 39.096 35.2359 37.5848C34.7148 36.0765 35.8091 34.3366 37.6821 33.6998C39.5552 33.0629 41.4948 33.7692 42.0159 35.2804C42.537 36.7887 41.4427 38.5286 39.5696 39.1655Z" fill="white"/>
</g>
</mask>
<g mask="url(#mask7_696_2275)">
<path id="Vector_17" opacity="0.2" d="M50.1654 20.542C50.1654 20.542 38.7998 24.6615 36.0582 32.0871C33.3167 39.5127 29.6575 41.765 28.8237 42.1819C27.9928 42.5988 23.4188 46.6025 23.3348 46.9383L26.7451 47.6071C26.7451 47.6071 34.3936 41.0992 35.2245 36.5946C36.0553 32.09 40.4325 25.805 51.3292 21.0428L50.1654 20.542Z" fill="#FFA726"/>
</g>
</g>
<g id="Clip path group_9">
<mask id="mask8_696_2275" style="mask-type:luminance" maskUnits="userSpaceOnUse" x="15" y="11" width="36" height="36">
<g id="b_9">
<path id="Vector_18" d="M48.2169 26.6071C49.4357 25.4925 52.3509 19.9457 46.9287 14.978C45.1048 13.3047 40.9795 11.5127 36.3215 11.5127C29.2549 11.5127 20.2457 15.1054 16.7428 23.1505C11.6969 34.7304 21.2242 46.2523 32.9083 46.2523C38.2901 46.2523 44.1842 42.9347 46.5813 39.5708C46.7318 39.3594 46.8968 39.1597 47.0531 38.9541C47.6437 38.187 48.793 36.0534 44.9282 34.4264C43.2115 33.7026 43.0002 32.0351 43.2115 31.2043C43.8455 28.6943 46.0052 28.6307 48.2169 26.6071ZM39.5696 39.1655C37.6966 39.8023 35.757 39.096 35.2359 37.5848C34.7148 36.0765 35.8091 34.3366 37.6821 33.6998C39.5552 33.0629 41.4948 33.7692 42.0159 35.2804C42.537 36.7887 41.4427 38.5286 39.5696 39.1655Z" fill="white"/>
</g>
</mask>
<g mask="url(#mask8_696_2275)">
<path id="Vector_19" opacity="0.2" d="M37.9862 38.126C37.9862 38.126 34.9089 45.4676 29.255 50.0562C29.255 50.0562 35.7397 47.0512 39.8159 38.7918L37.9862 38.126Z" fill="#FFA726"/>
</g>
</g>
<g id="Clip path group_10">
<mask id="mask9_696_2275" style="mask-type:luminance" maskUnits="userSpaceOnUse" x="15" y="11" width="36" height="36">
<g id="b_10">
<path id="Vector_20" d="M48.2169 26.6071C49.4357 25.4925 52.3509 19.9457 46.9287 14.978C45.1048 13.3047 40.9795 11.5127 36.3215 11.5127C29.2549 11.5127 20.2457 15.1054 16.7428 23.1505C11.6969 34.7304 21.2242 46.2523 32.9083 46.2523C38.2901 46.2523 44.1842 42.9347 46.5813 39.5708C46.7318 39.3594 46.8968 39.1597 47.0531 38.9541C47.6437 38.187 48.793 36.0534 44.9282 34.4264C43.2115 33.7026 43.0002 32.0351 43.2115 31.2043C43.8455 28.6943 46.0052 28.6307 48.2169 26.6071ZM39.5696 39.1655C37.6966 39.8023 35.757 39.096 35.2359 37.5848C34.7148 36.0765 35.8091 34.3366 37.6821 33.6998C39.5552 33.0629 41.4948 33.7692 42.0159 35.2804C42.537 36.7887 41.4427 38.5286 39.5696 39.1655Z" fill="white"/>
</g>
</mask>
<g mask="url(#mask9_696_2275)">
<path id="Vector_21" opacity="0.2" d="M45.1629 34.4898C45.1629 34.4898 42.7427 44.3385 38.3684 46.7732C38.3684 46.7732 44.4189 46.2434 47.2096 34.1714L45.1629 34.4898Z" fill="#FFA726"/>
</g>
</g>
</g>
<path id="Vector_22" opacity="0.2" d="M36.3215 12.3812C40.58 12.3812 44.5866 14.0111 46.3439 15.6207C48.2603 17.3779 49.2331 19.3552 49.2302 21.5003C49.2273 23.7526 48.133 25.5128 47.6321 25.9673C46.891 26.6447 46.1586 27.0818 45.4464 27.5045C44.1176 28.2977 42.8612 29.0475 42.372 30.993C42.0709 32.1915 42.4125 34.3077 44.5953 35.2283C45.8575 35.761 46.6131 36.3776 46.781 37.0174C46.9316 37.5848 46.5871 38.1435 46.3699 38.4243C46.3207 38.488 46.2715 38.5488 46.2223 38.6125C46.1094 38.7573 45.9907 38.9049 45.8778 39.067C43.7094 42.1039 38.1366 45.3839 32.9083 45.3839C27.2342 45.3839 21.7916 42.4599 18.7085 37.7527C15.8917 33.4508 15.4661 28.2572 17.5389 23.4979C19.0675 19.9892 21.8553 17.0797 25.6043 15.0822C28.8727 13.3394 32.6796 12.3812 36.3215 12.3812ZM38.1801 40.2684C38.7417 40.2684 39.3033 40.1729 39.8505 39.9876C41.0982 39.565 42.1114 38.7052 42.6383 37.634C43.0581 36.7771 43.1276 35.8391 42.8381 34.9967C42.3343 33.5405 40.8579 32.5968 39.0746 32.5968C38.513 32.5968 37.9514 32.6923 37.4042 32.8776C36.1565 33.3002 35.1432 34.1601 34.6163 35.2312C34.1966 36.0881 34.1271 37.0261 34.4166 37.8685C34.9203 39.3276 36.3968 40.2684 38.1801 40.2684ZM36.3215 11.5127C29.2549 11.5127 20.2457 15.1054 16.7428 23.1505C11.6969 34.7304 21.2242 46.2523 32.9083 46.2523C38.2901 46.2523 44.1842 42.9347 46.5813 39.5708C46.7318 39.3594 46.8968 39.1597 47.0531 38.9541C47.6437 38.187 48.793 36.0534 44.9282 34.4264C43.2115 33.7026 43.0002 32.0351 43.2115 31.2043C43.8426 28.6943 46.0023 28.6278 48.214 26.6071C49.4328 25.4925 52.348 19.9457 46.9258 14.978C45.1048 13.3047 40.9795 11.5127 36.3215 11.5127ZM38.1801 39.3999C36.8194 39.3999 35.6296 38.7196 35.2359 37.5877C34.7148 36.0794 35.8091 34.3395 37.6821 33.7026C38.1482 33.5434 38.6201 33.4682 39.0717 33.4682C40.4323 33.4682 41.6222 34.1485 42.0159 35.2833C42.537 36.7916 41.4427 38.5315 39.5696 39.1684C39.1036 39.3247 38.6317 39.3999 38.1801 39.3999Z" fill="#424242"/>
<path id="Vector_23" d="M33.1924 20.0799C35.1491 19.4693 36.3384 17.7024 35.8487 16.1334C35.3591 14.5644 33.376 13.7874 31.4193 14.3981C29.4627 15.0087 28.2734 16.7756 28.763 18.3446C29.2527 19.9136 31.2358 20.6905 33.1924 20.0799Z" fill="#C62828"/>
<path id="Vector_24" d="M35.2939 15.7794C35.76 17.305 34.5789 19.0246 32.6508 19.6181C30.7228 20.2116 28.7802 19.456 28.3141 17.9303C27.8481 16.4047 29.0292 14.6851 30.9573 14.0916C32.8853 13.4981 34.8249 14.2537 35.2939 15.7794Z" fill="url(#paint1_radial_696_2275)"/>
<path id="Vector_25" d="M25.1881 26.3464C27.1631 25.73 28.3649 23.951 27.8724 22.3729C27.3799 20.7947 25.3796 20.015 23.4046 20.6314C21.4297 21.2477 20.2279 23.0267 20.7203 24.6048C21.2128 26.183 23.2131 26.9627 25.1881 26.3464Z" fill="#1565C0"/>
<path id="Vector_26" d="M27.3907 21.978C27.8713 23.5441 26.6554 25.3043 24.681 25.9151C22.7066 26.526 20.7149 25.7501 20.2343 24.1839C19.7538 22.6177 20.9697 20.8576 22.944 20.2468C24.9184 19.6359 26.9101 20.4118 27.3907 21.978Z" fill="url(#paint2_radial_696_2275)"/>
<path id="Vector_27" d="M23.0669 35.0978C25.0968 34.4643 26.3304 32.6306 25.8222 31.0021C25.314 29.3736 23.2565 28.5669 21.2265 29.2004C19.1966 29.8339 17.963 31.6676 18.4712 33.2961C18.9794 34.9246 21.037 35.7313 23.0669 35.0978Z" fill="#F9A825"/>
<path id="Vector_28" d="M25.3528 30.7873C25.8188 32.3129 24.6377 34.0325 22.7096 34.626C20.7816 35.2195 18.8391 34.4639 18.373 32.9382C17.9069 31.4126 19.088 29.693 21.0161 29.0995C22.9441 28.5031 24.8867 29.2587 25.3528 30.7873Z" fill="url(#paint3_radial_696_2275)"/>
<path id="Vector_29" d="M29.0743 43.0647C31.0094 42.46 32.1784 40.6905 31.6852 39.1125C31.192 37.5345 29.2236 36.7456 27.2885 37.3503C25.3534 37.9551 24.1844 39.7245 24.6776 41.3025C25.1708 42.8805 27.1392 43.6695 29.0743 43.0647Z" fill="#558B2F"/>
<path id="Vector_30" d="M31.1917 38.8438C31.6578 40.3695 30.4767 42.0891 28.5486 42.6826C26.6206 43.276 24.6781 42.5204 24.212 40.9948C23.7459 39.4691 24.927 37.7495 26.8551 37.1561C28.7831 36.5626 30.7257 37.3182 31.1917 38.8438Z" fill="url(#paint4_radial_696_2275)"/>
</g>
<defs>
<radialGradient id="paint0_radial_696_2275" cx="0" cy="0" r="1" gradientUnits="userSpaceOnUse" gradientTransform="translate(31.7607 16.3673) rotate(90) scale(30.8141 20.2264)">
<stop stop-color="#FFCC80"/>
<stop offset="0.2942" stop-color="#FFCB7D"/>
<stop offset="0.4879" stop-color="#FFC774"/>
<stop offset="0.6526" stop-color="#FFC166"/>
<stop offset="0.8012" stop-color="#FFB850"/>
<stop offset="0.9375" stop-color="#FFAD35"/>
<stop offset="1" stop-color="#FFA726"/>
</radialGradient>
<radialGradient id="paint1_radial_696_2275" cx="0" cy="0" r="1" gradientUnits="userSpaceOnUse" gradientTransform="translate(31.3298 14.3591) rotate(90) scale(4.95011 3.8601)">
<stop stop-color="#EF5350"/>
<stop offset="0.3459" stop-color="#E94B49"/>
<stop offset="0.8869" stop-color="#D73534"/>
<stop offset="1" stop-color="#D32F2F"/>
</radialGradient>
<radialGradient id="paint2_radial_696_2275" cx="0" cy="0" r="1" gradientUnits="userSpaceOnUse" gradientTransform="translate(23.3266 20.5205) rotate(90) scale(5.90198 4.60236)">
<stop stop-color="#42A5F5"/>
<stop offset="0.2859" stop-color="#3B9DEF"/>
<stop offset="0.7328" stop-color="#2787DE"/>
<stop offset="1" stop-color="#1976D2"/>
</radialGradient>
<radialGradient id="paint3_radial_696_2275" cx="0" cy="0" r="1" gradientUnits="userSpaceOnUse" gradientTransform="translate(21.3904 29.3647) rotate(90) scale(6.08117 4.7421)">
<stop stop-color="#FFEB3B"/>
<stop offset="0.436" stop-color="#FFEB3B"/>
<stop offset="0.6129" stop-color="#FEE238"/>
<stop offset="0.8995" stop-color="#FCCA30"/>
<stop offset="1" stop-color="#FBC02D"/>
</radialGradient>
<radialGradient id="paint4_radial_696_2275" cx="0" cy="0" r="1" gradientUnits="userSpaceOnUse" gradientTransform="translate(27.2282 37.4224) rotate(90) scale(4.95011 3.8601)">
<stop stop-color="#8BC34A"/>
<stop offset="0.3459" stop-color="#83BB46"/>
<stop offset="0.8869" stop-color="#6DA53B"/>
<stop offset="1" stop-color="#689F38"/>
</radialGradient>
</defs>
</svg>
