<svg width="38" height="39" viewBox="0 0 38 39" fill="none" xmlns="http://www.w3.org/2000/svg">
<g id="&#240;&#159;&#166;&#134; emoji &#34;collision&#34;">
<g id="Group">
<path id="Vector" d="M20.6753 2L25.5746 12.2563L36.502 2.3959L30.9161 16.5122L37 14.8698L31.2316 23.0693L36.4989 24.8849L31.1172 27.4427L36.3536 36.4216L26.3973 30.2635L24.2632 36.9258L21.1022 29.8027L12.1326 36.5391L14.8606 28.8531L2.49797 31.3399L11.7521 24.4518L2 17.4308L13.1223 18.3927L2.83819 2.62169L19.3546 13.444L20.6753 2Z" fill="#FFA000" stroke="#F44336" stroke-width="0.823675" stroke-miterlimit="10"/>
<path id="Vector_2" d="M22.0239 10.1221L24.9746 17.7648L30.8141 11.1737L26.4252 20.3722L31.7482 18.7731L26.8149 23.6754L30.9471 25.0333L26.9881 25.6178L30.1399 30.0841L25.0179 26.8117L23.8395 30.6222L22.0239 26.2643L17.4927 29.716L19.3547 25.4879L12.2409 27.0406L17.4834 23.861L10.6449 20.5732L18.2196 21.2784L11.9996 11.5201L21.5507 17.9782L22.0239 10.1221Z" fill="url(#paint0_radial_696_2383)" stroke="#FFEB3B" stroke-width="0.549117" stroke-miterlimit="10"/>
</g>
</g>
<defs>
<radialGradient id="paint0_radial_696_2383" cx="0" cy="0" r="1" gradientUnits="userSpaceOnUse" gradientTransform="translate(23.5572 22.7925) scale(8.1547)">
<stop stop-color="#FFFDE7"/>
<stop offset="1" stop-color="#FFF176"/>
</radialGradient>
</defs>
</svg>
