<svg width="40" height="41" viewBox="0 0 40 41" fill="none" xmlns="http://www.w3.org/2000/svg">
<g id="&#240;&#159;&#166;&#134; emoji &#34;globe with meridians&#34;">
<path id="Vector" d="M20 40C31.0457 40 40 31.0457 40 20C40 8.95431 31.0457 0 20 0C8.95431 0 0 8.95431 0 20C0 31.0457 8.95431 40 20 40Z" fill="url(#paint0_radial_696_2185)"/>
<path id="Vector_2" opacity="0.4" d="M40 19.3H31.1C31.0333 16.6333 30.7333 14.0333 30.1333 11.6333H38.1667C37.9667 11.1667 37.7333 10.7333 37.5 10.3H29.7667C28.6333 6.43333 26.8667 3.43333 24.8 1.6C24.0667 0.966667 23.3 0.466667 22.5 0.133333C21.6667 0.0666667 20.8333 0 20 0C19.2667 0 18.5 0.0333334 17.8 0.133333C17 0.433333 16.2333 0.933333 15.5 1.56667C13.3667 3.36667 11.5667 6.43333 10.4333 10.3333H2.5C2.26667 10.7667 2.03333 11.2 1.83333 11.6667H10.0667C9.46667 14.0667 9.16667 16.6667 9.1 19.3333H0V20.0333V20.6667H9.1C9.13333 23.3333 9.46667 25.9333 10.0333 28.3333H1.8C2 28.8 2.23333 29.2333 2.46667 29.6667H10.4C11.5333 33.6333 13.3333 36.6667 15.4333 38.4667C16.1667 39.1 16.9667 39.5667 17.7667 39.9C18.5 39.9667 19.2333 40.0333 20 40.0333C20.8333 40.0333 21.6667 39.9667 22.5 39.8667C23.3 39.5333 24.1 39.0333 24.8333 38.4C26.9333 36.5667 28.6667 33.5667 29.8 29.6667H37.5333C37.7667 29.2333 38 28.8 38.2 28.3333H30.1333C30.7333 25.9333 31.0333 23.3333 31.0667 20.6667H40C40 20.4667 40 20.2333 40 20.0333C40 19.7667 40 19.5333 40 19.3ZM29.7333 19.3H20.6667V11.6333H28.7667C29.3667 14.0333 29.7 16.6 29.7333 19.3ZM26.7667 6.33333C27.4 7.53333 27.9333 8.86667 28.4 10.3H20.6667V1.03333C22.9333 1.3 25.0667 3.16667 26.7667 6.33333ZM13.4333 6.33333C15.0667 3.26667 17.1667 1.4 19.3333 1.06667V10.3H11.8C12.2667 8.83333 12.8 7.5 13.4333 6.33333ZM11.4333 11.6333H19.3333V19.3H10.4333C10.5 16.6 10.8333 14.0333 11.4333 11.6333ZM10.4333 20.6333H19.3333V28.3H11.4C10.8 25.9 10.4667 23.3333 10.4333 20.6333ZM13.4333 33.6667C12.8 32.4667 12.2333 31.1 11.7667 29.6333H19.3333V38.9333C17.1667 38.6 15.0667 36.7333 13.4333 33.6667ZM26.7667 33.6667C25.9333 35.2333 24.9667 36.5 23.9333 37.4C22.9 38.3 21.8 38.8333 20.6667 38.9667V29.6333H28.4C27.9667 31.1 27.4 32.4667 26.7667 33.6667ZM28.7667 28.3H20.6667V20.6333H29.7667C29.7 23.3333 29.3667 25.9 28.7667 28.3Z" fill="#01579B"/>
<path id="Vector_3" opacity="0.2" d="M20 1C30.4667 1 39 9.53333 39 20C39 30.4667 30.4667 39 20 39C9.53333 39 1 30.4667 1 20C1 9.53333 9.53333 1 20 1ZM20 0C8.96667 0 0 8.96667 0 20C0 31.0333 8.96667 40 20 40C31.0333 40 40 31.0333 40 20C40 8.96667 31.0333 0 20 0Z" fill="#424242"/>
</g>
<defs>
<radialGradient id="paint0_radial_696_2185" cx="0" cy="0" r="1" gradientUnits="userSpaceOnUse" gradientTransform="translate(20 -0.0833312) scale(40.1167)">
<stop stop-color="#42A5F5"/>
<stop offset="0.3522" stop-color="#42A5F5"/>
<stop offset="0.6798" stop-color="#2B8BE2"/>
<stop offset="1" stop-color="#1976D2"/>
</radialGradient>
</defs>
</svg>
