<svg width="348" height="198" viewBox="0 0 348 198" fill="none" xmlns="http://www.w3.org/2000/svg">
<ellipse cx="1.98731" cy="77.7278" rx="1.98731" ry="1.99302" fill="#03EECA"/>
<ellipse cx="94.2868" cy="77.7278" rx="1.98731" ry="1.99302" fill="#03EECA"/>
<ellipse cx="1.98731" cy="1.99302" rx="1.98731" ry="1.99302" fill="#03EECA"/>
<ellipse cx="94.2868" cy="1.99302" rx="1.98731" ry="1.99302" fill="#03EECA"/>
<ellipse cx="69.1143" cy="77.7278" rx="1.98731" ry="1.99302" fill="#03EECA"/>
<ellipse cx="161.414" cy="77.7278" rx="1.98731" ry="1.99302" fill="#03EECA"/>
<ellipse cx="194.977" cy="77.7278" rx="1.98731" ry="1.99302" fill="#03EECA"/>
<ellipse cx="228.541" cy="77.7278" rx="1.98731" ry="1.99302" fill="#03EECA"/>
<ellipse cx="262.104" cy="77.7278" rx="1.98731" ry="1.99302" fill="#03EECA"/>
<ellipse cx="295.667" cy="77.7278" rx="1.98731" ry="1.99302" fill="#03EECA"/>
<ellipse cx="329.231" cy="77.7278" rx="1.98731" ry="1.99302" fill="#03EECA"/>
<ellipse cx="69.1143" cy="1.99302" rx="1.98731" ry="1.99302" fill="#03EECA"/>
<ellipse cx="161.414" cy="1.99302" rx="1.98731" ry="1.99302" fill="#03EECA"/>
<ellipse cx="194.977" cy="1.99302" rx="1.98731" ry="1.99302" fill="#03EECA"/>
<ellipse cx="228.541" cy="1.99302" rx="1.98731" ry="1.99302" fill="#03EECA"/>
<ellipse cx="262.104" cy="1.99302" rx="1.98731" ry="1.99302" fill="#03EECA"/>
<ellipse cx="295.667" cy="1.99302" rx="1.98731" ry="1.99302" fill="#03EECA"/>
<ellipse cx="329.231" cy="1.99302" rx="1.98731" ry="1.99302" fill="#03EECA"/>
<ellipse cx="35.5508" cy="77.7278" rx="1.98731" ry="1.99302" fill="#03EECA"/>
<ellipse cx="127.85" cy="77.7278" rx="1.98731" ry="1.99302" fill="#03EECA"/>
<ellipse cx="35.5508" cy="1.99302" rx="1.98731" ry="1.99302" fill="#03EECA"/>
<ellipse cx="127.85" cy="1.99302" rx="1.98731" ry="1.99302" fill="#03EECA"/>
<ellipse cx="18.769" cy="77.7278" rx="1.98731" ry="1.99302" fill="#03EECA"/>
<ellipse cx="111.068" cy="77.7278" rx="1.98731" ry="1.99302" fill="#03EECA"/>
<ellipse cx="18.769" cy="1.99302" rx="1.98731" ry="1.99302" fill="#03EECA"/>
<ellipse cx="111.068" cy="1.99302" rx="1.98731" ry="1.99302" fill="#03EECA"/>
<ellipse cx="85.896" cy="77.7278" rx="1.98731" ry="1.99302" fill="#03EECA"/>
<ellipse cx="178.195" cy="77.7278" rx="1.98731" ry="1.99302" fill="#03EECA"/>
<ellipse cx="211.759" cy="77.7278" rx="1.98731" ry="1.99302" fill="#03EECA"/>
<ellipse cx="245.322" cy="77.7278" rx="1.98731" ry="1.99302" fill="#03EECA"/>
<ellipse cx="278.886" cy="77.7278" rx="1.98731" ry="1.99302" fill="#03EECA"/>
<ellipse cx="312.449" cy="77.7278" rx="1.98731" ry="1.99302" fill="#03EECA"/>
<ellipse cx="346.013" cy="77.7278" rx="1.98731" ry="1.99302" fill="#03EECA"/>
<ellipse cx="85.896" cy="1.99302" rx="1.98731" ry="1.99302" fill="#03EECA"/>
<ellipse cx="178.195" cy="1.99302" rx="1.98731" ry="1.99302" fill="#03EECA"/>
<ellipse cx="211.759" cy="1.99302" rx="1.98731" ry="1.99302" fill="#03EECA"/>
<ellipse cx="245.322" cy="1.99302" rx="1.98731" ry="1.99302" fill="#03EECA"/>
<ellipse cx="278.886" cy="1.99302" rx="1.98731" ry="1.99302" fill="#03EECA"/>
<ellipse cx="312.449" cy="1.99302" rx="1.98731" ry="1.99302" fill="#03EECA"/>
<ellipse cx="346.013" cy="1.99302" rx="1.98731" ry="1.99302" fill="#03EECA"/>
<ellipse cx="52.3325" cy="77.7278" rx="1.98731" ry="1.99302" fill="#03EECA"/>
<ellipse cx="144.632" cy="77.7278" rx="1.98731" ry="1.99302" fill="#03EECA"/>
<ellipse cx="52.3325" cy="1.99302" rx="1.98731" ry="1.99302" fill="#03EECA"/>
<ellipse cx="144.632" cy="1.99302" rx="1.98731" ry="1.99302" fill="#03EECA"/>
<ellipse cx="10.3781" cy="77.7278" rx="1.98731" ry="1.99302" fill="#03EECA"/>
<ellipse cx="102.678" cy="77.7278" rx="1.98731" ry="1.99302" fill="#03EECA"/>
<ellipse cx="10.3781" cy="1.99302" rx="1.98731" ry="1.99302" fill="#03EECA"/>
<ellipse cx="102.678" cy="1.99302" rx="1.98731" ry="1.99302" fill="#03EECA"/>
<ellipse cx="77.505" cy="77.7278" rx="1.98731" ry="1.99302" fill="#03EECA"/>
<ellipse cx="169.805" cy="77.7278" rx="1.98731" ry="1.99302" fill="#03EECA"/>
<ellipse cx="203.368" cy="77.7278" rx="1.98731" ry="1.99302" fill="#03EECA"/>
<ellipse cx="236.931" cy="77.7278" rx="1.98731" ry="1.99302" fill="#03EECA"/>
<ellipse cx="270.495" cy="77.7278" rx="1.98731" ry="1.99302" fill="#03EECA"/>
<ellipse cx="304.058" cy="77.7278" rx="1.98731" ry="1.99302" fill="#03EECA"/>
<ellipse cx="337.622" cy="77.7278" rx="1.98731" ry="1.99302" fill="#03EECA"/>
<ellipse cx="77.505" cy="1.99302" rx="1.98731" ry="1.99302" fill="#03EECA"/>
<ellipse cx="169.805" cy="1.99302" rx="1.98731" ry="1.99302" fill="#03EECA"/>
<ellipse cx="203.368" cy="1.99302" rx="1.98731" ry="1.99302" fill="#03EECA"/>
<ellipse cx="236.931" cy="1.99302" rx="1.98731" ry="1.99302" fill="#03EECA"/>
<ellipse cx="270.495" cy="1.99302" rx="1.98731" ry="1.99302" fill="#03EECA"/>
<ellipse cx="304.058" cy="1.99302" rx="1.98731" ry="1.99302" fill="#03EECA"/>
<ellipse cx="337.622" cy="1.99302" rx="1.98731" ry="1.99302" fill="#03EECA"/>
<ellipse cx="43.9415" cy="77.7278" rx="1.98731" ry="1.99302" fill="#03EECA"/>
<ellipse cx="136.241" cy="77.7278" rx="1.98731" ry="1.99302" fill="#03EECA"/>
<ellipse cx="43.9415" cy="1.99302" rx="1.98731" ry="1.99302" fill="#03EECA"/>
<ellipse cx="136.241" cy="1.99302" rx="1.98731" ry="1.99302" fill="#03EECA"/>
<ellipse cx="27.1598" cy="77.7278" rx="1.98731" ry="1.99302" fill="#03EECA"/>
<ellipse cx="119.459" cy="77.7278" rx="1.98731" ry="1.99302" fill="#03EECA"/>
<ellipse cx="27.1598" cy="1.99302" rx="1.98731" ry="1.99302" fill="#03EECA"/>
<ellipse cx="119.459" cy="1.99302" rx="1.98731" ry="1.99302" fill="#03EECA"/>
<ellipse cx="60.7233" cy="77.7278" rx="1.98731" ry="1.99302" fill="#03EECA"/>
<ellipse cx="153.023" cy="77.7278" rx="1.98731" ry="1.99302" fill="#03EECA"/>
<ellipse cx="186.586" cy="77.7278" rx="1.98731" ry="1.99302" fill="#03EECA"/>
<ellipse cx="220.15" cy="77.7278" rx="1.98731" ry="1.99302" fill="#03EECA"/>
<ellipse cx="253.713" cy="77.7278" rx="1.98731" ry="1.99302" fill="#03EECA"/>
<ellipse cx="287.277" cy="77.7278" rx="1.98731" ry="1.99302" fill="#03EECA"/>
<ellipse cx="320.84" cy="77.7278" rx="1.98731" ry="1.99302" fill="#03EECA"/>
<ellipse cx="60.7233" cy="1.99302" rx="1.98731" ry="1.99302" fill="#03EECA"/>
<ellipse cx="153.023" cy="1.99302" rx="1.98731" ry="1.99302" fill="#03EECA"/>
<ellipse cx="186.586" cy="1.99302" rx="1.98731" ry="1.99302" fill="#03EECA"/>
<ellipse cx="220.15" cy="1.99302" rx="1.98731" ry="1.99302" fill="#03EECA"/>
<ellipse cx="253.713" cy="1.99302" rx="1.98731" ry="1.99302" fill="#03EECA"/>
<ellipse cx="287.277" cy="1.99302" rx="1.98731" ry="1.99302" fill="#03EECA"/>
<ellipse cx="320.84" cy="1.99302" rx="1.98731" ry="1.99302" fill="#03EECA"/>
<ellipse cx="1.98731" cy="94.5577" rx="1.98731" ry="1.99302" fill="#03EECA"/>
<ellipse cx="94.2868" cy="94.5577" rx="1.98731" ry="1.99302" fill="#03EECA"/>
<ellipse cx="1.98731" cy="18.823" rx="1.98731" ry="1.99302" fill="#03EECA"/>
<ellipse cx="94.2868" cy="18.823" rx="1.98731" ry="1.99302" fill="#03EECA"/>
<ellipse cx="69.1143" cy="94.5577" rx="1.98731" ry="1.99302" fill="#03EECA"/>
<ellipse cx="161.414" cy="94.5577" rx="1.98731" ry="1.99302" fill="#03EECA"/>
<ellipse cx="194.977" cy="94.5577" rx="1.98731" ry="1.99302" fill="#03EECA"/>
<ellipse cx="228.541" cy="94.5577" rx="1.98731" ry="1.99302" fill="#03EECA"/>
<ellipse cx="262.104" cy="94.5577" rx="1.98731" ry="1.99302" fill="#03EECA"/>
<ellipse cx="295.667" cy="94.5577" rx="1.98731" ry="1.99302" fill="#03EECA"/>
<ellipse cx="329.231" cy="94.5577" rx="1.98731" ry="1.99302" fill="#03EECA"/>
<ellipse cx="69.1143" cy="18.823" rx="1.98731" ry="1.99302" fill="#03EECA"/>
<ellipse cx="161.414" cy="18.823" rx="1.98731" ry="1.99302" fill="#03EECA"/>
<ellipse cx="194.977" cy="18.823" rx="1.98731" ry="1.99302" fill="#03EECA"/>
<ellipse cx="228.541" cy="18.823" rx="1.98731" ry="1.99302" fill="#03EECA"/>
<ellipse cx="262.104" cy="18.823" rx="1.98731" ry="1.99302" fill="#03EECA"/>
<ellipse cx="295.667" cy="18.823" rx="1.98731" ry="1.99302" fill="#03EECA"/>
<ellipse cx="329.231" cy="18.823" rx="1.98731" ry="1.99302" fill="#03EECA"/>
<ellipse cx="35.5508" cy="94.5577" rx="1.98731" ry="1.99302" fill="#03EECA"/>
<ellipse cx="127.85" cy="94.5577" rx="1.98731" ry="1.99302" fill="#03EECA"/>
<ellipse cx="35.5508" cy="18.823" rx="1.98731" ry="1.99302" fill="#03EECA"/>
<ellipse cx="127.85" cy="18.823" rx="1.98731" ry="1.99302" fill="#03EECA"/>
<ellipse cx="18.769" cy="94.5577" rx="1.98731" ry="1.99302" fill="#03EECA"/>
<ellipse cx="111.068" cy="94.5577" rx="1.98731" ry="1.99302" fill="#03EECA"/>
<ellipse cx="18.769" cy="18.823" rx="1.98731" ry="1.99302" fill="#03EECA"/>
<ellipse cx="111.068" cy="18.823" rx="1.98731" ry="1.99302" fill="#03EECA"/>
<ellipse cx="85.896" cy="94.5577" rx="1.98731" ry="1.99302" fill="#03EECA"/>
<ellipse cx="178.195" cy="94.5577" rx="1.98731" ry="1.99302" fill="#03EECA"/>
<ellipse cx="211.759" cy="94.5577" rx="1.98731" ry="1.99302" fill="#03EECA"/>
<ellipse cx="245.322" cy="94.5577" rx="1.98731" ry="1.99302" fill="#03EECA"/>
<ellipse cx="278.886" cy="94.5577" rx="1.98731" ry="1.99302" fill="#03EECA"/>
<ellipse cx="312.449" cy="94.5577" rx="1.98731" ry="1.99302" fill="#03EECA"/>
<ellipse cx="346.013" cy="94.5577" rx="1.98731" ry="1.99302" fill="#03EECA"/>
<ellipse cx="85.896" cy="18.823" rx="1.98731" ry="1.99302" fill="#03EECA"/>
<ellipse cx="178.195" cy="18.823" rx="1.98731" ry="1.99302" fill="#03EECA"/>
<ellipse cx="211.759" cy="18.823" rx="1.98731" ry="1.99302" fill="#03EECA"/>
<ellipse cx="245.322" cy="18.823" rx="1.98731" ry="1.99302" fill="#03EECA"/>
<ellipse cx="278.886" cy="18.823" rx="1.98731" ry="1.99302" fill="#03EECA"/>
<ellipse cx="312.449" cy="18.823" rx="1.98731" ry="1.99302" fill="#03EECA"/>
<ellipse cx="346.013" cy="18.823" rx="1.98731" ry="1.99302" fill="#03EECA"/>
<ellipse cx="52.3325" cy="94.5577" rx="1.98731" ry="1.99302" fill="#03EECA"/>
<ellipse cx="144.632" cy="94.5577" rx="1.98731" ry="1.99302" fill="#03EECA"/>
<ellipse cx="52.3325" cy="18.823" rx="1.98731" ry="1.99302" fill="#03EECA"/>
<ellipse cx="144.632" cy="18.823" rx="1.98731" ry="1.99302" fill="#03EECA"/>
<ellipse cx="10.3781" cy="94.5577" rx="1.98731" ry="1.99302" fill="#03EECA"/>
<ellipse cx="102.678" cy="94.5577" rx="1.98731" ry="1.99302" fill="#03EECA"/>
<ellipse cx="10.3781" cy="18.823" rx="1.98731" ry="1.99302" fill="#03EECA"/>
<ellipse cx="102.678" cy="18.823" rx="1.98731" ry="1.99302" fill="#03EECA"/>
<ellipse cx="77.505" cy="94.5577" rx="1.98731" ry="1.99302" fill="#03EECA"/>
<ellipse cx="169.805" cy="94.5577" rx="1.98731" ry="1.99302" fill="#03EECA"/>
<ellipse cx="203.368" cy="94.5577" rx="1.98731" ry="1.99302" fill="#03EECA"/>
<ellipse cx="236.931" cy="94.5577" rx="1.98731" ry="1.99302" fill="#03EECA"/>
<ellipse cx="270.495" cy="94.5577" rx="1.98731" ry="1.99302" fill="#03EECA"/>
<ellipse cx="304.058" cy="94.5577" rx="1.98731" ry="1.99302" fill="#03EECA"/>
<ellipse cx="337.622" cy="94.5577" rx="1.98731" ry="1.99302" fill="#03EECA"/>
<ellipse cx="77.505" cy="18.823" rx="1.98731" ry="1.99302" fill="#03EECA"/>
<ellipse cx="169.805" cy="18.823" rx="1.98731" ry="1.99302" fill="#03EECA"/>
<ellipse cx="203.368" cy="18.823" rx="1.98731" ry="1.99302" fill="#03EECA"/>
<ellipse cx="236.931" cy="18.823" rx="1.98731" ry="1.99302" fill="#03EECA"/>
<ellipse cx="270.495" cy="18.823" rx="1.98731" ry="1.99302" fill="#03EECA"/>
<ellipse cx="304.058" cy="18.823" rx="1.98731" ry="1.99302" fill="#03EECA"/>
<ellipse cx="337.622" cy="18.823" rx="1.98731" ry="1.99302" fill="#03EECA"/>
<ellipse cx="43.9415" cy="94.5577" rx="1.98731" ry="1.99302" fill="#03EECA"/>
<ellipse cx="136.241" cy="94.5577" rx="1.98731" ry="1.99302" fill="#03EECA"/>
<ellipse cx="43.9415" cy="18.823" rx="1.98731" ry="1.99302" fill="#03EECA"/>
<ellipse cx="136.241" cy="18.823" rx="1.98731" ry="1.99302" fill="#03EECA"/>
<ellipse cx="27.1598" cy="94.5577" rx="1.98731" ry="1.99302" fill="#03EECA"/>
<ellipse cx="119.459" cy="94.5577" rx="1.98731" ry="1.99302" fill="#03EECA"/>
<ellipse cx="27.1598" cy="18.823" rx="1.98731" ry="1.99302" fill="#03EECA"/>
<ellipse cx="119.459" cy="18.823" rx="1.98731" ry="1.99302" fill="#03EECA"/>
<ellipse cx="60.7233" cy="94.5577" rx="1.98731" ry="1.99302" fill="#03EECA"/>
<ellipse cx="153.023" cy="94.5577" rx="1.98731" ry="1.99302" fill="#03EECA"/>
<ellipse cx="186.586" cy="94.5577" rx="1.98731" ry="1.99302" fill="#03EECA"/>
<ellipse cx="220.15" cy="94.5577" rx="1.98731" ry="1.99302" fill="#03EECA"/>
<ellipse cx="253.713" cy="94.5577" rx="1.98731" ry="1.99302" fill="#03EECA"/>
<ellipse cx="287.277" cy="94.5577" rx="1.98731" ry="1.99302" fill="#03EECA"/>
<ellipse cx="320.84" cy="94.5577" rx="1.98731" ry="1.99302" fill="#03EECA"/>
<ellipse cx="60.7233" cy="18.823" rx="1.98731" ry="1.99302" fill="#03EECA"/>
<ellipse cx="153.023" cy="18.823" rx="1.98731" ry="1.99302" fill="#03EECA"/>
<ellipse cx="186.586" cy="18.823" rx="1.98731" ry="1.99302" fill="#03EECA"/>
<ellipse cx="220.15" cy="18.823" rx="1.98731" ry="1.99302" fill="#03EECA"/>
<ellipse cx="253.713" cy="18.823" rx="1.98731" ry="1.99302" fill="#03EECA"/>
<ellipse cx="287.277" cy="18.823" rx="1.98731" ry="1.99302" fill="#03EECA"/>
<ellipse cx="320.84" cy="18.823" rx="1.98731" ry="1.99302" fill="#03EECA"/>
<ellipse cx="1.98731" cy="111.388" rx="1.98731" ry="1.99302" fill="#03EECA"/>
<ellipse cx="94.2868" cy="111.388" rx="1.98731" ry="1.99302" fill="#03EECA"/>
<ellipse cx="1.98731" cy="35.6529" rx="1.98731" ry="1.99302" fill="#03EECA"/>
<ellipse cx="94.2868" cy="35.6529" rx="1.98731" ry="1.99302" fill="#03EECA"/>
<ellipse cx="69.1143" cy="111.388" rx="1.98731" ry="1.99302" fill="#03EECA"/>
<ellipse cx="161.414" cy="111.388" rx="1.98731" ry="1.99302" fill="#03EECA"/>
<ellipse cx="194.977" cy="111.388" rx="1.98731" ry="1.99302" fill="#03EECA"/>
<ellipse cx="228.541" cy="111.388" rx="1.98731" ry="1.99302" fill="#03EECA"/>
<ellipse cx="262.104" cy="111.388" rx="1.98731" ry="1.99302" fill="#03EECA"/>
<ellipse cx="295.667" cy="111.388" rx="1.98731" ry="1.99302" fill="#03EECA"/>
<ellipse cx="329.231" cy="111.388" rx="1.98731" ry="1.99302" fill="#03EECA"/>
<ellipse cx="69.1143" cy="35.6529" rx="1.98731" ry="1.99302" fill="#03EECA"/>
<ellipse cx="161.414" cy="35.6529" rx="1.98731" ry="1.99302" fill="#03EECA"/>
<ellipse cx="194.977" cy="35.6529" rx="1.98731" ry="1.99302" fill="#03EECA"/>
<ellipse cx="228.541" cy="35.6529" rx="1.98731" ry="1.99302" fill="#03EECA"/>
<ellipse cx="262.104" cy="35.6529" rx="1.98731" ry="1.99302" fill="#03EECA"/>
<ellipse cx="295.667" cy="35.6529" rx="1.98731" ry="1.99302" fill="#03EECA"/>
<ellipse cx="329.231" cy="35.6529" rx="1.98731" ry="1.99302" fill="#03EECA"/>
<ellipse cx="35.5508" cy="111.388" rx="1.98731" ry="1.99302" fill="#03EECA"/>
<ellipse cx="127.85" cy="111.388" rx="1.98731" ry="1.99302" fill="#03EECA"/>
<ellipse cx="35.5508" cy="35.6529" rx="1.98731" ry="1.99302" fill="#03EECA"/>
<ellipse cx="127.85" cy="35.6529" rx="1.98731" ry="1.99302" fill="#03EECA"/>
<ellipse cx="18.769" cy="111.388" rx="1.98731" ry="1.99302" fill="#03EECA"/>
<ellipse cx="111.068" cy="111.388" rx="1.98731" ry="1.99302" fill="#03EECA"/>
<ellipse cx="18.769" cy="35.6529" rx="1.98731" ry="1.99302" fill="#03EECA"/>
<ellipse cx="111.068" cy="35.6529" rx="1.98731" ry="1.99302" fill="#03EECA"/>
<ellipse cx="85.896" cy="111.388" rx="1.98731" ry="1.99302" fill="#03EECA"/>
<ellipse cx="178.195" cy="111.388" rx="1.98731" ry="1.99302" fill="#03EECA"/>
<ellipse cx="211.759" cy="111.388" rx="1.98731" ry="1.99302" fill="#03EECA"/>
<ellipse cx="245.322" cy="111.388" rx="1.98731" ry="1.99302" fill="#03EECA"/>
<ellipse cx="278.886" cy="111.388" rx="1.98731" ry="1.99302" fill="#03EECA"/>
<ellipse cx="312.449" cy="111.388" rx="1.98731" ry="1.99302" fill="#03EECA"/>
<ellipse cx="346.013" cy="111.388" rx="1.98731" ry="1.99302" fill="#03EECA"/>
<ellipse cx="85.896" cy="35.6529" rx="1.98731" ry="1.99302" fill="#03EECA"/>
<ellipse cx="178.195" cy="35.6529" rx="1.98731" ry="1.99302" fill="#03EECA"/>
<ellipse cx="211.759" cy="35.6529" rx="1.98731" ry="1.99302" fill="#03EECA"/>
<ellipse cx="245.322" cy="35.6529" rx="1.98731" ry="1.99302" fill="#03EECA"/>
<ellipse cx="278.886" cy="35.6529" rx="1.98731" ry="1.99302" fill="#03EECA"/>
<ellipse cx="312.449" cy="35.6529" rx="1.98731" ry="1.99302" fill="#03EECA"/>
<ellipse cx="346.013" cy="35.6529" rx="1.98731" ry="1.99302" fill="#03EECA"/>
<ellipse cx="52.3325" cy="111.388" rx="1.98731" ry="1.99302" fill="#03EECA"/>
<ellipse cx="144.632" cy="111.388" rx="1.98731" ry="1.99302" fill="#03EECA"/>
<ellipse cx="52.3325" cy="35.6529" rx="1.98731" ry="1.99302" fill="#03EECA"/>
<ellipse cx="144.632" cy="35.6529" rx="1.98731" ry="1.99302" fill="#03EECA"/>
<ellipse cx="10.3781" cy="111.388" rx="1.98731" ry="1.99302" fill="#03EECA"/>
<ellipse cx="102.678" cy="111.388" rx="1.98731" ry="1.99302" fill="#03EECA"/>
<ellipse cx="10.3781" cy="35.6529" rx="1.98731" ry="1.99302" fill="#03EECA"/>
<ellipse cx="102.678" cy="35.6529" rx="1.98731" ry="1.99302" fill="#03EECA"/>
<ellipse cx="77.505" cy="111.388" rx="1.98731" ry="1.99302" fill="#03EECA"/>
<ellipse cx="169.805" cy="111.388" rx="1.98731" ry="1.99302" fill="#03EECA"/>
<ellipse cx="203.368" cy="111.388" rx="1.98731" ry="1.99302" fill="#03EECA"/>
<ellipse cx="236.931" cy="111.388" rx="1.98731" ry="1.99302" fill="#03EECA"/>
<ellipse cx="270.495" cy="111.388" rx="1.98731" ry="1.99302" fill="#03EECA"/>
<ellipse cx="304.058" cy="111.388" rx="1.98731" ry="1.99302" fill="#03EECA"/>
<ellipse cx="337.622" cy="111.388" rx="1.98731" ry="1.99302" fill="#03EECA"/>
<ellipse cx="77.505" cy="35.6529" rx="1.98731" ry="1.99302" fill="#03EECA"/>
<ellipse cx="169.805" cy="35.6529" rx="1.98731" ry="1.99302" fill="#03EECA"/>
<ellipse cx="203.368" cy="35.6529" rx="1.98731" ry="1.99302" fill="#03EECA"/>
<ellipse cx="236.931" cy="35.6529" rx="1.98731" ry="1.99302" fill="#03EECA"/>
<ellipse cx="270.495" cy="35.6529" rx="1.98731" ry="1.99302" fill="#03EECA"/>
<ellipse cx="304.058" cy="35.6529" rx="1.98731" ry="1.99302" fill="#03EECA"/>
<ellipse cx="337.622" cy="35.6529" rx="1.98731" ry="1.99302" fill="#03EECA"/>
<ellipse cx="43.9415" cy="111.388" rx="1.98731" ry="1.99302" fill="#03EECA"/>
<ellipse cx="136.241" cy="111.388" rx="1.98731" ry="1.99302" fill="#03EECA"/>
<ellipse cx="43.9415" cy="35.6529" rx="1.98731" ry="1.99302" fill="#03EECA"/>
<ellipse cx="136.241" cy="35.6529" rx="1.98731" ry="1.99302" fill="#03EECA"/>
<ellipse cx="27.1598" cy="111.388" rx="1.98731" ry="1.99302" fill="#03EECA"/>
<ellipse cx="119.459" cy="111.388" rx="1.98731" ry="1.99302" fill="#03EECA"/>
<ellipse cx="27.1598" cy="35.6529" rx="1.98731" ry="1.99302" fill="#03EECA"/>
<ellipse cx="119.459" cy="35.6529" rx="1.98731" ry="1.99302" fill="#03EECA"/>
<ellipse cx="60.7233" cy="111.388" rx="1.98731" ry="1.99302" fill="#03EECA"/>
<ellipse cx="153.023" cy="111.388" rx="1.98731" ry="1.99302" fill="#03EECA"/>
<ellipse cx="186.586" cy="111.388" rx="1.98731" ry="1.99302" fill="#03EECA"/>
<ellipse cx="220.15" cy="111.388" rx="1.98731" ry="1.99302" fill="#03EECA"/>
<ellipse cx="253.713" cy="111.388" rx="1.98731" ry="1.99302" fill="#03EECA"/>
<ellipse cx="287.277" cy="111.388" rx="1.98731" ry="1.99302" fill="#03EECA"/>
<ellipse cx="320.84" cy="111.388" rx="1.98731" ry="1.99302" fill="#03EECA"/>
<ellipse cx="60.7233" cy="35.6529" rx="1.98731" ry="1.99302" fill="#03EECA"/>
<ellipse cx="153.023" cy="35.6529" rx="1.98731" ry="1.99302" fill="#03EECA"/>
<ellipse cx="186.586" cy="35.6529" rx="1.98731" ry="1.99302" fill="#03EECA"/>
<ellipse cx="220.15" cy="35.6529" rx="1.98731" ry="1.99302" fill="#03EECA"/>
<ellipse cx="253.713" cy="35.6529" rx="1.98731" ry="1.99302" fill="#03EECA"/>
<ellipse cx="287.277" cy="35.6529" rx="1.98731" ry="1.99302" fill="#03EECA"/>
<ellipse cx="320.84" cy="35.6529" rx="1.98731" ry="1.99302" fill="#03EECA"/>
<ellipse cx="1.98731" cy="136.633" rx="1.98731" ry="1.99302" fill="#03EECA"/>
<ellipse cx="1.98731" cy="153.463" rx="1.98731" ry="1.99302" fill="#03EECA"/>
<ellipse cx="1.98731" cy="170.293" rx="1.98731" ry="1.99302" fill="#03EECA"/>
<ellipse cx="1.98731" cy="187.122" rx="1.98731" ry="1.99302" fill="#03EECA"/>
<ellipse cx="94.2868" cy="136.633" rx="1.98731" ry="1.99302" fill="#03EECA"/>
<ellipse cx="94.2868" cy="153.463" rx="1.98731" ry="1.99302" fill="#03EECA"/>
<ellipse cx="94.2868" cy="170.293" rx="1.98731" ry="1.99302" fill="#03EECA"/>
<ellipse cx="94.2868" cy="187.122" rx="1.98731" ry="1.99302" fill="#03EECA"/>
<ellipse cx="1.98731" cy="60.8979" rx="1.98731" ry="1.99302" fill="#03EECA"/>
<ellipse cx="94.2868" cy="60.8979" rx="1.98731" ry="1.99302" fill="#03EECA"/>
<ellipse cx="69.1143" cy="136.633" rx="1.98731" ry="1.99302" fill="#03EECA"/>
<ellipse cx="69.1143" cy="153.463" rx="1.98731" ry="1.99302" fill="#03EECA"/>
<ellipse cx="69.1143" cy="170.293" rx="1.98731" ry="1.99302" fill="#03EECA"/>
<ellipse cx="69.1143" cy="187.122" rx="1.98731" ry="1.99302" fill="#03EECA"/>
<ellipse cx="161.414" cy="136.633" rx="1.98731" ry="1.99302" fill="#03EECA"/>
<ellipse cx="161.414" cy="153.463" rx="1.98731" ry="1.99302" fill="#03EECA"/>
<ellipse cx="161.414" cy="170.293" rx="1.98731" ry="1.99302" fill="#03EECA"/>
<ellipse cx="161.414" cy="187.122" rx="1.98731" ry="1.99302" fill="#03EECA"/>
<ellipse cx="194.977" cy="136.633" rx="1.98731" ry="1.99302" fill="#03EECA"/>
<ellipse cx="194.977" cy="153.463" rx="1.98731" ry="1.99302" fill="#03EECA"/>
<ellipse cx="194.977" cy="170.293" rx="1.98731" ry="1.99302" fill="#03EECA"/>
<ellipse cx="194.977" cy="187.122" rx="1.98731" ry="1.99302" fill="#03EECA"/>
<ellipse cx="228.541" cy="136.633" rx="1.98731" ry="1.99302" fill="#03EECA"/>
<ellipse cx="228.541" cy="153.463" rx="1.98731" ry="1.99302" fill="#03EECA"/>
<ellipse cx="228.541" cy="170.293" rx="1.98731" ry="1.99302" fill="#03EECA"/>
<ellipse cx="228.541" cy="187.122" rx="1.98731" ry="1.99302" fill="#03EECA"/>
<ellipse cx="262.104" cy="136.633" rx="1.98731" ry="1.99302" fill="#03EECA"/>
<ellipse cx="262.104" cy="153.463" rx="1.98731" ry="1.99302" fill="#03EECA"/>
<ellipse cx="262.104" cy="170.293" rx="1.98731" ry="1.99302" fill="#03EECA"/>
<ellipse cx="262.104" cy="187.122" rx="1.98731" ry="1.99302" fill="#03EECA"/>
<ellipse cx="295.667" cy="136.633" rx="1.98731" ry="1.99302" fill="#03EECA"/>
<ellipse cx="295.667" cy="153.463" rx="1.98731" ry="1.99302" fill="#03EECA"/>
<ellipse cx="295.667" cy="170.293" rx="1.98731" ry="1.99302" fill="#03EECA"/>
<ellipse cx="295.667" cy="187.122" rx="1.98731" ry="1.99302" fill="#03EECA"/>
<ellipse cx="329.231" cy="136.633" rx="1.98731" ry="1.99302" fill="#03EECA"/>
<ellipse cx="329.231" cy="153.463" rx="1.98731" ry="1.99302" fill="#03EECA"/>
<ellipse cx="329.231" cy="170.293" rx="1.98731" ry="1.99302" fill="#03EECA"/>
<ellipse cx="329.231" cy="187.122" rx="1.98731" ry="1.99302" fill="#03EECA"/>
<ellipse cx="69.1143" cy="60.8979" rx="1.98731" ry="1.99302" fill="#03EECA"/>
<ellipse cx="161.414" cy="60.8979" rx="1.98731" ry="1.99302" fill="#03EECA"/>
<ellipse cx="194.977" cy="60.8979" rx="1.98731" ry="1.99302" fill="#03EECA"/>
<ellipse cx="228.541" cy="60.8979" rx="1.98731" ry="1.99302" fill="#03EECA"/>
<ellipse cx="262.104" cy="60.8979" rx="1.98731" ry="1.99302" fill="#03EECA"/>
<ellipse cx="295.667" cy="60.8979" rx="1.98731" ry="1.99302" fill="#03EECA"/>
<ellipse cx="329.231" cy="60.8979" rx="1.98731" ry="1.99302" fill="#03EECA"/>
<ellipse cx="35.5508" cy="136.633" rx="1.98731" ry="1.99302" fill="#03EECA"/>
<ellipse cx="35.5508" cy="153.463" rx="1.98731" ry="1.99302" fill="#03EECA"/>
<ellipse cx="35.5508" cy="170.293" rx="1.98731" ry="1.99302" fill="#03EECA"/>
<ellipse cx="35.5508" cy="187.122" rx="1.98731" ry="1.99302" fill="#03EECA"/>
<ellipse cx="127.85" cy="136.633" rx="1.98731" ry="1.99302" fill="#03EECA"/>
<ellipse cx="127.85" cy="153.463" rx="1.98731" ry="1.99302" fill="#03EECA"/>
<ellipse cx="127.85" cy="170.293" rx="1.98731" ry="1.99302" fill="#03EECA"/>
<ellipse cx="127.85" cy="187.122" rx="1.98731" ry="1.99302" fill="#03EECA"/>
<ellipse cx="35.5508" cy="60.8979" rx="1.98731" ry="1.99302" fill="#03EECA"/>
<ellipse cx="127.85" cy="60.8979" rx="1.98731" ry="1.99302" fill="#03EECA"/>
<ellipse cx="18.769" cy="136.633" rx="1.98731" ry="1.99302" fill="#03EECA"/>
<ellipse cx="18.769" cy="153.463" rx="1.98731" ry="1.99302" fill="#03EECA"/>
<ellipse cx="18.769" cy="170.293" rx="1.98731" ry="1.99302" fill="#03EECA"/>
<ellipse cx="18.769" cy="187.122" rx="1.98731" ry="1.99302" fill="#03EECA"/>
<ellipse cx="111.068" cy="136.633" rx="1.98731" ry="1.99302" fill="#03EECA"/>
<ellipse cx="111.068" cy="153.463" rx="1.98731" ry="1.99302" fill="#03EECA"/>
<ellipse cx="111.068" cy="170.293" rx="1.98731" ry="1.99302" fill="#03EECA"/>
<ellipse cx="111.068" cy="187.122" rx="1.98731" ry="1.99302" fill="#03EECA"/>
<ellipse cx="18.769" cy="60.8979" rx="1.98731" ry="1.99302" fill="#03EECA"/>
<ellipse cx="111.068" cy="60.8979" rx="1.98731" ry="1.99302" fill="#03EECA"/>
<ellipse cx="85.896" cy="136.633" rx="1.98731" ry="1.99302" fill="#03EECA"/>
<ellipse cx="85.896" cy="153.463" rx="1.98731" ry="1.99302" fill="#03EECA"/>
<ellipse cx="85.896" cy="170.293" rx="1.98731" ry="1.99302" fill="#03EECA"/>
<ellipse cx="85.896" cy="187.122" rx="1.98731" ry="1.99302" fill="#03EECA"/>
<ellipse cx="178.195" cy="136.633" rx="1.98731" ry="1.99302" fill="#03EECA"/>
<ellipse cx="178.195" cy="153.463" rx="1.98731" ry="1.99302" fill="#03EECA"/>
<ellipse cx="178.195" cy="170.293" rx="1.98731" ry="1.99302" fill="#03EECA"/>
<ellipse cx="178.195" cy="187.122" rx="1.98731" ry="1.99302" fill="#03EECA"/>
<ellipse cx="211.759" cy="136.633" rx="1.98731" ry="1.99302" fill="#03EECA"/>
<ellipse cx="211.759" cy="153.463" rx="1.98731" ry="1.99302" fill="#03EECA"/>
<ellipse cx="211.759" cy="170.293" rx="1.98731" ry="1.99302" fill="#03EECA"/>
<ellipse cx="211.759" cy="187.122" rx="1.98731" ry="1.99302" fill="#03EECA"/>
<ellipse cx="245.322" cy="136.633" rx="1.98731" ry="1.99302" fill="#03EECA"/>
<ellipse cx="245.322" cy="153.463" rx="1.98731" ry="1.99302" fill="#03EECA"/>
<ellipse cx="245.322" cy="170.293" rx="1.98731" ry="1.99302" fill="#03EECA"/>
<ellipse cx="245.322" cy="187.122" rx="1.98731" ry="1.99302" fill="#03EECA"/>
<ellipse cx="278.886" cy="136.633" rx="1.98731" ry="1.99302" fill="#03EECA"/>
<ellipse cx="278.886" cy="153.463" rx="1.98731" ry="1.99302" fill="#03EECA"/>
<ellipse cx="278.886" cy="170.293" rx="1.98731" ry="1.99302" fill="#03EECA"/>
<ellipse cx="278.886" cy="187.122" rx="1.98731" ry="1.99302" fill="#03EECA"/>
<ellipse cx="312.449" cy="136.633" rx="1.98731" ry="1.99302" fill="#03EECA"/>
<ellipse cx="312.449" cy="153.463" rx="1.98731" ry="1.99302" fill="#03EECA"/>
<ellipse cx="312.449" cy="170.293" rx="1.98731" ry="1.99302" fill="#03EECA"/>
<ellipse cx="312.449" cy="187.122" rx="1.98731" ry="1.99302" fill="#03EECA"/>
<ellipse cx="346.013" cy="136.633" rx="1.98731" ry="1.99302" fill="#03EECA"/>
<ellipse cx="346.013" cy="153.463" rx="1.98731" ry="1.99302" fill="#03EECA"/>
<ellipse cx="346.013" cy="170.293" rx="1.98731" ry="1.99302" fill="#03EECA"/>
<ellipse cx="346.013" cy="187.122" rx="1.98731" ry="1.99302" fill="#03EECA"/>
<ellipse cx="85.896" cy="60.8979" rx="1.98731" ry="1.99302" fill="#03EECA"/>
<ellipse cx="178.195" cy="60.8979" rx="1.98731" ry="1.99302" fill="#03EECA"/>
<ellipse cx="211.759" cy="60.8979" rx="1.98731" ry="1.99302" fill="#03EECA"/>
<ellipse cx="245.322" cy="60.8979" rx="1.98731" ry="1.99302" fill="#03EECA"/>
<ellipse cx="278.886" cy="60.8979" rx="1.98731" ry="1.99302" fill="#03EECA"/>
<ellipse cx="312.449" cy="60.8979" rx="1.98731" ry="1.99302" fill="#03EECA"/>
<ellipse cx="346.013" cy="60.8979" rx="1.98731" ry="1.99302" fill="#03EECA"/>
<ellipse cx="52.3325" cy="136.633" rx="1.98731" ry="1.99302" fill="#03EECA"/>
<ellipse cx="52.3325" cy="153.463" rx="1.98731" ry="1.99302" fill="#03EECA"/>
<ellipse cx="52.3325" cy="170.293" rx="1.98731" ry="1.99302" fill="#03EECA"/>
<ellipse cx="52.3325" cy="187.122" rx="1.98731" ry="1.99302" fill="#03EECA"/>
<ellipse cx="144.632" cy="136.633" rx="1.98731" ry="1.99302" fill="#03EECA"/>
<ellipse cx="144.632" cy="153.463" rx="1.98731" ry="1.99302" fill="#03EECA"/>
<ellipse cx="144.632" cy="170.293" rx="1.98731" ry="1.99302" fill="#03EECA"/>
<ellipse cx="144.632" cy="187.122" rx="1.98731" ry="1.99302" fill="#03EECA"/>
<ellipse cx="52.3325" cy="60.8979" rx="1.98731" ry="1.99302" fill="#03EECA"/>
<ellipse cx="144.632" cy="60.8979" rx="1.98731" ry="1.99302" fill="#03EECA"/>
<ellipse cx="10.3781" cy="136.633" rx="1.98731" ry="1.99302" fill="#03EECA"/>
<ellipse cx="10.3781" cy="153.463" rx="1.98731" ry="1.99302" fill="#03EECA"/>
<ellipse cx="10.3781" cy="170.293" rx="1.98731" ry="1.99302" fill="#03EECA"/>
<ellipse cx="10.3781" cy="187.122" rx="1.98731" ry="1.99302" fill="#03EECA"/>
<ellipse cx="102.678" cy="136.633" rx="1.98731" ry="1.99302" fill="#03EECA"/>
<ellipse cx="102.678" cy="153.463" rx="1.98731" ry="1.99302" fill="#03EECA"/>
<ellipse cx="102.678" cy="170.293" rx="1.98731" ry="1.99302" fill="#03EECA"/>
<ellipse cx="102.678" cy="187.122" rx="1.98731" ry="1.99302" fill="#03EECA"/>
<ellipse cx="10.3781" cy="60.8979" rx="1.98731" ry="1.99302" fill="#03EECA"/>
<ellipse cx="102.678" cy="60.8979" rx="1.98731" ry="1.99302" fill="#03EECA"/>
<ellipse cx="77.505" cy="136.633" rx="1.98731" ry="1.99302" fill="#03EECA"/>
<ellipse cx="77.505" cy="153.463" rx="1.98731" ry="1.99302" fill="#03EECA"/>
<ellipse cx="77.505" cy="170.293" rx="1.98731" ry="1.99302" fill="#03EECA"/>
<ellipse cx="77.505" cy="187.122" rx="1.98731" ry="1.99302" fill="#03EECA"/>
<ellipse cx="169.805" cy="136.633" rx="1.98731" ry="1.99302" fill="#03EECA"/>
<ellipse cx="169.805" cy="153.463" rx="1.98731" ry="1.99302" fill="#03EECA"/>
<ellipse cx="169.805" cy="170.293" rx="1.98731" ry="1.99302" fill="#03EECA"/>
<ellipse cx="169.805" cy="187.122" rx="1.98731" ry="1.99302" fill="#03EECA"/>
<ellipse cx="203.368" cy="136.633" rx="1.98731" ry="1.99302" fill="#03EECA"/>
<ellipse cx="203.368" cy="153.463" rx="1.98731" ry="1.99302" fill="#03EECA"/>
<ellipse cx="203.368" cy="170.293" rx="1.98731" ry="1.99302" fill="#03EECA"/>
<ellipse cx="203.368" cy="187.122" rx="1.98731" ry="1.99302" fill="#03EECA"/>
<ellipse cx="236.931" cy="136.633" rx="1.98731" ry="1.99302" fill="#03EECA"/>
<ellipse cx="236.931" cy="153.463" rx="1.98731" ry="1.99302" fill="#03EECA"/>
<ellipse cx="236.931" cy="170.293" rx="1.98731" ry="1.99302" fill="#03EECA"/>
<ellipse cx="236.931" cy="187.122" rx="1.98731" ry="1.99302" fill="#03EECA"/>
<ellipse cx="270.495" cy="136.633" rx="1.98731" ry="1.99302" fill="#03EECA"/>
<ellipse cx="270.495" cy="153.463" rx="1.98731" ry="1.99302" fill="#03EECA"/>
<ellipse cx="270.495" cy="170.293" rx="1.98731" ry="1.99302" fill="#03EECA"/>
<ellipse cx="270.495" cy="187.122" rx="1.98731" ry="1.99302" fill="#03EECA"/>
<ellipse cx="304.058" cy="136.633" rx="1.98731" ry="1.99302" fill="#03EECA"/>
<ellipse cx="304.058" cy="153.463" rx="1.98731" ry="1.99302" fill="#03EECA"/>
<ellipse cx="304.058" cy="170.293" rx="1.98731" ry="1.99302" fill="#03EECA"/>
<ellipse cx="304.058" cy="187.122" rx="1.98731" ry="1.99302" fill="#03EECA"/>
<ellipse cx="337.622" cy="136.633" rx="1.98731" ry="1.99302" fill="#03EECA"/>
<ellipse cx="337.622" cy="153.463" rx="1.98731" ry="1.99302" fill="#03EECA"/>
<ellipse cx="337.622" cy="170.293" rx="1.98731" ry="1.99302" fill="#03EECA"/>
<ellipse cx="337.622" cy="187.122" rx="1.98731" ry="1.99302" fill="#03EECA"/>
<ellipse cx="77.505" cy="60.8979" rx="1.98731" ry="1.99302" fill="#03EECA"/>
<ellipse cx="169.805" cy="60.8979" rx="1.98731" ry="1.99302" fill="#03EECA"/>
<ellipse cx="203.368" cy="60.8979" rx="1.98731" ry="1.99302" fill="#03EECA"/>
<ellipse cx="236.931" cy="60.8979" rx="1.98731" ry="1.99302" fill="#03EECA"/>
<ellipse cx="270.495" cy="60.8979" rx="1.98731" ry="1.99302" fill="#03EECA"/>
<ellipse cx="304.058" cy="60.8979" rx="1.98731" ry="1.99302" fill="#03EECA"/>
<ellipse cx="337.622" cy="60.8979" rx="1.98731" ry="1.99302" fill="#03EECA"/>
<ellipse cx="43.9415" cy="136.633" rx="1.98731" ry="1.99302" fill="#03EECA"/>
<ellipse cx="43.9415" cy="153.463" rx="1.98731" ry="1.99302" fill="#03EECA"/>
<ellipse cx="43.9415" cy="170.293" rx="1.98731" ry="1.99302" fill="#03EECA"/>
<ellipse cx="43.9415" cy="187.122" rx="1.98731" ry="1.99302" fill="#03EECA"/>
<ellipse cx="136.241" cy="136.633" rx="1.98731" ry="1.99302" fill="#03EECA"/>
<ellipse cx="136.241" cy="153.463" rx="1.98731" ry="1.99302" fill="#03EECA"/>
<ellipse cx="136.241" cy="170.293" rx="1.98731" ry="1.99302" fill="#03EECA"/>
<ellipse cx="136.241" cy="187.122" rx="1.98731" ry="1.99302" fill="#03EECA"/>
<ellipse cx="43.9415" cy="60.8979" rx="1.98731" ry="1.99302" fill="#03EECA"/>
<ellipse cx="136.241" cy="60.8979" rx="1.98731" ry="1.99302" fill="#03EECA"/>
<ellipse cx="27.1598" cy="136.633" rx="1.98731" ry="1.99302" fill="#03EECA"/>
<ellipse cx="27.1598" cy="153.463" rx="1.98731" ry="1.99302" fill="#03EECA"/>
<ellipse cx="27.1598" cy="170.293" rx="1.98731" ry="1.99302" fill="#03EECA"/>
<ellipse cx="27.1598" cy="187.122" rx="1.98731" ry="1.99302" fill="#03EECA"/>
<ellipse cx="119.459" cy="136.633" rx="1.98731" ry="1.99302" fill="#03EECA"/>
<ellipse cx="119.459" cy="153.463" rx="1.98731" ry="1.99302" fill="#03EECA"/>
<ellipse cx="119.459" cy="170.293" rx="1.98731" ry="1.99302" fill="#03EECA"/>
<ellipse cx="119.459" cy="187.122" rx="1.98731" ry="1.99302" fill="#03EECA"/>
<ellipse cx="27.1598" cy="60.8979" rx="1.98731" ry="1.99302" fill="#03EECA"/>
<ellipse cx="119.459" cy="60.8979" rx="1.98731" ry="1.99302" fill="#03EECA"/>
<ellipse cx="60.7233" cy="136.633" rx="1.98731" ry="1.99302" fill="#03EECA"/>
<ellipse cx="60.7233" cy="153.463" rx="1.98731" ry="1.99302" fill="#03EECA"/>
<ellipse cx="60.7233" cy="170.293" rx="1.98731" ry="1.99302" fill="#03EECA"/>
<ellipse cx="60.7233" cy="187.122" rx="1.98731" ry="1.99302" fill="#03EECA"/>
<ellipse cx="153.023" cy="136.633" rx="1.98731" ry="1.99302" fill="#03EECA"/>
<ellipse cx="153.023" cy="153.463" rx="1.98731" ry="1.99302" fill="#03EECA"/>
<ellipse cx="153.023" cy="170.293" rx="1.98731" ry="1.99302" fill="#03EECA"/>
<ellipse cx="153.023" cy="187.122" rx="1.98731" ry="1.99302" fill="#03EECA"/>
<ellipse cx="186.586" cy="136.633" rx="1.98731" ry="1.99302" fill="#03EECA"/>
<ellipse cx="186.586" cy="153.463" rx="1.98731" ry="1.99302" fill="#03EECA"/>
<ellipse cx="186.586" cy="170.293" rx="1.98731" ry="1.99302" fill="#03EECA"/>
<ellipse cx="186.586" cy="187.122" rx="1.98731" ry="1.99302" fill="#03EECA"/>
<ellipse cx="220.15" cy="136.633" rx="1.98731" ry="1.99302" fill="#03EECA"/>
<ellipse cx="220.15" cy="153.463" rx="1.98731" ry="1.99302" fill="#03EECA"/>
<ellipse cx="220.15" cy="170.293" rx="1.98731" ry="1.99302" fill="#03EECA"/>
<ellipse cx="220.15" cy="187.122" rx="1.98731" ry="1.99302" fill="#03EECA"/>
<ellipse cx="253.713" cy="136.633" rx="1.98731" ry="1.99302" fill="#03EECA"/>
<ellipse cx="253.713" cy="153.463" rx="1.98731" ry="1.99302" fill="#03EECA"/>
<ellipse cx="253.713" cy="170.293" rx="1.98731" ry="1.99302" fill="#03EECA"/>
<ellipse cx="253.713" cy="187.122" rx="1.98731" ry="1.99302" fill="#03EECA"/>
<ellipse cx="287.277" cy="136.633" rx="1.98731" ry="1.99302" fill="#03EECA"/>
<ellipse cx="287.277" cy="153.463" rx="1.98731" ry="1.99302" fill="#03EECA"/>
<ellipse cx="287.277" cy="170.293" rx="1.98731" ry="1.99302" fill="#03EECA"/>
<ellipse cx="287.277" cy="187.122" rx="1.98731" ry="1.99302" fill="#03EECA"/>
<ellipse cx="320.84" cy="136.633" rx="1.98731" ry="1.99302" fill="#03EECA"/>
<ellipse cx="320.84" cy="153.463" rx="1.98731" ry="1.99302" fill="#03EECA"/>
<ellipse cx="320.84" cy="170.293" rx="1.98731" ry="1.99302" fill="#03EECA"/>
<ellipse cx="320.84" cy="187.122" rx="1.98731" ry="1.99302" fill="#03EECA"/>
<ellipse cx="60.7233" cy="60.8979" rx="1.98731" ry="1.99302" fill="#03EECA"/>
<ellipse cx="153.023" cy="60.8979" rx="1.98731" ry="1.99302" fill="#03EECA"/>
<ellipse cx="186.586" cy="60.8979" rx="1.98731" ry="1.99302" fill="#03EECA"/>
<ellipse cx="220.15" cy="60.8979" rx="1.98731" ry="1.99302" fill="#03EECA"/>
<ellipse cx="253.713" cy="60.8979" rx="1.98731" ry="1.99302" fill="#03EECA"/>
<ellipse cx="287.277" cy="60.8979" rx="1.98731" ry="1.99302" fill="#03EECA"/>
<ellipse cx="320.84" cy="60.8979" rx="1.98731" ry="1.99302" fill="#03EECA"/>
<ellipse cx="1.98731" cy="86.1428" rx="1.98731" ry="1.99302" fill="#03EECA"/>
<ellipse cx="94.2868" cy="86.1428" rx="1.98731" ry="1.99302" fill="#03EECA"/>
<ellipse cx="1.98731" cy="10.408" rx="1.98731" ry="1.99302" fill="#03EECA"/>
<ellipse cx="94.2868" cy="10.408" rx="1.98731" ry="1.99302" fill="#03EECA"/>
<ellipse cx="69.1143" cy="86.1428" rx="1.98731" ry="1.99302" fill="#03EECA"/>
<ellipse cx="161.414" cy="86.1428" rx="1.98731" ry="1.99302" fill="#03EECA"/>
<ellipse cx="194.977" cy="86.1428" rx="1.98731" ry="1.99302" fill="#03EECA"/>
<ellipse cx="228.541" cy="86.1428" rx="1.98731" ry="1.99302" fill="#03EECA"/>
<ellipse cx="262.104" cy="86.1428" rx="1.98731" ry="1.99302" fill="#03EECA"/>
<ellipse cx="295.667" cy="86.1428" rx="1.98731" ry="1.99302" fill="#03EECA"/>
<ellipse cx="329.231" cy="86.1428" rx="1.98731" ry="1.99302" fill="#03EECA"/>
<ellipse cx="69.1143" cy="10.408" rx="1.98731" ry="1.99302" fill="#03EECA"/>
<ellipse cx="161.414" cy="10.408" rx="1.98731" ry="1.99302" fill="#03EECA"/>
<ellipse cx="194.977" cy="10.408" rx="1.98731" ry="1.99302" fill="#03EECA"/>
<ellipse cx="228.541" cy="10.408" rx="1.98731" ry="1.99302" fill="#03EECA"/>
<ellipse cx="262.104" cy="10.408" rx="1.98731" ry="1.99302" fill="#03EECA"/>
<ellipse cx="295.667" cy="10.408" rx="1.98731" ry="1.99302" fill="#03EECA"/>
<ellipse cx="329.231" cy="10.408" rx="1.98731" ry="1.99302" fill="#03EECA"/>
<ellipse cx="35.5508" cy="86.1428" rx="1.98731" ry="1.99302" fill="#03EECA"/>
<ellipse cx="127.85" cy="86.1428" rx="1.98731" ry="1.99302" fill="#03EECA"/>
<ellipse cx="35.5508" cy="10.408" rx="1.98731" ry="1.99302" fill="#03EECA"/>
<ellipse cx="127.85" cy="10.408" rx="1.98731" ry="1.99302" fill="#03EECA"/>
<ellipse cx="18.769" cy="86.1428" rx="1.98731" ry="1.99302" fill="#03EECA"/>
<ellipse cx="111.068" cy="86.1428" rx="1.98731" ry="1.99302" fill="#03EECA"/>
<ellipse cx="18.769" cy="10.408" rx="1.98731" ry="1.99302" fill="#03EECA"/>
<ellipse cx="111.068" cy="10.408" rx="1.98731" ry="1.99302" fill="#03EECA"/>
<ellipse cx="85.896" cy="86.1428" rx="1.98731" ry="1.99302" fill="#03EECA"/>
<ellipse cx="178.195" cy="86.1428" rx="1.98731" ry="1.99302" fill="#03EECA"/>
<ellipse cx="211.759" cy="86.1428" rx="1.98731" ry="1.99302" fill="#03EECA"/>
<ellipse cx="245.322" cy="86.1428" rx="1.98731" ry="1.99302" fill="#03EECA"/>
<ellipse cx="278.886" cy="86.1428" rx="1.98731" ry="1.99302" fill="#03EECA"/>
<ellipse cx="312.449" cy="86.1428" rx="1.98731" ry="1.99302" fill="#03EECA"/>
<ellipse cx="346.013" cy="86.1428" rx="1.98731" ry="1.99302" fill="#03EECA"/>
<ellipse cx="85.896" cy="10.408" rx="1.98731" ry="1.99302" fill="#03EECA"/>
<ellipse cx="178.195" cy="10.408" rx="1.98731" ry="1.99302" fill="#03EECA"/>
<ellipse cx="211.759" cy="10.408" rx="1.98731" ry="1.99302" fill="#03EECA"/>
<ellipse cx="245.322" cy="10.408" rx="1.98731" ry="1.99302" fill="#03EECA"/>
<ellipse cx="278.886" cy="10.408" rx="1.98731" ry="1.99302" fill="#03EECA"/>
<ellipse cx="312.449" cy="10.408" rx="1.98731" ry="1.99302" fill="#03EECA"/>
<ellipse cx="346.013" cy="10.408" rx="1.98731" ry="1.99302" fill="#03EECA"/>
<ellipse cx="52.3325" cy="86.1428" rx="1.98731" ry="1.99302" fill="#03EECA"/>
<ellipse cx="144.632" cy="86.1428" rx="1.98731" ry="1.99302" fill="#03EECA"/>
<ellipse cx="52.3325" cy="10.408" rx="1.98731" ry="1.99302" fill="#03EECA"/>
<ellipse cx="144.632" cy="10.408" rx="1.98731" ry="1.99302" fill="#03EECA"/>
<ellipse cx="10.3781" cy="86.1428" rx="1.98731" ry="1.99302" fill="#03EECA"/>
<ellipse cx="102.678" cy="86.1428" rx="1.98731" ry="1.99302" fill="#03EECA"/>
<ellipse cx="10.3781" cy="10.408" rx="1.98731" ry="1.99302" fill="#03EECA"/>
<ellipse cx="102.678" cy="10.408" rx="1.98731" ry="1.99302" fill="#03EECA"/>
<ellipse cx="77.505" cy="86.1428" rx="1.98731" ry="1.99302" fill="#03EECA"/>
<ellipse cx="169.805" cy="86.1428" rx="1.98731" ry="1.99302" fill="#03EECA"/>
<ellipse cx="203.368" cy="86.1428" rx="1.98731" ry="1.99302" fill="#03EECA"/>
<ellipse cx="236.931" cy="86.1428" rx="1.98731" ry="1.99302" fill="#03EECA"/>
<ellipse cx="270.495" cy="86.1428" rx="1.98731" ry="1.99302" fill="#03EECA"/>
<ellipse cx="304.058" cy="86.1428" rx="1.98731" ry="1.99302" fill="#03EECA"/>
<ellipse cx="337.622" cy="86.1428" rx="1.98731" ry="1.99302" fill="#03EECA"/>
<ellipse cx="77.505" cy="10.408" rx="1.98731" ry="1.99302" fill="#03EECA"/>
<ellipse cx="169.805" cy="10.408" rx="1.98731" ry="1.99302" fill="#03EECA"/>
<ellipse cx="203.368" cy="10.408" rx="1.98731" ry="1.99302" fill="#03EECA"/>
<ellipse cx="236.931" cy="10.408" rx="1.98731" ry="1.99302" fill="#03EECA"/>
<ellipse cx="270.495" cy="10.408" rx="1.98731" ry="1.99302" fill="#03EECA"/>
<ellipse cx="304.058" cy="10.408" rx="1.98731" ry="1.99302" fill="#03EECA"/>
<ellipse cx="337.622" cy="10.408" rx="1.98731" ry="1.99302" fill="#03EECA"/>
<ellipse cx="43.9415" cy="86.1428" rx="1.98731" ry="1.99302" fill="#03EECA"/>
<ellipse cx="136.241" cy="86.1428" rx="1.98731" ry="1.99302" fill="#03EECA"/>
<ellipse cx="43.9415" cy="10.408" rx="1.98731" ry="1.99302" fill="#03EECA"/>
<ellipse cx="136.241" cy="10.408" rx="1.98731" ry="1.99302" fill="#03EECA"/>
<ellipse cx="27.1598" cy="86.1428" rx="1.98731" ry="1.99302" fill="#03EECA"/>
<ellipse cx="119.459" cy="86.1428" rx="1.98731" ry="1.99302" fill="#03EECA"/>
<ellipse cx="27.1598" cy="10.408" rx="1.98731" ry="1.99302" fill="#03EECA"/>
<ellipse cx="119.459" cy="10.408" rx="1.98731" ry="1.99302" fill="#03EECA"/>
<ellipse cx="60.7233" cy="86.1428" rx="1.98731" ry="1.99302" fill="#03EECA"/>
<ellipse cx="153.023" cy="86.1428" rx="1.98731" ry="1.99302" fill="#03EECA"/>
<ellipse cx="186.586" cy="86.1428" rx="1.98731" ry="1.99302" fill="#03EECA"/>
<ellipse cx="220.15" cy="86.1428" rx="1.98731" ry="1.99302" fill="#03EECA"/>
<ellipse cx="253.713" cy="86.1428" rx="1.98731" ry="1.99302" fill="#03EECA"/>
<ellipse cx="287.277" cy="86.1428" rx="1.98731" ry="1.99302" fill="#03EECA"/>
<ellipse cx="320.84" cy="86.1428" rx="1.98731" ry="1.99302" fill="#03EECA"/>
<ellipse cx="60.7233" cy="10.408" rx="1.98731" ry="1.99302" fill="#03EECA"/>
<ellipse cx="153.023" cy="10.408" rx="1.98731" ry="1.99302" fill="#03EECA"/>
<ellipse cx="186.586" cy="10.408" rx="1.98731" ry="1.99302" fill="#03EECA"/>
<ellipse cx="220.15" cy="10.408" rx="1.98731" ry="1.99302" fill="#03EECA"/>
<ellipse cx="253.713" cy="10.408" rx="1.98731" ry="1.99302" fill="#03EECA"/>
<ellipse cx="287.277" cy="10.408" rx="1.98731" ry="1.99302" fill="#03EECA"/>
<ellipse cx="320.84" cy="10.408" rx="1.98731" ry="1.99302" fill="#03EECA"/>
<ellipse cx="1.98731" cy="102.973" rx="1.98731" ry="1.99302" fill="#03EECA"/>
<ellipse cx="94.2868" cy="102.973" rx="1.98731" ry="1.99302" fill="#03EECA"/>
<ellipse cx="1.98731" cy="27.238" rx="1.98731" ry="1.99302" fill="#03EECA"/>
<ellipse cx="94.2868" cy="27.238" rx="1.98731" ry="1.99302" fill="#03EECA"/>
<ellipse cx="69.1143" cy="102.973" rx="1.98731" ry="1.99302" fill="#03EECA"/>
<ellipse cx="161.414" cy="102.973" rx="1.98731" ry="1.99302" fill="#03EECA"/>
<ellipse cx="194.977" cy="102.973" rx="1.98731" ry="1.99302" fill="#03EECA"/>
<ellipse cx="228.541" cy="102.973" rx="1.98731" ry="1.99302" fill="#03EECA"/>
<ellipse cx="262.104" cy="102.973" rx="1.98731" ry="1.99302" fill="#03EECA"/>
<ellipse cx="295.667" cy="102.973" rx="1.98731" ry="1.99302" fill="#03EECA"/>
<ellipse cx="329.231" cy="102.973" rx="1.98731" ry="1.99302" fill="#03EECA"/>
<ellipse cx="69.1143" cy="27.238" rx="1.98731" ry="1.99302" fill="#03EECA"/>
<ellipse cx="161.414" cy="27.238" rx="1.98731" ry="1.99302" fill="#03EECA"/>
<ellipse cx="194.977" cy="27.238" rx="1.98731" ry="1.99302" fill="#03EECA"/>
<ellipse cx="228.541" cy="27.238" rx="1.98731" ry="1.99302" fill="#03EECA"/>
<ellipse cx="262.104" cy="27.238" rx="1.98731" ry="1.99302" fill="#03EECA"/>
<ellipse cx="295.667" cy="27.238" rx="1.98731" ry="1.99302" fill="#03EECA"/>
<ellipse cx="329.231" cy="27.238" rx="1.98731" ry="1.99302" fill="#03EECA"/>
<ellipse cx="35.5508" cy="102.973" rx="1.98731" ry="1.99302" fill="#03EECA"/>
<ellipse cx="127.85" cy="102.973" rx="1.98731" ry="1.99302" fill="#03EECA"/>
<ellipse cx="35.5508" cy="27.238" rx="1.98731" ry="1.99302" fill="#03EECA"/>
<ellipse cx="127.85" cy="27.238" rx="1.98731" ry="1.99302" fill="#03EECA"/>
<ellipse cx="18.769" cy="102.973" rx="1.98731" ry="1.99302" fill="#03EECA"/>
<ellipse cx="111.068" cy="102.973" rx="1.98731" ry="1.99302" fill="#03EECA"/>
<ellipse cx="18.769" cy="27.238" rx="1.98731" ry="1.99302" fill="#03EECA"/>
<ellipse cx="111.068" cy="27.238" rx="1.98731" ry="1.99302" fill="#03EECA"/>
<ellipse cx="85.896" cy="102.973" rx="1.98731" ry="1.99302" fill="#03EECA"/>
<ellipse cx="178.195" cy="102.973" rx="1.98731" ry="1.99302" fill="#03EECA"/>
<ellipse cx="211.759" cy="102.973" rx="1.98731" ry="1.99302" fill="#03EECA"/>
<ellipse cx="245.322" cy="102.973" rx="1.98731" ry="1.99302" fill="#03EECA"/>
<ellipse cx="278.886" cy="102.973" rx="1.98731" ry="1.99302" fill="#03EECA"/>
<ellipse cx="312.449" cy="102.973" rx="1.98731" ry="1.99302" fill="#03EECA"/>
<ellipse cx="346.013" cy="102.973" rx="1.98731" ry="1.99302" fill="#03EECA"/>
<ellipse cx="85.896" cy="27.238" rx="1.98731" ry="1.99302" fill="#03EECA"/>
<ellipse cx="178.195" cy="27.238" rx="1.98731" ry="1.99302" fill="#03EECA"/>
<ellipse cx="211.759" cy="27.238" rx="1.98731" ry="1.99302" fill="#03EECA"/>
<ellipse cx="245.322" cy="27.238" rx="1.98731" ry="1.99302" fill="#03EECA"/>
<ellipse cx="278.886" cy="27.238" rx="1.98731" ry="1.99302" fill="#03EECA"/>
<ellipse cx="312.449" cy="27.238" rx="1.98731" ry="1.99302" fill="#03EECA"/>
<ellipse cx="346.013" cy="27.238" rx="1.98731" ry="1.99302" fill="#03EECA"/>
<ellipse cx="52.3325" cy="102.973" rx="1.98731" ry="1.99302" fill="#03EECA"/>
<ellipse cx="144.632" cy="102.973" rx="1.98731" ry="1.99302" fill="#03EECA"/>
<ellipse cx="52.3325" cy="27.238" rx="1.98731" ry="1.99302" fill="#03EECA"/>
<ellipse cx="144.632" cy="27.238" rx="1.98731" ry="1.99302" fill="#03EECA"/>
<ellipse cx="10.3781" cy="102.973" rx="1.98731" ry="1.99302" fill="#03EECA"/>
<ellipse cx="102.678" cy="102.973" rx="1.98731" ry="1.99302" fill="#03EECA"/>
<ellipse cx="10.3781" cy="27.238" rx="1.98731" ry="1.99302" fill="#03EECA"/>
<ellipse cx="102.678" cy="27.238" rx="1.98731" ry="1.99302" fill="#03EECA"/>
<ellipse cx="77.505" cy="102.973" rx="1.98731" ry="1.99302" fill="#03EECA"/>
<ellipse cx="169.805" cy="102.973" rx="1.98731" ry="1.99302" fill="#03EECA"/>
<ellipse cx="203.368" cy="102.973" rx="1.98731" ry="1.99302" fill="#03EECA"/>
<ellipse cx="236.931" cy="102.973" rx="1.98731" ry="1.99302" fill="#03EECA"/>
<ellipse cx="270.495" cy="102.973" rx="1.98731" ry="1.99302" fill="#03EECA"/>
<ellipse cx="304.058" cy="102.973" rx="1.98731" ry="1.99302" fill="#03EECA"/>
<ellipse cx="337.622" cy="102.973" rx="1.98731" ry="1.99302" fill="#03EECA"/>
<ellipse cx="77.505" cy="27.238" rx="1.98731" ry="1.99302" fill="#03EECA"/>
<ellipse cx="169.805" cy="27.238" rx="1.98731" ry="1.99302" fill="#03EECA"/>
<ellipse cx="203.368" cy="27.238" rx="1.98731" ry="1.99302" fill="#03EECA"/>
<ellipse cx="236.931" cy="27.238" rx="1.98731" ry="1.99302" fill="#03EECA"/>
<ellipse cx="270.495" cy="27.238" rx="1.98731" ry="1.99302" fill="#03EECA"/>
<ellipse cx="304.058" cy="27.238" rx="1.98731" ry="1.99302" fill="#03EECA"/>
<ellipse cx="337.622" cy="27.238" rx="1.98731" ry="1.99302" fill="#03EECA"/>
<ellipse cx="43.9415" cy="102.973" rx="1.98731" ry="1.99302" fill="#03EECA"/>
<ellipse cx="136.241" cy="102.973" rx="1.98731" ry="1.99302" fill="#03EECA"/>
<ellipse cx="43.9415" cy="27.238" rx="1.98731" ry="1.99302" fill="#03EECA"/>
<ellipse cx="136.241" cy="27.238" rx="1.98731" ry="1.99302" fill="#03EECA"/>
<ellipse cx="27.1598" cy="102.973" rx="1.98731" ry="1.99302" fill="#03EECA"/>
<ellipse cx="119.459" cy="102.973" rx="1.98731" ry="1.99302" fill="#03EECA"/>
<ellipse cx="27.1598" cy="27.238" rx="1.98731" ry="1.99302" fill="#03EECA"/>
<ellipse cx="119.459" cy="27.238" rx="1.98731" ry="1.99302" fill="#03EECA"/>
<ellipse cx="60.7233" cy="102.973" rx="1.98731" ry="1.99302" fill="#03EECA"/>
<ellipse cx="153.023" cy="102.973" rx="1.98731" ry="1.99302" fill="#03EECA"/>
<ellipse cx="186.586" cy="102.973" rx="1.98731" ry="1.99302" fill="#03EECA"/>
<ellipse cx="220.15" cy="102.973" rx="1.98731" ry="1.99302" fill="#03EECA"/>
<ellipse cx="253.713" cy="102.973" rx="1.98731" ry="1.99302" fill="#03EECA"/>
<ellipse cx="287.277" cy="102.973" rx="1.98731" ry="1.99302" fill="#03EECA"/>
<ellipse cx="320.84" cy="102.973" rx="1.98731" ry="1.99302" fill="#03EECA"/>
<ellipse cx="60.7233" cy="27.238" rx="1.98731" ry="1.99302" fill="#03EECA"/>
<ellipse cx="153.023" cy="27.238" rx="1.98731" ry="1.99302" fill="#03EECA"/>
<ellipse cx="186.586" cy="27.238" rx="1.98731" ry="1.99302" fill="#03EECA"/>
<ellipse cx="220.15" cy="27.238" rx="1.98731" ry="1.99302" fill="#03EECA"/>
<ellipse cx="253.713" cy="27.238" rx="1.98731" ry="1.99302" fill="#03EECA"/>
<ellipse cx="287.277" cy="27.238" rx="1.98731" ry="1.99302" fill="#03EECA"/>
<ellipse cx="320.84" cy="27.238" rx="1.98731" ry="1.99302" fill="#03EECA"/>
<ellipse cx="1.98731" cy="128.218" rx="1.98731" ry="1.99302" fill="#03EECA"/>
<ellipse cx="94.2868" cy="128.218" rx="1.98731" ry="1.99302" fill="#03EECA"/>
<ellipse cx="1.98731" cy="52.4829" rx="1.98731" ry="1.99302" fill="#03EECA"/>
<ellipse cx="94.2868" cy="52.4829" rx="1.98731" ry="1.99302" fill="#03EECA"/>
<ellipse cx="69.1143" cy="128.218" rx="1.98731" ry="1.99302" fill="#03EECA"/>
<ellipse cx="161.414" cy="128.218" rx="1.98731" ry="1.99302" fill="#03EECA"/>
<ellipse cx="194.977" cy="128.218" rx="1.98731" ry="1.99302" fill="#03EECA"/>
<ellipse cx="228.541" cy="128.218" rx="1.98731" ry="1.99302" fill="#03EECA"/>
<ellipse cx="262.104" cy="128.218" rx="1.98731" ry="1.99302" fill="#03EECA"/>
<ellipse cx="295.667" cy="128.218" rx="1.98731" ry="1.99302" fill="#03EECA"/>
<ellipse cx="329.231" cy="128.218" rx="1.98731" ry="1.99302" fill="#03EECA"/>
<ellipse cx="69.1143" cy="52.4829" rx="1.98731" ry="1.99302" fill="#03EECA"/>
<ellipse cx="161.414" cy="52.4829" rx="1.98731" ry="1.99302" fill="#03EECA"/>
<ellipse cx="194.977" cy="52.4829" rx="1.98731" ry="1.99302" fill="#03EECA"/>
<ellipse cx="228.541" cy="52.4829" rx="1.98731" ry="1.99302" fill="#03EECA"/>
<ellipse cx="262.104" cy="52.4829" rx="1.98731" ry="1.99302" fill="#03EECA"/>
<ellipse cx="295.667" cy="52.4829" rx="1.98731" ry="1.99302" fill="#03EECA"/>
<ellipse cx="329.231" cy="52.4829" rx="1.98731" ry="1.99302" fill="#03EECA"/>
<ellipse cx="35.5508" cy="128.218" rx="1.98731" ry="1.99302" fill="#03EECA"/>
<ellipse cx="127.85" cy="128.218" rx="1.98731" ry="1.99302" fill="#03EECA"/>
<ellipse cx="35.5508" cy="52.4829" rx="1.98731" ry="1.99302" fill="#03EECA"/>
<ellipse cx="127.85" cy="52.4829" rx="1.98731" ry="1.99302" fill="#03EECA"/>
<ellipse cx="18.769" cy="128.218" rx="1.98731" ry="1.99302" fill="#03EECA"/>
<ellipse cx="111.068" cy="128.218" rx="1.98731" ry="1.99302" fill="#03EECA"/>
<ellipse cx="18.769" cy="52.4829" rx="1.98731" ry="1.99302" fill="#03EECA"/>
<ellipse cx="111.068" cy="52.4829" rx="1.98731" ry="1.99302" fill="#03EECA"/>
<ellipse cx="85.896" cy="128.218" rx="1.98731" ry="1.99302" fill="#03EECA"/>
<ellipse cx="178.195" cy="128.218" rx="1.98731" ry="1.99302" fill="#03EECA"/>
<ellipse cx="211.759" cy="128.218" rx="1.98731" ry="1.99302" fill="#03EECA"/>
<ellipse cx="245.322" cy="128.218" rx="1.98731" ry="1.99302" fill="#03EECA"/>
<ellipse cx="278.886" cy="128.218" rx="1.98731" ry="1.99302" fill="#03EECA"/>
<ellipse cx="312.449" cy="128.218" rx="1.98731" ry="1.99302" fill="#03EECA"/>
<ellipse cx="346.013" cy="128.218" rx="1.98731" ry="1.99302" fill="#03EECA"/>
<ellipse cx="85.896" cy="52.4829" rx="1.98731" ry="1.99302" fill="#03EECA"/>
<ellipse cx="178.195" cy="52.4829" rx="1.98731" ry="1.99302" fill="#03EECA"/>
<ellipse cx="211.759" cy="52.4829" rx="1.98731" ry="1.99302" fill="#03EECA"/>
<ellipse cx="245.322" cy="52.4829" rx="1.98731" ry="1.99302" fill="#03EECA"/>
<ellipse cx="278.886" cy="52.4829" rx="1.98731" ry="1.99302" fill="#03EECA"/>
<ellipse cx="312.449" cy="52.4829" rx="1.98731" ry="1.99302" fill="#03EECA"/>
<ellipse cx="346.013" cy="52.4829" rx="1.98731" ry="1.99302" fill="#03EECA"/>
<ellipse cx="52.3325" cy="128.218" rx="1.98731" ry="1.99302" fill="#03EECA"/>
<ellipse cx="144.632" cy="128.218" rx="1.98731" ry="1.99302" fill="#03EECA"/>
<ellipse cx="52.3325" cy="52.4829" rx="1.98731" ry="1.99302" fill="#03EECA"/>
<ellipse cx="144.632" cy="52.4829" rx="1.98731" ry="1.99302" fill="#03EECA"/>
<ellipse cx="10.3781" cy="128.218" rx="1.98731" ry="1.99302" fill="#03EECA"/>
<ellipse cx="102.678" cy="128.218" rx="1.98731" ry="1.99302" fill="#03EECA"/>
<ellipse cx="10.3781" cy="52.4829" rx="1.98731" ry="1.99302" fill="#03EECA"/>
<ellipse cx="102.678" cy="52.4829" rx="1.98731" ry="1.99302" fill="#03EECA"/>
<ellipse cx="77.505" cy="128.218" rx="1.98731" ry="1.99302" fill="#03EECA"/>
<ellipse cx="169.805" cy="128.218" rx="1.98731" ry="1.99302" fill="#03EECA"/>
<ellipse cx="203.368" cy="128.218" rx="1.98731" ry="1.99302" fill="#03EECA"/>
<ellipse cx="236.931" cy="128.218" rx="1.98731" ry="1.99302" fill="#03EECA"/>
<ellipse cx="270.495" cy="128.218" rx="1.98731" ry="1.99302" fill="#03EECA"/>
<ellipse cx="304.058" cy="128.218" rx="1.98731" ry="1.99302" fill="#03EECA"/>
<ellipse cx="337.622" cy="128.218" rx="1.98731" ry="1.99302" fill="#03EECA"/>
<ellipse cx="77.505" cy="52.4829" rx="1.98731" ry="1.99302" fill="#03EECA"/>
<ellipse cx="169.805" cy="52.4829" rx="1.98731" ry="1.99302" fill="#03EECA"/>
<ellipse cx="203.368" cy="52.4829" rx="1.98731" ry="1.99302" fill="#03EECA"/>
<ellipse cx="236.931" cy="52.4829" rx="1.98731" ry="1.99302" fill="#03EECA"/>
<ellipse cx="270.495" cy="52.4829" rx="1.98731" ry="1.99302" fill="#03EECA"/>
<ellipse cx="304.058" cy="52.4829" rx="1.98731" ry="1.99302" fill="#03EECA"/>
<ellipse cx="337.622" cy="52.4829" rx="1.98731" ry="1.99302" fill="#03EECA"/>
<ellipse cx="43.9415" cy="128.218" rx="1.98731" ry="1.99302" fill="#03EECA"/>
<ellipse cx="136.241" cy="128.218" rx="1.98731" ry="1.99302" fill="#03EECA"/>
<ellipse cx="43.9415" cy="52.4829" rx="1.98731" ry="1.99302" fill="#03EECA"/>
<ellipse cx="136.241" cy="52.4829" rx="1.98731" ry="1.99302" fill="#03EECA"/>
<ellipse cx="27.1598" cy="128.218" rx="1.98731" ry="1.99302" fill="#03EECA"/>
<ellipse cx="119.459" cy="128.218" rx="1.98731" ry="1.99302" fill="#03EECA"/>
<ellipse cx="27.1598" cy="52.4829" rx="1.98731" ry="1.99302" fill="#03EECA"/>
<ellipse cx="119.459" cy="52.4829" rx="1.98731" ry="1.99302" fill="#03EECA"/>
<ellipse cx="60.7233" cy="128.218" rx="1.98731" ry="1.99302" fill="#03EECA"/>
<ellipse cx="153.023" cy="128.218" rx="1.98731" ry="1.99302" fill="#03EECA"/>
<ellipse cx="186.586" cy="128.218" rx="1.98731" ry="1.99302" fill="#03EECA"/>
<ellipse cx="220.15" cy="128.218" rx="1.98731" ry="1.99302" fill="#03EECA"/>
<ellipse cx="253.713" cy="128.218" rx="1.98731" ry="1.99302" fill="#03EECA"/>
<ellipse cx="287.277" cy="128.218" rx="1.98731" ry="1.99302" fill="#03EECA"/>
<ellipse cx="320.84" cy="128.218" rx="1.98731" ry="1.99302" fill="#03EECA"/>
<ellipse cx="60.7233" cy="52.4829" rx="1.98731" ry="1.99302" fill="#03EECA"/>
<ellipse cx="153.023" cy="52.4829" rx="1.98731" ry="1.99302" fill="#03EECA"/>
<ellipse cx="186.586" cy="52.4829" rx="1.98731" ry="1.99302" fill="#03EECA"/>
<ellipse cx="220.15" cy="52.4829" rx="1.98731" ry="1.99302" fill="#03EECA"/>
<ellipse cx="253.713" cy="52.4829" rx="1.98731" ry="1.99302" fill="#03EECA"/>
<ellipse cx="287.277" cy="52.4829" rx="1.98731" ry="1.99302" fill="#03EECA"/>
<ellipse cx="320.84" cy="52.4829" rx="1.98731" ry="1.99302" fill="#03EECA"/>
<ellipse cx="1.98731" cy="119.803" rx="1.98731" ry="1.99302" fill="#03EECA"/>
<ellipse cx="94.2868" cy="119.803" rx="1.98731" ry="1.99302" fill="#03EECA"/>
<ellipse cx="1.98731" cy="44.0679" rx="1.98731" ry="1.99302" fill="#03EECA"/>
<ellipse cx="94.2868" cy="44.0679" rx="1.98731" ry="1.99302" fill="#03EECA"/>
<ellipse cx="69.1143" cy="119.803" rx="1.98731" ry="1.99302" fill="#03EECA"/>
<ellipse cx="161.414" cy="119.803" rx="1.98731" ry="1.99302" fill="#03EECA"/>
<ellipse cx="194.977" cy="119.803" rx="1.98731" ry="1.99302" fill="#03EECA"/>
<ellipse cx="228.541" cy="119.803" rx="1.98731" ry="1.99302" fill="#03EECA"/>
<ellipse cx="262.104" cy="119.803" rx="1.98731" ry="1.99302" fill="#03EECA"/>
<ellipse cx="295.667" cy="119.803" rx="1.98731" ry="1.99302" fill="#03EECA"/>
<ellipse cx="329.231" cy="119.803" rx="1.98731" ry="1.99302" fill="#03EECA"/>
<ellipse cx="69.1143" cy="44.0679" rx="1.98731" ry="1.99302" fill="#03EECA"/>
<ellipse cx="161.414" cy="44.0679" rx="1.98731" ry="1.99302" fill="#03EECA"/>
<ellipse cx="194.977" cy="44.0679" rx="1.98731" ry="1.99302" fill="#03EECA"/>
<ellipse cx="228.541" cy="44.0679" rx="1.98731" ry="1.99302" fill="#03EECA"/>
<ellipse cx="262.104" cy="44.0679" rx="1.98731" ry="1.99302" fill="#03EECA"/>
<ellipse cx="295.667" cy="44.0679" rx="1.98731" ry="1.99302" fill="#03EECA"/>
<ellipse cx="329.231" cy="44.0679" rx="1.98731" ry="1.99302" fill="#03EECA"/>
<ellipse cx="35.5508" cy="119.803" rx="1.98731" ry="1.99302" fill="#03EECA"/>
<ellipse cx="127.85" cy="119.803" rx="1.98731" ry="1.99302" fill="#03EECA"/>
<ellipse cx="35.5508" cy="44.0679" rx="1.98731" ry="1.99302" fill="#03EECA"/>
<ellipse cx="127.85" cy="44.0679" rx="1.98731" ry="1.99302" fill="#03EECA"/>
<ellipse cx="18.769" cy="119.803" rx="1.98731" ry="1.99302" fill="#03EECA"/>
<ellipse cx="111.068" cy="119.803" rx="1.98731" ry="1.99302" fill="#03EECA"/>
<ellipse cx="18.769" cy="44.0679" rx="1.98731" ry="1.99302" fill="#03EECA"/>
<ellipse cx="111.068" cy="44.0679" rx="1.98731" ry="1.99302" fill="#03EECA"/>
<ellipse cx="85.896" cy="119.803" rx="1.98731" ry="1.99302" fill="#03EECA"/>
<ellipse cx="178.195" cy="119.803" rx="1.98731" ry="1.99302" fill="#03EECA"/>
<ellipse cx="211.759" cy="119.803" rx="1.98731" ry="1.99302" fill="#03EECA"/>
<ellipse cx="245.322" cy="119.803" rx="1.98731" ry="1.99302" fill="#03EECA"/>
<ellipse cx="278.886" cy="119.803" rx="1.98731" ry="1.99302" fill="#03EECA"/>
<ellipse cx="312.449" cy="119.803" rx="1.98731" ry="1.99302" fill="#03EECA"/>
<ellipse cx="346.013" cy="119.803" rx="1.98731" ry="1.99302" fill="#03EECA"/>
<ellipse cx="85.896" cy="44.0679" rx="1.98731" ry="1.99302" fill="#03EECA"/>
<ellipse cx="178.195" cy="44.0679" rx="1.98731" ry="1.99302" fill="#03EECA"/>
<ellipse cx="211.759" cy="44.0679" rx="1.98731" ry="1.99302" fill="#03EECA"/>
<ellipse cx="245.322" cy="44.0679" rx="1.98731" ry="1.99302" fill="#03EECA"/>
<ellipse cx="278.886" cy="44.0679" rx="1.98731" ry="1.99302" fill="#03EECA"/>
<ellipse cx="312.449" cy="44.0679" rx="1.98731" ry="1.99302" fill="#03EECA"/>
<ellipse cx="346.013" cy="44.0679" rx="1.98731" ry="1.99302" fill="#03EECA"/>
<ellipse cx="52.3325" cy="119.803" rx="1.98731" ry="1.99302" fill="#03EECA"/>
<ellipse cx="144.632" cy="119.803" rx="1.98731" ry="1.99302" fill="#03EECA"/>
<ellipse cx="52.3325" cy="44.0679" rx="1.98731" ry="1.99302" fill="#03EECA"/>
<ellipse cx="144.632" cy="44.0679" rx="1.98731" ry="1.99302" fill="#03EECA"/>
<ellipse cx="10.3781" cy="119.803" rx="1.98731" ry="1.99302" fill="#03EECA"/>
<ellipse cx="102.678" cy="119.803" rx="1.98731" ry="1.99302" fill="#03EECA"/>
<ellipse cx="10.3781" cy="44.0679" rx="1.98731" ry="1.99302" fill="#03EECA"/>
<ellipse cx="102.678" cy="44.0679" rx="1.98731" ry="1.99302" fill="#03EECA"/>
<ellipse cx="77.505" cy="119.803" rx="1.98731" ry="1.99302" fill="#03EECA"/>
<ellipse cx="169.805" cy="119.803" rx="1.98731" ry="1.99302" fill="#03EECA"/>
<ellipse cx="203.368" cy="119.803" rx="1.98731" ry="1.99302" fill="#03EECA"/>
<ellipse cx="236.931" cy="119.803" rx="1.98731" ry="1.99302" fill="#03EECA"/>
<ellipse cx="270.495" cy="119.803" rx="1.98731" ry="1.99302" fill="#03EECA"/>
<ellipse cx="304.058" cy="119.803" rx="1.98731" ry="1.99302" fill="#03EECA"/>
<ellipse cx="337.622" cy="119.803" rx="1.98731" ry="1.99302" fill="#03EECA"/>
<ellipse cx="77.505" cy="44.0679" rx="1.98731" ry="1.99302" fill="#03EECA"/>
<ellipse cx="169.805" cy="44.0679" rx="1.98731" ry="1.99302" fill="#03EECA"/>
<ellipse cx="203.368" cy="44.0679" rx="1.98731" ry="1.99302" fill="#03EECA"/>
<ellipse cx="236.931" cy="44.0679" rx="1.98731" ry="1.99302" fill="#03EECA"/>
<ellipse cx="270.495" cy="44.0679" rx="1.98731" ry="1.99302" fill="#03EECA"/>
<ellipse cx="304.058" cy="44.0679" rx="1.98731" ry="1.99302" fill="#03EECA"/>
<ellipse cx="337.622" cy="44.0679" rx="1.98731" ry="1.99302" fill="#03EECA"/>
<ellipse cx="43.9415" cy="119.803" rx="1.98731" ry="1.99302" fill="#03EECA"/>
<ellipse cx="136.241" cy="119.803" rx="1.98731" ry="1.99302" fill="#03EECA"/>
<ellipse cx="43.9415" cy="44.0679" rx="1.98731" ry="1.99302" fill="#03EECA"/>
<ellipse cx="136.241" cy="44.0679" rx="1.98731" ry="1.99302" fill="#03EECA"/>
<ellipse cx="27.1598" cy="119.803" rx="1.98731" ry="1.99302" fill="#03EECA"/>
<ellipse cx="119.459" cy="119.803" rx="1.98731" ry="1.99302" fill="#03EECA"/>
<ellipse cx="27.1598" cy="44.0679" rx="1.98731" ry="1.99302" fill="#03EECA"/>
<ellipse cx="119.459" cy="44.0679" rx="1.98731" ry="1.99302" fill="#03EECA"/>
<ellipse cx="60.7233" cy="119.803" rx="1.98731" ry="1.99302" fill="#03EECA"/>
<ellipse cx="153.023" cy="119.803" rx="1.98731" ry="1.99302" fill="#03EECA"/>
<ellipse cx="186.586" cy="119.803" rx="1.98731" ry="1.99302" fill="#03EECA"/>
<ellipse cx="220.15" cy="119.803" rx="1.98731" ry="1.99302" fill="#03EECA"/>
<ellipse cx="253.713" cy="119.803" rx="1.98731" ry="1.99302" fill="#03EECA"/>
<ellipse cx="287.277" cy="119.803" rx="1.98731" ry="1.99302" fill="#03EECA"/>
<ellipse cx="320.84" cy="119.803" rx="1.98731" ry="1.99302" fill="#03EECA"/>
<ellipse cx="60.7233" cy="44.0679" rx="1.98731" ry="1.99302" fill="#03EECA"/>
<ellipse cx="153.023" cy="44.0679" rx="1.98731" ry="1.99302" fill="#03EECA"/>
<ellipse cx="186.586" cy="44.0679" rx="1.98731" ry="1.99302" fill="#03EECA"/>
<ellipse cx="220.15" cy="44.0679" rx="1.98731" ry="1.99302" fill="#03EECA"/>
<ellipse cx="253.713" cy="44.0679" rx="1.98731" ry="1.99302" fill="#03EECA"/>
<ellipse cx="287.277" cy="44.0679" rx="1.98731" ry="1.99302" fill="#03EECA"/>
<ellipse cx="320.84" cy="44.0679" rx="1.98731" ry="1.99302" fill="#03EECA"/>
<ellipse cx="1.98731" cy="145.048" rx="1.98731" ry="1.99302" fill="#03EECA"/>
<ellipse cx="1.98731" cy="161.878" rx="1.98731" ry="1.99302" fill="#03EECA"/>
<ellipse cx="1.98731" cy="178.708" rx="1.98731" ry="1.99302" fill="#03EECA"/>
<ellipse cx="1.98731" cy="195.537" rx="1.98731" ry="1.99302" fill="#03EECA"/>
<ellipse cx="94.2868" cy="145.048" rx="1.98731" ry="1.99302" fill="#03EECA"/>
<ellipse cx="94.2868" cy="161.878" rx="1.98731" ry="1.99302" fill="#03EECA"/>
<ellipse cx="94.2868" cy="178.708" rx="1.98731" ry="1.99302" fill="#03EECA"/>
<ellipse cx="94.2868" cy="195.537" rx="1.98731" ry="1.99302" fill="#03EECA"/>
<ellipse cx="1.98731" cy="69.3128" rx="1.98731" ry="1.99302" fill="#03EECA"/>
<ellipse cx="94.2868" cy="69.3128" rx="1.98731" ry="1.99302" fill="#03EECA"/>
<ellipse cx="69.1143" cy="145.048" rx="1.98731" ry="1.99302" fill="#03EECA"/>
<ellipse cx="69.1143" cy="161.878" rx="1.98731" ry="1.99302" fill="#03EECA"/>
<ellipse cx="69.1143" cy="178.708" rx="1.98731" ry="1.99302" fill="#03EECA"/>
<ellipse cx="69.1143" cy="195.537" rx="1.98731" ry="1.99302" fill="#03EECA"/>
<ellipse cx="161.414" cy="145.048" rx="1.98731" ry="1.99302" fill="#03EECA"/>
<ellipse cx="161.414" cy="161.878" rx="1.98731" ry="1.99302" fill="#03EECA"/>
<ellipse cx="161.414" cy="178.708" rx="1.98731" ry="1.99302" fill="#03EECA"/>
<ellipse cx="161.414" cy="195.537" rx="1.98731" ry="1.99302" fill="#03EECA"/>
<ellipse cx="194.977" cy="145.048" rx="1.98731" ry="1.99302" fill="#03EECA"/>
<ellipse cx="194.977" cy="161.878" rx="1.98731" ry="1.99302" fill="#03EECA"/>
<ellipse cx="194.977" cy="178.708" rx="1.98731" ry="1.99302" fill="#03EECA"/>
<ellipse cx="194.977" cy="195.537" rx="1.98731" ry="1.99302" fill="#03EECA"/>
<ellipse cx="228.541" cy="145.048" rx="1.98731" ry="1.99302" fill="#03EECA"/>
<ellipse cx="228.541" cy="161.878" rx="1.98731" ry="1.99302" fill="#03EECA"/>
<ellipse cx="228.541" cy="178.708" rx="1.98731" ry="1.99302" fill="#03EECA"/>
<ellipse cx="228.541" cy="195.537" rx="1.98731" ry="1.99302" fill="#03EECA"/>
<ellipse cx="262.104" cy="145.048" rx="1.98731" ry="1.99302" fill="#03EECA"/>
<ellipse cx="262.104" cy="161.878" rx="1.98731" ry="1.99302" fill="#03EECA"/>
<ellipse cx="262.104" cy="178.708" rx="1.98731" ry="1.99302" fill="#03EECA"/>
<ellipse cx="262.104" cy="195.537" rx="1.98731" ry="1.99302" fill="#03EECA"/>
<ellipse cx="295.667" cy="145.048" rx="1.98731" ry="1.99302" fill="#03EECA"/>
<ellipse cx="295.667" cy="161.878" rx="1.98731" ry="1.99302" fill="#03EECA"/>
<ellipse cx="295.667" cy="178.708" rx="1.98731" ry="1.99302" fill="#03EECA"/>
<ellipse cx="295.667" cy="195.537" rx="1.98731" ry="1.99302" fill="#03EECA"/>
<ellipse cx="329.231" cy="145.048" rx="1.98731" ry="1.99302" fill="#03EECA"/>
<ellipse cx="329.231" cy="161.878" rx="1.98731" ry="1.99302" fill="#03EECA"/>
<ellipse cx="329.231" cy="178.708" rx="1.98731" ry="1.99302" fill="#03EECA"/>
<ellipse cx="329.231" cy="195.537" rx="1.98731" ry="1.99302" fill="#03EECA"/>
<ellipse cx="69.1143" cy="69.3128" rx="1.98731" ry="1.99302" fill="#03EECA"/>
<ellipse cx="161.414" cy="69.3128" rx="1.98731" ry="1.99302" fill="#03EECA"/>
<ellipse cx="194.977" cy="69.3128" rx="1.98731" ry="1.99302" fill="#03EECA"/>
<ellipse cx="228.541" cy="69.3128" rx="1.98731" ry="1.99302" fill="#03EECA"/>
<ellipse cx="262.104" cy="69.3128" rx="1.98731" ry="1.99302" fill="#03EECA"/>
<ellipse cx="295.667" cy="69.3128" rx="1.98731" ry="1.99302" fill="#03EECA"/>
<ellipse cx="329.231" cy="69.3128" rx="1.98731" ry="1.99302" fill="#03EECA"/>
<ellipse cx="35.5508" cy="145.048" rx="1.98731" ry="1.99302" fill="#03EECA"/>
<ellipse cx="35.5508" cy="161.878" rx="1.98731" ry="1.99302" fill="#03EECA"/>
<ellipse cx="35.5508" cy="178.708" rx="1.98731" ry="1.99302" fill="#03EECA"/>
<ellipse cx="35.5508" cy="195.537" rx="1.98731" ry="1.99302" fill="#03EECA"/>
<ellipse cx="127.85" cy="145.048" rx="1.98731" ry="1.99302" fill="#03EECA"/>
<ellipse cx="127.85" cy="161.878" rx="1.98731" ry="1.99302" fill="#03EECA"/>
<ellipse cx="127.85" cy="178.708" rx="1.98731" ry="1.99302" fill="#03EECA"/>
<ellipse cx="127.85" cy="195.537" rx="1.98731" ry="1.99302" fill="#03EECA"/>
<ellipse cx="35.5508" cy="69.3128" rx="1.98731" ry="1.99302" fill="#03EECA"/>
<ellipse cx="127.85" cy="69.3128" rx="1.98731" ry="1.99302" fill="#03EECA"/>
<ellipse cx="18.769" cy="145.048" rx="1.98731" ry="1.99302" fill="#03EECA"/>
<ellipse cx="18.769" cy="161.878" rx="1.98731" ry="1.99302" fill="#03EECA"/>
<ellipse cx="18.769" cy="178.708" rx="1.98731" ry="1.99302" fill="#03EECA"/>
<ellipse cx="18.769" cy="195.537" rx="1.98731" ry="1.99302" fill="#03EECA"/>
<ellipse cx="111.068" cy="145.048" rx="1.98731" ry="1.99302" fill="#03EECA"/>
<ellipse cx="111.068" cy="161.878" rx="1.98731" ry="1.99302" fill="#03EECA"/>
<ellipse cx="111.068" cy="178.708" rx="1.98731" ry="1.99302" fill="#03EECA"/>
<ellipse cx="111.068" cy="195.537" rx="1.98731" ry="1.99302" fill="#03EECA"/>
<ellipse cx="18.769" cy="69.3128" rx="1.98731" ry="1.99302" fill="#03EECA"/>
<ellipse cx="111.068" cy="69.3128" rx="1.98731" ry="1.99302" fill="#03EECA"/>
<ellipse cx="85.896" cy="145.048" rx="1.98731" ry="1.99302" fill="#03EECA"/>
<ellipse cx="85.896" cy="161.878" rx="1.98731" ry="1.99302" fill="#03EECA"/>
<ellipse cx="85.896" cy="178.708" rx="1.98731" ry="1.99302" fill="#03EECA"/>
<ellipse cx="85.896" cy="195.537" rx="1.98731" ry="1.99302" fill="#03EECA"/>
<ellipse cx="178.195" cy="145.048" rx="1.98731" ry="1.99302" fill="#03EECA"/>
<ellipse cx="178.195" cy="161.878" rx="1.98731" ry="1.99302" fill="#03EECA"/>
<ellipse cx="178.195" cy="178.708" rx="1.98731" ry="1.99302" fill="#03EECA"/>
<ellipse cx="178.195" cy="195.537" rx="1.98731" ry="1.99302" fill="#03EECA"/>
<ellipse cx="211.759" cy="145.048" rx="1.98731" ry="1.99302" fill="#03EECA"/>
<ellipse cx="211.759" cy="161.878" rx="1.98731" ry="1.99302" fill="#03EECA"/>
<ellipse cx="211.759" cy="178.708" rx="1.98731" ry="1.99302" fill="#03EECA"/>
<ellipse cx="211.759" cy="195.537" rx="1.98731" ry="1.99302" fill="#03EECA"/>
<ellipse cx="245.322" cy="145.048" rx="1.98731" ry="1.99302" fill="#03EECA"/>
<ellipse cx="245.322" cy="161.878" rx="1.98731" ry="1.99302" fill="#03EECA"/>
<ellipse cx="245.322" cy="178.708" rx="1.98731" ry="1.99302" fill="#03EECA"/>
<ellipse cx="245.322" cy="195.537" rx="1.98731" ry="1.99302" fill="#03EECA"/>
<ellipse cx="278.886" cy="145.048" rx="1.98731" ry="1.99302" fill="#03EECA"/>
<ellipse cx="278.886" cy="161.878" rx="1.98731" ry="1.99302" fill="#03EECA"/>
<ellipse cx="278.886" cy="178.708" rx="1.98731" ry="1.99302" fill="#03EECA"/>
<ellipse cx="278.886" cy="195.537" rx="1.98731" ry="1.99302" fill="#03EECA"/>
<ellipse cx="312.449" cy="145.048" rx="1.98731" ry="1.99302" fill="#03EECA"/>
<ellipse cx="312.449" cy="161.878" rx="1.98731" ry="1.99302" fill="#03EECA"/>
<ellipse cx="312.449" cy="178.708" rx="1.98731" ry="1.99302" fill="#03EECA"/>
<ellipse cx="312.449" cy="195.537" rx="1.98731" ry="1.99302" fill="#03EECA"/>
<ellipse cx="346.013" cy="145.048" rx="1.98731" ry="1.99302" fill="#03EECA"/>
<ellipse cx="346.013" cy="161.878" rx="1.98731" ry="1.99302" fill="#03EECA"/>
<ellipse cx="346.013" cy="178.708" rx="1.98731" ry="1.99302" fill="#03EECA"/>
<ellipse cx="346.013" cy="195.537" rx="1.98731" ry="1.99302" fill="#03EECA"/>
<ellipse cx="85.896" cy="69.3128" rx="1.98731" ry="1.99302" fill="#03EECA"/>
<ellipse cx="178.195" cy="69.3128" rx="1.98731" ry="1.99302" fill="#03EECA"/>
<ellipse cx="211.759" cy="69.3128" rx="1.98731" ry="1.99302" fill="#03EECA"/>
<ellipse cx="245.322" cy="69.3128" rx="1.98731" ry="1.99302" fill="#03EECA"/>
<ellipse cx="278.886" cy="69.3128" rx="1.98731" ry="1.99302" fill="#03EECA"/>
<ellipse cx="312.449" cy="69.3128" rx="1.98731" ry="1.99302" fill="#03EECA"/>
<ellipse cx="346.013" cy="69.3128" rx="1.98731" ry="1.99302" fill="#03EECA"/>
<ellipse cx="52.3325" cy="145.048" rx="1.98731" ry="1.99302" fill="#03EECA"/>
<ellipse cx="52.3325" cy="161.878" rx="1.98731" ry="1.99302" fill="#03EECA"/>
<ellipse cx="52.3325" cy="178.708" rx="1.98731" ry="1.99302" fill="#03EECA"/>
<ellipse cx="52.3325" cy="195.537" rx="1.98731" ry="1.99302" fill="#03EECA"/>
<ellipse cx="144.632" cy="145.048" rx="1.98731" ry="1.99302" fill="#03EECA"/>
<ellipse cx="144.632" cy="161.878" rx="1.98731" ry="1.99302" fill="#03EECA"/>
<ellipse cx="144.632" cy="178.708" rx="1.98731" ry="1.99302" fill="#03EECA"/>
<ellipse cx="144.632" cy="195.537" rx="1.98731" ry="1.99302" fill="#03EECA"/>
<ellipse cx="52.3325" cy="69.3128" rx="1.98731" ry="1.99302" fill="#03EECA"/>
<ellipse cx="144.632" cy="69.3128" rx="1.98731" ry="1.99302" fill="#03EECA"/>
<ellipse cx="10.3781" cy="145.048" rx="1.98731" ry="1.99302" fill="#03EECA"/>
<ellipse cx="10.3781" cy="161.878" rx="1.98731" ry="1.99302" fill="#03EECA"/>
<ellipse cx="10.3781" cy="178.708" rx="1.98731" ry="1.99302" fill="#03EECA"/>
<ellipse cx="10.3781" cy="195.537" rx="1.98731" ry="1.99302" fill="#03EECA"/>
<ellipse cx="102.678" cy="145.048" rx="1.98731" ry="1.99302" fill="#03EECA"/>
<ellipse cx="102.678" cy="161.878" rx="1.98731" ry="1.99302" fill="#03EECA"/>
<ellipse cx="102.678" cy="178.708" rx="1.98731" ry="1.99302" fill="#03EECA"/>
<ellipse cx="102.678" cy="195.537" rx="1.98731" ry="1.99302" fill="#03EECA"/>
<ellipse cx="10.3781" cy="69.3128" rx="1.98731" ry="1.99302" fill="#03EECA"/>
<ellipse cx="102.678" cy="69.3128" rx="1.98731" ry="1.99302" fill="#03EECA"/>
<ellipse cx="77.505" cy="145.048" rx="1.98731" ry="1.99302" fill="#03EECA"/>
<ellipse cx="77.505" cy="161.878" rx="1.98731" ry="1.99302" fill="#03EECA"/>
<ellipse cx="77.505" cy="178.708" rx="1.98731" ry="1.99302" fill="#03EECA"/>
<ellipse cx="77.505" cy="195.537" rx="1.98731" ry="1.99302" fill="#03EECA"/>
<ellipse cx="169.805" cy="145.048" rx="1.98731" ry="1.99302" fill="#03EECA"/>
<ellipse cx="169.805" cy="161.878" rx="1.98731" ry="1.99302" fill="#03EECA"/>
<ellipse cx="169.805" cy="178.708" rx="1.98731" ry="1.99302" fill="#03EECA"/>
<ellipse cx="169.805" cy="195.537" rx="1.98731" ry="1.99302" fill="#03EECA"/>
<ellipse cx="203.368" cy="145.048" rx="1.98731" ry="1.99302" fill="#03EECA"/>
<ellipse cx="203.368" cy="161.878" rx="1.98731" ry="1.99302" fill="#03EECA"/>
<ellipse cx="203.368" cy="178.708" rx="1.98731" ry="1.99302" fill="#03EECA"/>
<ellipse cx="203.368" cy="195.537" rx="1.98731" ry="1.99302" fill="#03EECA"/>
<ellipse cx="236.931" cy="145.048" rx="1.98731" ry="1.99302" fill="#03EECA"/>
<ellipse cx="236.931" cy="161.878" rx="1.98731" ry="1.99302" fill="#03EECA"/>
<ellipse cx="236.931" cy="178.708" rx="1.98731" ry="1.99302" fill="#03EECA"/>
<ellipse cx="236.931" cy="195.537" rx="1.98731" ry="1.99302" fill="#03EECA"/>
<ellipse cx="270.495" cy="145.048" rx="1.98731" ry="1.99302" fill="#03EECA"/>
<ellipse cx="270.495" cy="161.878" rx="1.98731" ry="1.99302" fill="#03EECA"/>
<ellipse cx="270.495" cy="178.708" rx="1.98731" ry="1.99302" fill="#03EECA"/>
<ellipse cx="270.495" cy="195.537" rx="1.98731" ry="1.99302" fill="#03EECA"/>
<ellipse cx="304.058" cy="145.048" rx="1.98731" ry="1.99302" fill="#03EECA"/>
<ellipse cx="304.058" cy="161.878" rx="1.98731" ry="1.99302" fill="#03EECA"/>
<ellipse cx="304.058" cy="178.708" rx="1.98731" ry="1.99302" fill="#03EECA"/>
<ellipse cx="304.058" cy="195.537" rx="1.98731" ry="1.99302" fill="#03EECA"/>
<ellipse cx="337.622" cy="145.048" rx="1.98731" ry="1.99302" fill="#03EECA"/>
<ellipse cx="337.622" cy="161.878" rx="1.98731" ry="1.99302" fill="#03EECA"/>
<ellipse cx="337.622" cy="178.708" rx="1.98731" ry="1.99302" fill="#03EECA"/>
<ellipse cx="337.622" cy="195.537" rx="1.98731" ry="1.99302" fill="#03EECA"/>
<ellipse cx="77.505" cy="69.3128" rx="1.98731" ry="1.99302" fill="#03EECA"/>
<ellipse cx="169.805" cy="69.3128" rx="1.98731" ry="1.99302" fill="#03EECA"/>
<ellipse cx="203.368" cy="69.3128" rx="1.98731" ry="1.99302" fill="#03EECA"/>
<ellipse cx="236.931" cy="69.3128" rx="1.98731" ry="1.99302" fill="#03EECA"/>
<ellipse cx="270.495" cy="69.3128" rx="1.98731" ry="1.99302" fill="#03EECA"/>
<ellipse cx="304.058" cy="69.3128" rx="1.98731" ry="1.99302" fill="#03EECA"/>
<ellipse cx="337.622" cy="69.3128" rx="1.98731" ry="1.99302" fill="#03EECA"/>
<ellipse cx="43.9415" cy="145.048" rx="1.98731" ry="1.99302" fill="#03EECA"/>
<ellipse cx="43.9415" cy="161.878" rx="1.98731" ry="1.99302" fill="#03EECA"/>
<ellipse cx="43.9415" cy="178.708" rx="1.98731" ry="1.99302" fill="#03EECA"/>
<ellipse cx="43.9415" cy="195.537" rx="1.98731" ry="1.99302" fill="#03EECA"/>
<ellipse cx="136.241" cy="145.048" rx="1.98731" ry="1.99302" fill="#03EECA"/>
<ellipse cx="136.241" cy="161.878" rx="1.98731" ry="1.99302" fill="#03EECA"/>
<ellipse cx="136.241" cy="178.708" rx="1.98731" ry="1.99302" fill="#03EECA"/>
<ellipse cx="136.241" cy="195.537" rx="1.98731" ry="1.99302" fill="#03EECA"/>
<ellipse cx="43.9415" cy="69.3128" rx="1.98731" ry="1.99302" fill="#03EECA"/>
<ellipse cx="136.241" cy="69.3128" rx="1.98731" ry="1.99302" fill="#03EECA"/>
<ellipse cx="27.1598" cy="145.048" rx="1.98731" ry="1.99302" fill="#03EECA"/>
<ellipse cx="27.1598" cy="161.878" rx="1.98731" ry="1.99302" fill="#03EECA"/>
<ellipse cx="27.1598" cy="178.708" rx="1.98731" ry="1.99302" fill="#03EECA"/>
<ellipse cx="27.1598" cy="195.537" rx="1.98731" ry="1.99302" fill="#03EECA"/>
<ellipse cx="119.459" cy="145.048" rx="1.98731" ry="1.99302" fill="#03EECA"/>
<ellipse cx="119.459" cy="161.878" rx="1.98731" ry="1.99302" fill="#03EECA"/>
<ellipse cx="119.459" cy="178.708" rx="1.98731" ry="1.99302" fill="#03EECA"/>
<ellipse cx="119.459" cy="195.537" rx="1.98731" ry="1.99302" fill="#03EECA"/>
<ellipse cx="27.1598" cy="69.3128" rx="1.98731" ry="1.99302" fill="#03EECA"/>
<ellipse cx="119.459" cy="69.3128" rx="1.98731" ry="1.99302" fill="#03EECA"/>
<ellipse cx="60.7233" cy="145.048" rx="1.98731" ry="1.99302" fill="#03EECA"/>
<ellipse cx="60.7233" cy="161.878" rx="1.98731" ry="1.99302" fill="#03EECA"/>
<ellipse cx="60.7233" cy="178.708" rx="1.98731" ry="1.99302" fill="#03EECA"/>
<ellipse cx="60.7233" cy="195.537" rx="1.98731" ry="1.99302" fill="#03EECA"/>
<ellipse cx="153.023" cy="145.048" rx="1.98731" ry="1.99302" fill="#03EECA"/>
<ellipse cx="153.023" cy="161.878" rx="1.98731" ry="1.99302" fill="#03EECA"/>
<ellipse cx="153.023" cy="178.708" rx="1.98731" ry="1.99302" fill="#03EECA"/>
<ellipse cx="153.023" cy="195.537" rx="1.98731" ry="1.99302" fill="#03EECA"/>
<ellipse cx="186.586" cy="145.048" rx="1.98731" ry="1.99302" fill="#03EECA"/>
<ellipse cx="186.586" cy="161.878" rx="1.98731" ry="1.99302" fill="#03EECA"/>
<ellipse cx="186.586" cy="178.708" rx="1.98731" ry="1.99302" fill="#03EECA"/>
<ellipse cx="186.586" cy="195.537" rx="1.98731" ry="1.99302" fill="#03EECA"/>
<ellipse cx="220.15" cy="145.048" rx="1.98731" ry="1.99302" fill="#03EECA"/>
<ellipse cx="220.15" cy="161.878" rx="1.98731" ry="1.99302" fill="#03EECA"/>
<ellipse cx="220.15" cy="178.708" rx="1.98731" ry="1.99302" fill="#03EECA"/>
<ellipse cx="220.15" cy="195.537" rx="1.98731" ry="1.99302" fill="#03EECA"/>
<ellipse cx="253.713" cy="145.048" rx="1.98731" ry="1.99302" fill="#03EECA"/>
<ellipse cx="253.713" cy="161.878" rx="1.98731" ry="1.99302" fill="#03EECA"/>
<ellipse cx="253.713" cy="178.708" rx="1.98731" ry="1.99302" fill="#03EECA"/>
<ellipse cx="253.713" cy="195.537" rx="1.98731" ry="1.99302" fill="#03EECA"/>
<ellipse cx="287.277" cy="145.048" rx="1.98731" ry="1.99302" fill="#03EECA"/>
<ellipse cx="287.277" cy="161.878" rx="1.98731" ry="1.99302" fill="#03EECA"/>
<ellipse cx="287.277" cy="178.708" rx="1.98731" ry="1.99302" fill="#03EECA"/>
<ellipse cx="287.277" cy="195.537" rx="1.98731" ry="1.99302" fill="#03EECA"/>
<ellipse cx="320.84" cy="145.048" rx="1.98731" ry="1.99302" fill="#03EECA"/>
<ellipse cx="320.84" cy="161.878" rx="1.98731" ry="1.99302" fill="#03EECA"/>
<ellipse cx="320.84" cy="178.708" rx="1.98731" ry="1.99302" fill="#03EECA"/>
<ellipse cx="320.84" cy="195.537" rx="1.98731" ry="1.99302" fill="#03EECA"/>
<ellipse cx="60.7233" cy="69.3128" rx="1.98731" ry="1.99302" fill="#03EECA"/>
<ellipse cx="153.023" cy="69.3128" rx="1.98731" ry="1.99302" fill="#03EECA"/>
<ellipse cx="186.586" cy="69.3128" rx="1.98731" ry="1.99302" fill="#03EECA"/>
<ellipse cx="220.15" cy="69.3128" rx="1.98731" ry="1.99302" fill="#03EECA"/>
<ellipse cx="253.713" cy="69.3128" rx="1.98731" ry="1.99302" fill="#03EECA"/>
<ellipse cx="287.277" cy="69.3128" rx="1.98731" ry="1.99302" fill="#03EECA"/>
<ellipse cx="320.84" cy="69.3128" rx="1.98731" ry="1.99302" fill="#03EECA"/>
</svg>
