<svg width="1576" height="494" viewBox="0 0 1576 494" fill="none" xmlns="http://www.w3.org/2000/svg">
<circle cx="9" cy="29" r="9" fill="#03EECA"/>
<circle cx="427" cy="29" r="9" fill="#03EECA"/>
<circle cx="313" cy="29" r="9" fill="#03EECA"/>
<circle cx="731" cy="29" r="9" fill="#03EECA"/>
<circle cx="883" cy="29" r="9" fill="#03EECA"/>
<circle cx="1035" cy="29" r="9" fill="#03EECA"/>
<circle cx="1187" cy="29" r="9" fill="#03EECA"/>
<circle cx="1339" cy="29" r="9" fill="#03EECA"/>
<circle cx="1491" cy="29" r="9" fill="#03EECA"/>
<circle cx="161" cy="29" r="9" fill="#03EECA"/>
<circle cx="579" cy="29" r="9" fill="#03EECA"/>
<circle cx="85" cy="29" r="9" fill="#03EECA"/>
<circle cx="503" cy="29" r="9" fill="#03EECA"/>
<circle cx="389" cy="29" r="9" fill="#03EECA"/>
<circle cx="807" cy="29" r="9" fill="#03EECA"/>
<circle cx="959" cy="29" r="9" fill="#03EECA"/>
<circle cx="1111" cy="29" r="9" fill="#03EECA"/>
<circle cx="1263" cy="29" r="9" fill="#03EECA"/>
<circle cx="1415" cy="29" r="9" fill="#03EECA"/>
<circle cx="1567" cy="29" r="9" fill="#03EECA"/>
<circle cx="237" cy="29" r="9" fill="#03EECA"/>
<circle cx="655" cy="29" r="9" fill="#03EECA"/>
<circle cx="47" cy="29" r="9" fill="#03EECA"/>
<circle cx="465" cy="29" r="9" fill="#03EECA"/>
<circle cx="351" cy="29" r="9" fill="#03EECA"/>
<circle cx="769" cy="29" r="9" fill="#03EECA"/>
<circle cx="921" cy="29" r="9" fill="#03EECA"/>
<circle cx="1073" cy="29" r="9" fill="#03EECA"/>
<circle cx="1225" cy="29" r="9" fill="#03EECA"/>
<circle cx="1377" cy="29" r="9" fill="#03EECA"/>
<circle cx="1529" cy="29" r="9" fill="#03EECA"/>
<circle cx="199" cy="29" r="9" fill="#03EECA"/>
<circle cx="617" cy="29" r="9" fill="#03EECA"/>
<circle cx="123" cy="29" r="9" fill="#03EECA"/>
<circle cx="541" cy="29" r="9" fill="#03EECA"/>
<circle cx="275" cy="29" r="9" fill="#03EECA"/>
<circle cx="693" cy="29" r="9" fill="#03EECA"/>
<circle cx="845" cy="29" r="9" fill="#03EECA"/>
<circle cx="997" cy="29" r="9" fill="#03EECA"/>
<circle cx="1149" cy="29" r="9" fill="#03EECA"/>
<circle cx="1301" cy="29" r="9" fill="#03EECA"/>
<circle cx="1453" cy="29" r="9" fill="#03EECA"/>
<circle cx="9" cy="105" r="9" fill="#03EECA"/>
<circle cx="427" cy="105" r="9" fill="#03EECA"/>
<circle cx="313" cy="105" r="9" fill="#03EECA"/>
<circle cx="731" cy="105" r="9" fill="#03EECA"/>
<circle cx="883" cy="105" r="9" fill="#03EECA"/>
<circle cx="1035" cy="105" r="9" fill="#03EECA"/>
<circle cx="1187" cy="105" r="9" fill="#03EECA"/>
<circle cx="1339" cy="105" r="9" fill="#03EECA"/>
<circle cx="1491" cy="105" r="9" fill="#03EECA"/>
<circle cx="161" cy="105" r="9" fill="#03EECA"/>
<circle cx="579" cy="105" r="9" fill="#03EECA"/>
<circle cx="85" cy="105" r="9" fill="#03EECA"/>
<circle cx="503" cy="105" r="9" fill="#03EECA"/>
<circle cx="389" cy="105" r="9" fill="#03EECA"/>
<circle cx="807" cy="105" r="9" fill="#03EECA"/>
<circle cx="959" cy="105" r="9" fill="#03EECA"/>
<circle cx="1111" cy="105" r="9" fill="#03EECA"/>
<circle cx="1263" cy="105" r="9" fill="#03EECA"/>
<circle cx="1415" cy="105" r="9" fill="#03EECA"/>
<circle cx="1567" cy="105" r="9" fill="#03EECA"/>
<circle cx="237" cy="105" r="9" fill="#03EECA"/>
<circle cx="655" cy="105" r="9" fill="#03EECA"/>
<circle cx="47" cy="105" r="9" fill="#03EECA"/>
<circle cx="465" cy="105" r="9" fill="#03EECA"/>
<circle cx="351" cy="105" r="9" fill="#03EECA"/>
<circle cx="769" cy="105" r="9" fill="#03EECA"/>
<circle cx="921" cy="105" r="9" fill="#03EECA"/>
<circle cx="1073" cy="105" r="9" fill="#03EECA"/>
<circle cx="1225" cy="105" r="9" fill="#03EECA"/>
<circle cx="1377" cy="105" r="9" fill="#03EECA"/>
<circle cx="1529" cy="105" r="9" fill="#03EECA"/>
<circle cx="199" cy="105" r="9" fill="#03EECA"/>
<circle cx="617" cy="105" r="9" fill="#03EECA"/>
<circle cx="123" cy="105" r="9" fill="#03EECA"/>
<circle cx="541" cy="105" r="9" fill="#03EECA"/>
<circle cx="275" cy="105" r="9" fill="#03EECA"/>
<circle cx="693" cy="105" r="9" fill="#03EECA"/>
<circle cx="845" cy="105" r="9" fill="#03EECA"/>
<circle cx="997" cy="105" r="9" fill="#03EECA"/>
<circle cx="1149" cy="105" r="9" fill="#03EECA"/>
<circle cx="1301" cy="105" r="9" fill="#03EECA"/>
<circle cx="1453" cy="105" r="9" fill="#03EECA"/>
<circle cx="9" cy="219" r="9" fill="#03EECA"/>
<circle cx="9" cy="295" r="9" fill="#03EECA"/>
<circle cx="9" cy="371" r="9" fill="#03EECA"/>
<circle cx="9" cy="447" r="9" fill="#03EECA"/>
<circle cx="427" cy="219" r="9" fill="#03EECA"/>
<circle cx="427" cy="295" r="9" fill="#03EECA"/>
<circle cx="427" cy="371" r="9" fill="#03EECA"/>
<circle cx="427" cy="447" r="9" fill="#03EECA"/>
<circle cx="313" cy="219" r="9" fill="#03EECA"/>
<circle cx="313" cy="295" r="9" fill="#03EECA"/>
<circle cx="313" cy="371" r="9" fill="#03EECA"/>
<circle cx="313" cy="447" r="9" fill="#03EECA"/>
<circle cx="731" cy="219" r="9" fill="#03EECA"/>
<circle cx="731" cy="295" r="9" fill="#03EECA"/>
<circle cx="731" cy="371" r="9" fill="#03EECA"/>
<circle cx="731" cy="447" r="9" fill="#03EECA"/>
<circle cx="883" cy="219" r="9" fill="#03EECA"/>
<circle cx="883" cy="295" r="9" fill="#03EECA"/>
<circle cx="883" cy="371" r="9" fill="#03EECA"/>
<circle cx="883" cy="447" r="9" fill="#03EECA"/>
<circle cx="1035" cy="219" r="9" fill="#03EECA"/>
<circle cx="1035" cy="295" r="9" fill="#03EECA"/>
<circle cx="1035" cy="371" r="9" fill="#03EECA"/>
<circle cx="1035" cy="447" r="9" fill="#03EECA"/>
<circle cx="1187" cy="219" r="9" fill="#03EECA"/>
<circle cx="1187" cy="295" r="9" fill="#03EECA"/>
<circle cx="1187" cy="371" r="9" fill="#03EECA"/>
<circle cx="1187" cy="447" r="9" fill="#03EECA"/>
<circle cx="1339" cy="219" r="9" fill="#03EECA"/>
<circle cx="1339" cy="295" r="9" fill="#03EECA"/>
<circle cx="1339" cy="371" r="9" fill="#03EECA"/>
<circle cx="1339" cy="447" r="9" fill="#03EECA"/>
<circle cx="1491" cy="219" r="9" fill="#03EECA"/>
<circle cx="1491" cy="295" r="9" fill="#03EECA"/>
<circle cx="1491" cy="371" r="9" fill="#03EECA"/>
<circle cx="1491" cy="447" r="9" fill="#03EECA"/>
<circle cx="161" cy="219" r="9" fill="#03EECA"/>
<circle cx="161" cy="295" r="9" fill="#03EECA"/>
<circle cx="161" cy="371" r="9" fill="#03EECA"/>
<circle cx="161" cy="447" r="9" fill="#03EECA"/>
<circle cx="579" cy="219" r="9" fill="#03EECA"/>
<circle cx="579" cy="295" r="9" fill="#03EECA"/>
<circle cx="579" cy="371" r="9" fill="#03EECA"/>
<circle cx="579" cy="447" r="9" fill="#03EECA"/>
<circle cx="85" cy="219" r="9" fill="#03EECA"/>
<circle cx="85" cy="295" r="9" fill="#03EECA"/>
<circle cx="85" cy="371" r="9" fill="#03EECA"/>
<circle cx="85" cy="447" r="9" fill="#03EECA"/>
<circle cx="503" cy="219" r="9" fill="#03EECA"/>
<circle cx="503" cy="295" r="9" fill="#03EECA"/>
<circle cx="503" cy="371" r="9" fill="#03EECA"/>
<circle cx="503" cy="447" r="9" fill="#03EECA"/>
<circle cx="389" cy="219" r="9" fill="#03EECA"/>
<circle cx="389" cy="295" r="9" fill="#03EECA"/>
<circle cx="389" cy="371" r="9" fill="#03EECA"/>
<circle cx="389" cy="447" r="9" fill="#03EECA"/>
<circle cx="807" cy="219" r="9" fill="#03EECA"/>
<circle cx="807" cy="295" r="9" fill="#03EECA"/>
<circle cx="807" cy="371" r="9" fill="#03EECA"/>
<circle cx="807" cy="447" r="9" fill="#03EECA"/>
<circle cx="959" cy="219" r="9" fill="#03EECA"/>
<circle cx="959" cy="295" r="9" fill="#03EECA"/>
<circle cx="959" cy="371" r="9" fill="#03EECA"/>
<circle cx="959" cy="447" r="9" fill="#03EECA"/>
<circle cx="1111" cy="219" r="9" fill="#03EECA"/>
<circle cx="1111" cy="295" r="9" fill="#03EECA"/>
<circle cx="1111" cy="371" r="9" fill="#03EECA"/>
<circle cx="1111" cy="447" r="9" fill="#03EECA"/>
<circle cx="1263" cy="219" r="9" fill="#03EECA"/>
<circle cx="1263" cy="295" r="9" fill="#03EECA"/>
<circle cx="1263" cy="371" r="9" fill="#03EECA"/>
<circle cx="1263" cy="447" r="9" fill="#03EECA"/>
<circle cx="1415" cy="219" r="9" fill="#03EECA"/>
<circle cx="1415" cy="295" r="9" fill="#03EECA"/>
<circle cx="1415" cy="371" r="9" fill="#03EECA"/>
<circle cx="1415" cy="447" r="9" fill="#03EECA"/>
<circle cx="1567" cy="219" r="9" fill="#03EECA"/>
<circle cx="1567" cy="295" r="9" fill="#03EECA"/>
<circle cx="1567" cy="371" r="9" fill="#03EECA"/>
<circle cx="1567" cy="447" r="9" fill="#03EECA"/>
<circle cx="237" cy="219" r="9" fill="#03EECA"/>
<circle cx="237" cy="295" r="9" fill="#03EECA"/>
<circle cx="237" cy="371" r="9" fill="#03EECA"/>
<circle cx="237" cy="447" r="9" fill="#03EECA"/>
<circle cx="655" cy="219" r="9" fill="#03EECA"/>
<circle cx="655" cy="295" r="9" fill="#03EECA"/>
<circle cx="655" cy="371" r="9" fill="#03EECA"/>
<circle cx="655" cy="447" r="9" fill="#03EECA"/>
<circle cx="47" cy="219" r="9" fill="#03EECA"/>
<circle cx="47" cy="295" r="9" fill="#03EECA"/>
<circle cx="47" cy="371" r="9" fill="#03EECA"/>
<circle cx="47" cy="447" r="9" fill="#03EECA"/>
<circle cx="465" cy="219" r="9" fill="#03EECA"/>
<circle cx="465" cy="295" r="9" fill="#03EECA"/>
<circle cx="465" cy="371" r="9" fill="#03EECA"/>
<circle cx="465" cy="447" r="9" fill="#03EECA"/>
<circle cx="351" cy="219" r="9" fill="#03EECA"/>
<circle cx="351" cy="295" r="9" fill="#03EECA"/>
<circle cx="351" cy="371" r="9" fill="#03EECA"/>
<circle cx="351" cy="447" r="9" fill="#03EECA"/>
<circle cx="769" cy="219" r="9" fill="#03EECA"/>
<circle cx="769" cy="295" r="9" fill="#03EECA"/>
<circle cx="769" cy="371" r="9" fill="#03EECA"/>
<circle cx="769" cy="447" r="9" fill="#03EECA"/>
<circle cx="921" cy="219" r="9" fill="#03EECA"/>
<circle cx="921" cy="295" r="9" fill="#03EECA"/>
<circle cx="921" cy="371" r="9" fill="#03EECA"/>
<circle cx="921" cy="447" r="9" fill="#03EECA"/>
<circle cx="1073" cy="219" r="9" fill="#03EECA"/>
<circle cx="1073" cy="295" r="9" fill="#03EECA"/>
<circle cx="1073" cy="371" r="9" fill="#03EECA"/>
<circle cx="1073" cy="447" r="9" fill="#03EECA"/>
<circle cx="1225" cy="219" r="9" fill="#03EECA"/>
<circle cx="1225" cy="295" r="9" fill="#03EECA"/>
<circle cx="1225" cy="371" r="9" fill="#03EECA"/>
<circle cx="1225" cy="447" r="9" fill="#03EECA"/>
<circle cx="1377" cy="219" r="9" fill="#03EECA"/>
<circle cx="1377" cy="295" r="9" fill="#03EECA"/>
<circle cx="1377" cy="371" r="9" fill="#03EECA"/>
<circle cx="1377" cy="447" r="9" fill="#03EECA"/>
<circle cx="1529" cy="219" r="9" fill="#03EECA"/>
<circle cx="1529" cy="295" r="9" fill="#03EECA"/>
<circle cx="1529" cy="371" r="9" fill="#03EECA"/>
<circle cx="1529" cy="447" r="9" fill="#03EECA"/>
<circle cx="199" cy="219" r="9" fill="#03EECA"/>
<circle cx="199" cy="295" r="9" fill="#03EECA"/>
<circle cx="199" cy="371" r="9" fill="#03EECA"/>
<circle cx="199" cy="447" r="9" fill="#03EECA"/>
<circle cx="617" cy="219" r="9" fill="#03EECA"/>
<circle cx="617" cy="295" r="9" fill="#03EECA"/>
<circle cx="617" cy="371" r="9" fill="#03EECA"/>
<circle cx="617" cy="447" r="9" fill="#03EECA"/>
<circle cx="123" cy="219" r="9" fill="#03EECA"/>
<circle cx="123" cy="295" r="9" fill="#03EECA"/>
<circle cx="123" cy="371" r="9" fill="#03EECA"/>
<circle cx="123" cy="447" r="9" fill="#03EECA"/>
<circle cx="541" cy="219" r="9" fill="#03EECA"/>
<circle cx="541" cy="295" r="9" fill="#03EECA"/>
<circle cx="541" cy="371" r="9" fill="#03EECA"/>
<circle cx="541" cy="447" r="9" fill="#03EECA"/>
<circle cx="275" cy="219" r="9" fill="#03EECA"/>
<circle cx="275" cy="295" r="9" fill="#03EECA"/>
<circle cx="275" cy="371" r="9" fill="#03EECA"/>
<circle cx="275" cy="447" r="9" fill="#03EECA"/>
<circle cx="693" cy="219" r="9" fill="#03EECA"/>
<circle cx="693" cy="295" r="9" fill="#03EECA"/>
<circle cx="693" cy="371" r="9" fill="#03EECA"/>
<circle cx="693" cy="447" r="9" fill="#03EECA"/>
<circle cx="845" cy="219" r="9" fill="#03EECA"/>
<circle cx="845" cy="295" r="9" fill="#03EECA"/>
<circle cx="845" cy="371" r="9" fill="#03EECA"/>
<circle cx="845" cy="447" r="9" fill="#03EECA"/>
<circle cx="997" cy="219" r="9" fill="#03EECA"/>
<circle cx="997" cy="295" r="9" fill="#03EECA"/>
<circle cx="997" cy="371" r="9" fill="#03EECA"/>
<circle cx="997" cy="447" r="9" fill="#03EECA"/>
<circle cx="1149" cy="219" r="9" fill="#03EECA"/>
<circle cx="1149" cy="295" r="9" fill="#03EECA"/>
<circle cx="1149" cy="371" r="9" fill="#03EECA"/>
<circle cx="1149" cy="447" r="9" fill="#03EECA"/>
<circle cx="1301" cy="219" r="9" fill="#03EECA"/>
<circle cx="1301" cy="295" r="9" fill="#03EECA"/>
<circle cx="1301" cy="371" r="9" fill="#03EECA"/>
<circle cx="1301" cy="447" r="9" fill="#03EECA"/>
<circle cx="1453" cy="219" r="9" fill="#03EECA"/>
<circle cx="1453" cy="295" r="9" fill="#03EECA"/>
<circle cx="1453" cy="371" r="9" fill="#03EECA"/>
<circle cx="1453" cy="447" r="9" fill="#03EECA"/>
<circle cx="9" cy="67" r="9" fill="#03EECA"/>
<circle cx="427" cy="67" r="9" fill="#03EECA"/>
<circle cx="313" cy="67" r="9" fill="#03EECA"/>
<circle cx="731" cy="67" r="9" fill="#03EECA"/>
<circle cx="883" cy="67" r="9" fill="#03EECA"/>
<circle cx="1035" cy="67" r="9" fill="#03EECA"/>
<circle cx="1187" cy="67" r="9" fill="#03EECA"/>
<circle cx="1339" cy="67" r="9" fill="#03EECA"/>
<circle cx="1491" cy="67" r="9" fill="#03EECA"/>
<circle cx="161" cy="67" r="9" fill="#03EECA"/>
<circle cx="579" cy="67" r="9" fill="#03EECA"/>
<circle cx="85" cy="67" r="9" fill="#03EECA"/>
<circle cx="503" cy="67" r="9" fill="#03EECA"/>
<circle cx="389" cy="67" r="9" fill="#03EECA"/>
<circle cx="807" cy="67" r="9" fill="#03EECA"/>
<circle cx="959" cy="67" r="9" fill="#03EECA"/>
<circle cx="1111" cy="67" r="9" fill="#03EECA"/>
<circle cx="1263" cy="67" r="9" fill="#03EECA"/>
<circle cx="1415" cy="67" r="9" fill="#03EECA"/>
<circle cx="1567" cy="67" r="9" fill="#03EECA"/>
<circle cx="237" cy="67" r="9" fill="#03EECA"/>
<circle cx="655" cy="67" r="9" fill="#03EECA"/>
<circle cx="47" cy="67" r="9" fill="#03EECA"/>
<circle cx="465" cy="67" r="9" fill="#03EECA"/>
<circle cx="351" cy="67" r="9" fill="#03EECA"/>
<circle cx="769" cy="67" r="9" fill="#03EECA"/>
<circle cx="921" cy="67" r="9" fill="#03EECA"/>
<circle cx="1073" cy="67" r="9" fill="#03EECA"/>
<circle cx="1225" cy="67" r="9" fill="#03EECA"/>
<circle cx="1377" cy="67" r="9" fill="#03EECA"/>
<circle cx="1529" cy="67" r="9" fill="#03EECA"/>
<circle cx="199" cy="67" r="9" fill="#03EECA"/>
<circle cx="617" cy="67" r="9" fill="#03EECA"/>
<circle cx="123" cy="67" r="9" fill="#03EECA"/>
<circle cx="541" cy="67" r="9" fill="#03EECA"/>
<circle cx="275" cy="67" r="9" fill="#03EECA"/>
<circle cx="693" cy="67" r="9" fill="#03EECA"/>
<circle cx="845" cy="67" r="9" fill="#03EECA"/>
<circle cx="997" cy="67" r="9" fill="#03EECA"/>
<circle cx="1149" cy="67" r="9" fill="#03EECA"/>
<circle cx="1301" cy="67" r="9" fill="#03EECA"/>
<circle cx="1453" cy="67" r="9" fill="#03EECA"/>
<circle cx="9" cy="181" r="9" fill="#03EECA"/>
<circle cx="427" cy="181" r="9" fill="#03EECA"/>
<circle cx="313" cy="181" r="9" fill="#03EECA"/>
<circle cx="731" cy="181" r="9" fill="#03EECA"/>
<circle cx="883" cy="181" r="9" fill="#03EECA"/>
<circle cx="1035" cy="181" r="9" fill="#03EECA"/>
<circle cx="1187" cy="181" r="9" fill="#03EECA"/>
<circle cx="1339" cy="181" r="9" fill="#03EECA"/>
<circle cx="1491" cy="181" r="9" fill="#03EECA"/>
<circle cx="161" cy="181" r="9" fill="#03EECA"/>
<circle cx="579" cy="181" r="9" fill="#03EECA"/>
<circle cx="85" cy="181" r="9" fill="#03EECA"/>
<circle cx="503" cy="181" r="9" fill="#03EECA"/>
<circle cx="389" cy="181" r="9" fill="#03EECA"/>
<circle cx="807" cy="181" r="9" fill="#03EECA"/>
<circle cx="959" cy="181" r="9" fill="#03EECA"/>
<circle cx="1111" cy="181" r="9" fill="#03EECA"/>
<circle cx="1263" cy="181" r="9" fill="#03EECA"/>
<circle cx="1415" cy="181" r="9" fill="#03EECA"/>
<circle cx="1567" cy="181" r="9" fill="#03EECA"/>
<circle cx="237" cy="181" r="9" fill="#03EECA"/>
<circle cx="655" cy="181" r="9" fill="#03EECA"/>
<circle cx="47" cy="181" r="9" fill="#03EECA"/>
<circle cx="465" cy="181" r="9" fill="#03EECA"/>
<circle cx="351" cy="181" r="9" fill="#03EECA"/>
<circle cx="769" cy="181" r="9" fill="#03EECA"/>
<circle cx="921" cy="181" r="9" fill="#03EECA"/>
<circle cx="1073" cy="181" r="9" fill="#03EECA"/>
<circle cx="1225" cy="181" r="9" fill="#03EECA"/>
<circle cx="1377" cy="181" r="9" fill="#03EECA"/>
<circle cx="1529" cy="181" r="9" fill="#03EECA"/>
<circle cx="199" cy="181" r="9" fill="#03EECA"/>
<circle cx="617" cy="181" r="9" fill="#03EECA"/>
<circle cx="123" cy="181" r="9" fill="#03EECA"/>
<circle cx="541" cy="181" r="9" fill="#03EECA"/>
<circle cx="275" cy="181" r="9" fill="#03EECA"/>
<circle cx="693" cy="181" r="9" fill="#03EECA"/>
<circle cx="845" cy="181" r="9" fill="#03EECA"/>
<circle cx="997" cy="181" r="9" fill="#03EECA"/>
<circle cx="1149" cy="181" r="9" fill="#03EECA"/>
<circle cx="1301" cy="181" r="9" fill="#03EECA"/>
<circle cx="1453" cy="181" r="9" fill="#03EECA"/>
<circle cx="9" cy="143" r="9" fill="#03EECA"/>
<circle cx="427" cy="143" r="9" fill="#03EECA"/>
<circle cx="313" cy="143" r="9" fill="#03EECA"/>
<circle cx="731" cy="143" r="9" fill="#03EECA"/>
<circle cx="883" cy="143" r="9" fill="#03EECA"/>
<circle cx="1035" cy="143" r="9" fill="#03EECA"/>
<circle cx="1187" cy="143" r="9" fill="#03EECA"/>
<circle cx="1339" cy="143" r="9" fill="#03EECA"/>
<circle cx="1491" cy="143" r="9" fill="#03EECA"/>
<circle cx="161" cy="143" r="9" fill="#03EECA"/>
<circle cx="579" cy="143" r="9" fill="#03EECA"/>
<circle cx="85" cy="143" r="9" fill="#03EECA"/>
<circle cx="503" cy="143" r="9" fill="#03EECA"/>
<circle cx="389" cy="143" r="9" fill="#03EECA"/>
<circle cx="807" cy="143" r="9" fill="#03EECA"/>
<circle cx="959" cy="143" r="9" fill="#03EECA"/>
<circle cx="1111" cy="143" r="9" fill="#03EECA"/>
<circle cx="1263" cy="143" r="9" fill="#03EECA"/>
<circle cx="1415" cy="143" r="9" fill="#03EECA"/>
<circle cx="1567" cy="143" r="9" fill="#03EECA"/>
<circle cx="237" cy="143" r="9" fill="#03EECA"/>
<circle cx="655" cy="143" r="9" fill="#03EECA"/>
<circle cx="47" cy="143" r="9" fill="#03EECA"/>
<circle cx="465" cy="143" r="9" fill="#03EECA"/>
<circle cx="351" cy="143" r="9" fill="#03EECA"/>
<circle cx="769" cy="143" r="9" fill="#03EECA"/>
<circle cx="921" cy="143" r="9" fill="#03EECA"/>
<circle cx="1073" cy="143" r="9" fill="#03EECA"/>
<circle cx="1225" cy="143" r="9" fill="#03EECA"/>
<circle cx="1377" cy="143" r="9" fill="#03EECA"/>
<circle cx="1529" cy="143" r="9" fill="#03EECA"/>
<circle cx="199" cy="143" r="9" fill="#03EECA"/>
<circle cx="617" cy="143" r="9" fill="#03EECA"/>
<circle cx="123" cy="143" r="9" fill="#03EECA"/>
<circle cx="541" cy="143" r="9" fill="#03EECA"/>
<circle cx="275" cy="143" r="9" fill="#03EECA"/>
<circle cx="693" cy="143" r="9" fill="#03EECA"/>
<circle cx="845" cy="143" r="9" fill="#03EECA"/>
<circle cx="997" cy="143" r="9" fill="#03EECA"/>
<circle cx="1149" cy="143" r="9" fill="#03EECA"/>
<circle cx="1301" cy="143" r="9" fill="#03EECA"/>
<circle cx="1453" cy="143" r="9" fill="#03EECA"/>
<circle cx="9" cy="257" r="9" fill="#03EECA"/>
<circle cx="9" cy="333" r="9" fill="#03EECA"/>
<circle cx="9" cy="409" r="9" fill="#03EECA"/>
<circle cx="9" cy="485" r="9" fill="#03EECA"/>
<circle cx="427" cy="257" r="9" fill="#03EECA"/>
<circle cx="427" cy="333" r="9" fill="#03EECA"/>
<circle cx="427" cy="409" r="9" fill="#03EECA"/>
<circle cx="427" cy="485" r="9" fill="#03EECA"/>
<circle cx="313" cy="257" r="9" fill="#03EECA"/>
<circle cx="313" cy="333" r="9" fill="#03EECA"/>
<circle cx="313" cy="409" r="9" fill="#03EECA"/>
<circle cx="313" cy="485" r="9" fill="#03EECA"/>
<circle cx="731" cy="257" r="9" fill="#03EECA"/>
<circle cx="731" cy="333" r="9" fill="#03EECA"/>
<circle cx="731" cy="409" r="9" fill="#03EECA"/>
<circle cx="731" cy="485" r="9" fill="#03EECA"/>
<circle cx="883" cy="257" r="9" fill="#03EECA"/>
<circle cx="883" cy="333" r="9" fill="#03EECA"/>
<circle cx="883" cy="409" r="9" fill="#03EECA"/>
<circle cx="883" cy="485" r="9" fill="#03EECA"/>
<circle cx="1035" cy="257" r="9" fill="#03EECA"/>
<circle cx="1035" cy="333" r="9" fill="#03EECA"/>
<circle cx="1035" cy="409" r="9" fill="#03EECA"/>
<circle cx="1035" cy="485" r="9" fill="#03EECA"/>
<circle cx="1187" cy="257" r="9" fill="#03EECA"/>
<circle cx="1187" cy="333" r="9" fill="#03EECA"/>
<circle cx="1187" cy="409" r="9" fill="#03EECA"/>
<circle cx="1187" cy="485" r="9" fill="#03EECA"/>
<circle cx="1339" cy="257" r="9" fill="#03EECA"/>
<circle cx="1339" cy="333" r="9" fill="#03EECA"/>
<circle cx="1339" cy="409" r="9" fill="#03EECA"/>
<circle cx="1339" cy="485" r="9" fill="#03EECA"/>
<circle cx="1491" cy="257" r="9" fill="#03EECA"/>
<circle cx="1491" cy="333" r="9" fill="#03EECA"/>
<circle cx="1491" cy="409" r="9" fill="#03EECA"/>
<circle cx="1491" cy="485" r="9" fill="#03EECA"/>
<circle cx="161" cy="257" r="9" fill="#03EECA"/>
<circle cx="161" cy="333" r="9" fill="#03EECA"/>
<circle cx="161" cy="409" r="9" fill="#03EECA"/>
<circle cx="161" cy="485" r="9" fill="#03EECA"/>
<circle cx="579" cy="257" r="9" fill="#03EECA"/>
<circle cx="579" cy="333" r="9" fill="#03EECA"/>
<circle cx="579" cy="409" r="9" fill="#03EECA"/>
<circle cx="579" cy="485" r="9" fill="#03EECA"/>
<circle cx="85" cy="257" r="9" fill="#03EECA"/>
<circle cx="85" cy="333" r="9" fill="#03EECA"/>
<circle cx="85" cy="409" r="9" fill="#03EECA"/>
<circle cx="85" cy="485" r="9" fill="#03EECA"/>
<circle cx="503" cy="257" r="9" fill="#03EECA"/>
<circle cx="503" cy="333" r="9" fill="#03EECA"/>
<circle cx="503" cy="409" r="9" fill="#03EECA"/>
<circle cx="503" cy="485" r="9" fill="#03EECA"/>
<circle cx="389" cy="257" r="9" fill="#03EECA"/>
<circle cx="389" cy="333" r="9" fill="#03EECA"/>
<circle cx="389" cy="409" r="9" fill="#03EECA"/>
<circle cx="389" cy="485" r="9" fill="#03EECA"/>
<circle cx="807" cy="257" r="9" fill="#03EECA"/>
<circle cx="807" cy="333" r="9" fill="#03EECA"/>
<circle cx="807" cy="409" r="9" fill="#03EECA"/>
<circle cx="807" cy="485" r="9" fill="#03EECA"/>
<circle cx="959" cy="257" r="9" fill="#03EECA"/>
<circle cx="959" cy="333" r="9" fill="#03EECA"/>
<circle cx="959" cy="409" r="9" fill="#03EECA"/>
<circle cx="959" cy="485" r="9" fill="#03EECA"/>
<circle cx="1111" cy="257" r="9" fill="#03EECA"/>
<circle cx="1111" cy="333" r="9" fill="#03EECA"/>
<circle cx="1111" cy="409" r="9" fill="#03EECA"/>
<circle cx="1111" cy="485" r="9" fill="#03EECA"/>
<circle cx="1263" cy="257" r="9" fill="#03EECA"/>
<circle cx="1263" cy="333" r="9" fill="#03EECA"/>
<circle cx="1263" cy="409" r="9" fill="#03EECA"/>
<circle cx="1263" cy="485" r="9" fill="#03EECA"/>
<circle cx="1415" cy="257" r="9" fill="#03EECA"/>
<circle cx="1415" cy="333" r="9" fill="#03EECA"/>
<circle cx="1415" cy="409" r="9" fill="#03EECA"/>
<circle cx="1415" cy="485" r="9" fill="#03EECA"/>
<circle cx="1567" cy="257" r="9" fill="#03EECA"/>
<circle cx="1567" cy="333" r="9" fill="#03EECA"/>
<circle cx="1567" cy="409" r="9" fill="#03EECA"/>
<circle cx="1567" cy="485" r="9" fill="#03EECA"/>
<circle cx="237" cy="257" r="9" fill="#03EECA"/>
<circle cx="237" cy="333" r="9" fill="#03EECA"/>
<circle cx="237" cy="409" r="9" fill="#03EECA"/>
<circle cx="237" cy="485" r="9" fill="#03EECA"/>
<circle cx="655" cy="257" r="9" fill="#03EECA"/>
<circle cx="655" cy="333" r="9" fill="#03EECA"/>
<circle cx="655" cy="409" r="9" fill="#03EECA"/>
<circle cx="655" cy="485" r="9" fill="#03EECA"/>
<circle cx="47" cy="257" r="9" fill="#03EECA"/>
<circle cx="47" cy="333" r="9" fill="#03EECA"/>
<circle cx="47" cy="409" r="9" fill="#03EECA"/>
<circle cx="47" cy="485" r="9" fill="#03EECA"/>
<circle cx="465" cy="257" r="9" fill="#03EECA"/>
<circle cx="465" cy="333" r="9" fill="#03EECA"/>
<circle cx="465" cy="409" r="9" fill="#03EECA"/>
<circle cx="465" cy="485" r="9" fill="#03EECA"/>
<circle cx="351" cy="257" r="9" fill="#03EECA"/>
<circle cx="351" cy="333" r="9" fill="#03EECA"/>
<circle cx="351" cy="409" r="9" fill="#03EECA"/>
<circle cx="351" cy="485" r="9" fill="#03EECA"/>
<circle cx="769" cy="257" r="9" fill="#03EECA"/>
<circle cx="769" cy="333" r="9" fill="#03EECA"/>
<circle cx="769" cy="409" r="9" fill="#03EECA"/>
<circle cx="769" cy="485" r="9" fill="#03EECA"/>
<circle cx="921" cy="257" r="9" fill="#03EECA"/>
<circle cx="921" cy="333" r="9" fill="#03EECA"/>
<circle cx="921" cy="409" r="9" fill="#03EECA"/>
<circle cx="921" cy="485" r="9" fill="#03EECA"/>
<circle cx="1073" cy="257" r="9" fill="#03EECA"/>
<circle cx="1073" cy="333" r="9" fill="#03EECA"/>
<circle cx="1073" cy="409" r="9" fill="#03EECA"/>
<circle cx="1073" cy="485" r="9" fill="#03EECA"/>
<circle cx="1225" cy="257" r="9" fill="#03EECA"/>
<circle cx="1225" cy="333" r="9" fill="#03EECA"/>
<circle cx="1225" cy="409" r="9" fill="#03EECA"/>
<circle cx="1225" cy="485" r="9" fill="#03EECA"/>
<circle cx="1377" cy="257" r="9" fill="#03EECA"/>
<circle cx="1377" cy="333" r="9" fill="#03EECA"/>
<circle cx="1377" cy="409" r="9" fill="#03EECA"/>
<circle cx="1377" cy="485" r="9" fill="#03EECA"/>
<circle cx="1529" cy="257" r="9" fill="#03EECA"/>
<circle cx="1529" cy="333" r="9" fill="#03EECA"/>
<circle cx="1529" cy="409" r="9" fill="#03EECA"/>
<circle cx="1529" cy="485" r="9" fill="#03EECA"/>
<circle cx="199" cy="257" r="9" fill="#03EECA"/>
<circle cx="199" cy="333" r="9" fill="#03EECA"/>
<circle cx="199" cy="409" r="9" fill="#03EECA"/>
<circle cx="199" cy="485" r="9" fill="#03EECA"/>
<circle cx="617" cy="257" r="9" fill="#03EECA"/>
<circle cx="617" cy="333" r="9" fill="#03EECA"/>
<circle cx="617" cy="409" r="9" fill="#03EECA"/>
<circle cx="617" cy="485" r="9" fill="#03EECA"/>
<circle cx="123" cy="257" r="9" fill="#03EECA"/>
<circle cx="123" cy="333" r="9" fill="#03EECA"/>
<circle cx="123" cy="409" r="9" fill="#03EECA"/>
<circle cx="123" cy="485" r="9" fill="#03EECA"/>
<circle cx="541" cy="257" r="9" fill="#03EECA"/>
<circle cx="541" cy="333" r="9" fill="#03EECA"/>
<circle cx="541" cy="409" r="9" fill="#03EECA"/>
<circle cx="541" cy="485" r="9" fill="#03EECA"/>
<circle cx="275" cy="257" r="9" fill="#03EECA"/>
<circle cx="275" cy="333" r="9" fill="#03EECA"/>
<circle cx="275" cy="409" r="9" fill="#03EECA"/>
<circle cx="275" cy="485" r="9" fill="#03EECA"/>
<circle cx="693" cy="257" r="9" fill="#03EECA"/>
<circle cx="693" cy="333" r="9" fill="#03EECA"/>
<circle cx="693" cy="409" r="9" fill="#03EECA"/>
<circle cx="693" cy="485" r="9" fill="#03EECA"/>
<circle cx="845" cy="257" r="9" fill="#03EECA"/>
<circle cx="845" cy="333" r="9" fill="#03EECA"/>
<circle cx="845" cy="409" r="9" fill="#03EECA"/>
<circle cx="845" cy="485" r="9" fill="#03EECA"/>
<circle cx="997" cy="257" r="9" fill="#03EECA"/>
<circle cx="997" cy="333" r="9" fill="#03EECA"/>
<circle cx="997" cy="409" r="9" fill="#03EECA"/>
<circle cx="997" cy="485" r="9" fill="#03EECA"/>
<circle cx="1149" cy="257" r="9" fill="#03EECA"/>
<circle cx="1149" cy="333" r="9" fill="#03EECA"/>
<circle cx="1149" cy="409" r="9" fill="#03EECA"/>
<circle cx="1149" cy="485" r="9" fill="#03EECA"/>
<circle cx="1301" cy="257" r="9" fill="#03EECA"/>
<circle cx="1301" cy="333" r="9" fill="#03EECA"/>
<circle cx="1301" cy="409" r="9" fill="#03EECA"/>
<circle cx="1301" cy="485" r="9" fill="#03EECA"/>
<circle cx="1453" cy="257" r="9" fill="#03EECA"/>
<circle cx="1453" cy="333" r="9" fill="#03EECA"/>
<circle cx="1453" cy="409" r="9" fill="#03EECA"/>
<circle cx="1453" cy="485" r="9" fill="#03EECA"/>
<rect width="1576" height="494" fill="url(#paint0_linear_98_3245)"/>
<defs>
<linearGradient id="paint0_linear_98_3245" x1="85.5" y1="4.03395e-05" x2="1003.8" y2="991.486" gradientUnits="userSpaceOnUse">
<stop offset="0.00330738" stop-color="#171717" stop-opacity="0"/>
<stop offset="1" stop-color="#171717"/>
</linearGradient>
</defs>
</svg>
