<svg xmlns="http://www.w3.org/2000/svg" viewBox="0 0 474 92" fill="none"> <path d="M147.835 23.6561V32.5657H158.903V40.7295H147.835V71.815H139.671V40.7295H135V32.5657H139.671V23.6561C139.671 21.5104 140.194 19.5611 141.241 17.8079C142.287 16.0286 143.687 14.6156 145.44 13.569C147.22 12.5223 149.195 11.999 151.367 11.999C152.937 11.999 154.468 12.313 155.959 12.941C157.451 13.569 158.785 14.5371 159.963 15.8455L154.114 21.6151C153.827 21.1441 153.421 20.7909 152.898 20.5554C152.401 20.2937 151.89 20.1629 151.367 20.1629C150.399 20.1629 149.561 20.503 148.855 21.1834C148.175 21.8637 147.835 22.6879 147.835 23.6561Z" fill="white"></path> <path d="M174.279 71.815V12.941H182.403V71.815H174.279Z" fill="white"></path> <path d="M231.1 32.5657H239.264V71.815H231.061L230.747 66.1238C229.596 68.1386 228.039 69.7609 226.076 70.9907C224.14 72.2206 221.837 72.8355 219.168 72.8355C216.264 72.8355 213.543 72.299 211.004 71.2262C208.492 70.1273 206.268 68.6096 204.332 66.6733C202.422 64.737 200.917 62.5129 199.818 60.0009C198.746 57.4628 198.209 54.7415 198.209 51.8371C198.209 49.0373 198.732 46.4076 199.779 43.948C200.826 41.4622 202.278 39.2904 204.136 37.4326C205.994 35.5748 208.139 34.1226 210.573 33.0759C213.032 32.0031 215.662 31.4667 218.462 31.4667C221.314 31.4667 223.826 32.1208 225.998 33.4291C228.196 34.7113 230.001 36.3598 231.414 38.3746L231.1 32.5657ZM219.365 64.9463C221.72 64.9463 223.747 64.3576 225.448 63.1801C227.175 62.0026 228.47 60.4196 229.334 58.431C230.224 56.4423 230.603 54.2444 230.472 51.8371C230.315 49.5345 229.7 47.4412 228.627 45.5572C227.581 43.6732 226.181 42.1817 224.428 41.0828C222.675 39.9576 220.686 39.395 218.462 39.395C216.133 39.395 214.027 39.9838 212.143 41.1613C210.285 42.3387 208.846 43.9218 207.825 45.9104C206.805 47.8991 206.36 50.1101 206.491 52.5436C206.648 54.82 207.328 56.9002 208.532 58.7842C209.762 60.6682 211.318 62.1727 213.202 63.2979C215.113 64.3969 217.167 64.9463 219.365 64.9463Z" fill="white"></path> <path d="M285.073 32.5657H293.237V72.8355C293.237 75.5306 292.661 78.0164 291.51 80.2928C290.385 82.5693 288.854 84.5318 286.918 86.1802C284.981 87.8549 282.757 89.1501 280.245 90.0659C277.759 90.9817 275.156 91.4396 272.435 91.4396C269.687 91.4396 267.044 90.8509 264.506 89.6734C261.968 88.5221 259.731 86.9521 257.795 84.9635C255.884 82.9749 254.458 80.7246 253.516 78.2126L261.013 74.8372C261.536 76.4595 262.374 77.8986 263.525 79.1546C264.702 80.4106 266.063 81.4049 267.607 82.1375C269.177 82.8702 270.786 83.2365 272.435 83.2365C274.057 83.2365 275.614 82.9749 277.105 82.4515C278.623 81.9544 279.97 81.2479 281.148 80.3321C282.352 79.4163 283.307 78.3173 284.013 77.0351C284.72 75.753 285.073 74.3531 285.073 72.8355V66.2023C283.791 68.191 282.142 69.8002 280.127 71.03C278.113 72.2336 275.771 72.8355 273.102 72.8355C270.328 72.8355 267.712 72.299 265.252 71.2262C262.792 70.1534 260.634 68.675 258.776 66.7911C256.918 64.8809 255.466 62.683 254.419 60.1972C253.372 57.7114 252.849 55.0424 252.849 52.1903C252.849 49.3382 253.372 46.6692 254.419 44.1835C255.466 41.6715 256.918 39.4735 258.776 37.5896C260.634 35.6794 262.792 34.188 265.252 33.1152C267.712 32.0423 270.328 31.5059 273.102 31.5059C275.771 31.5059 278.113 32.1208 280.127 33.3507C282.142 34.5543 283.791 36.1635 285.073 38.1783V32.5657ZM273.18 64.9463C275.457 64.9463 277.445 64.3707 279.146 63.2194C280.847 62.0419 282.168 60.485 283.11 58.5487C284.052 56.6124 284.523 54.4929 284.523 52.1903C284.523 49.8354 284.039 47.7028 283.071 45.7927C282.129 43.8564 280.808 42.3126 279.107 41.1613C277.406 39.9838 275.431 39.395 273.18 39.395C270.982 39.395 268.968 39.9707 267.136 41.122C265.33 42.2733 263.891 43.8171 262.818 45.7534C261.746 47.6897 261.209 49.8354 261.209 52.1903C261.209 54.5453 261.746 56.6909 262.818 58.6272C263.917 60.5635 265.37 62.1073 267.175 63.2586C269.007 64.3838 271.008 64.9463 273.18 64.9463Z" fill="white"></path> <path d="M322.673 72.5607C320.606 72.4299 318.591 72.0112 316.629 71.3047C314.666 70.5982 312.939 69.6432 311.448 68.4395C309.982 67.2097 308.883 65.7706 308.151 64.1221L315.098 61.1392C315.438 61.8457 316.027 62.5391 316.864 63.2194C317.728 63.8997 318.735 64.4623 319.886 64.9071C321.038 65.3258 322.241 65.5351 323.497 65.5351C324.727 65.5351 325.865 65.365 326.912 65.0248C327.985 64.6585 328.861 64.109 329.542 63.3764C330.222 62.6437 330.562 61.7672 330.562 60.7467C330.562 59.5954 330.17 58.7057 329.385 58.0777C328.626 57.4236 327.671 56.9264 326.519 56.5862C325.368 56.2461 324.217 55.919 323.066 55.605C320.501 55.0294 318.146 54.2444 316.001 53.2501C313.881 52.2296 312.193 50.9343 310.937 49.3644C309.682 47.7682 309.054 45.8188 309.054 43.5162C309.054 41.0043 309.721 38.8325 311.055 37.0008C312.416 35.143 314.208 33.717 316.432 32.7227C318.657 31.7283 321.025 31.2312 323.537 31.2312C326.676 31.2312 329.555 31.8984 332.171 33.2329C334.788 34.5674 336.79 36.399 338.177 38.7278L331.7 42.5742C331.308 41.7893 330.719 41.0828 329.934 40.4548C329.149 39.8268 328.26 39.3296 327.265 38.9633C326.271 38.5708 325.237 38.3484 324.164 38.2961C322.83 38.2437 321.587 38.4007 320.436 38.7671C319.311 39.1072 318.408 39.6567 317.728 40.4155C317.047 41.1743 316.707 42.1425 316.707 43.32C316.707 44.4713 317.113 45.3348 317.924 45.9104C318.735 46.4599 319.755 46.9047 320.985 47.2449C322.241 47.5851 323.523 47.9645 324.832 48.3831C327.161 49.1158 329.345 50.0185 331.386 51.0913C333.427 52.138 335.076 53.4332 336.332 54.977C337.588 56.5208 338.19 58.4048 338.137 60.6289C338.137 63.0885 337.392 65.2473 335.9 67.1051C334.435 68.9629 332.525 70.3758 330.17 71.344C327.815 72.3121 325.316 72.7177 322.673 72.5607Z" fill="white"></path> <path d="M389.388 51.2876V71.815H381.224V51.4446C381.224 49.2205 380.753 47.1926 379.811 45.3609C378.895 43.5293 377.665 42.0771 376.121 41.0043C374.578 39.9315 372.864 39.395 370.98 39.395C368.939 39.395 367.199 39.9315 365.76 41.0043C364.32 42.0771 363.208 43.5293 362.423 45.3609C361.665 47.1926 361.285 49.2205 361.285 51.4446V71.815H353.082V12.941H361.246V37.1578C362.345 35.0384 363.784 33.5731 365.563 32.7619C367.369 31.9246 369.436 31.5059 371.765 31.5059C375.297 31.5059 378.372 32.4087 380.988 34.2141C383.605 36.0196 385.646 38.4269 387.111 41.436C388.577 44.419 389.335 47.7028 389.388 51.2876Z" fill="white"></path> <path d="M405.087 32.5657H413.251V71.815H405.087V32.5657ZM409.209 26.0895C407.979 26.0895 406.945 25.6839 406.108 24.8728C405.271 24.0616 404.852 23.0412 404.852 21.8114C404.852 20.6077 405.271 19.6003 406.108 18.7892C406.945 17.9518 407.979 17.5332 409.209 17.5332C410.412 17.5332 411.433 17.9518 412.27 18.7892C413.107 19.6003 413.526 20.6077 413.526 21.8114C413.526 23.0412 413.107 24.0616 412.27 24.8728C411.433 25.6839 410.412 26.0895 409.209 26.0895Z" fill="white"></path> <path d="M441.109 91.4396H432.945V32.5657H441.109V38.3353C442.417 36.3205 444.092 34.6851 446.133 33.4291C448.174 32.1732 450.581 31.5452 453.355 31.5452C456.207 31.5452 458.876 32.0816 461.362 33.1544C463.874 34.2272 466.072 35.7187 467.956 37.6288C469.84 39.5128 471.318 41.6977 472.391 44.1835C473.464 46.6692 474 49.3382 474 52.1903C474 55.0424 473.464 57.7245 472.391 60.2364C471.318 62.7484 469.84 64.9594 467.956 66.8696C466.072 68.7535 463.874 70.2319 461.362 71.3047C458.876 72.3776 456.207 72.914 453.355 72.914C450.581 72.914 448.174 72.286 446.133 71.03C444.092 69.7478 442.417 68.1125 441.109 66.1238V91.4396ZM453.276 39.4343C451 39.4343 448.998 40.0099 447.271 41.1613C445.544 42.3126 444.197 43.8564 443.229 45.7927C442.26 47.7028 441.776 49.8354 441.776 52.1903C441.776 54.5453 442.26 56.6909 443.229 58.6272C444.197 60.5635 445.544 62.1073 447.271 63.2586C448.998 64.4099 451 64.9856 453.276 64.9856C455.527 64.9856 457.594 64.423 459.478 63.2979C461.362 62.1466 462.866 60.6028 463.991 58.6665C465.117 56.7302 465.679 54.5714 465.679 52.1903C465.679 49.8615 465.117 47.729 463.991 45.7927C462.892 43.8564 461.401 42.3126 459.517 41.1613C457.633 40.0099 455.553 39.4343 453.276 39.4343Z" fill="white"></path> <path fill-rule="evenodd" clip-rule="evenodd" d="M45.4343 90.8687C70.527 90.8687 90.8687 70.527 90.8687 45.4343C90.8687 20.3416 70.527 0 45.4343 0C20.3416 0 0 20.3416 0 45.4343C0 70.527 20.3416 90.8687 45.4343 90.8687ZM56.0359 52.7105C61.686 48.2835 70.8894 46.9438 86.9079 45.4876C69.4332 43.9148 59.9968 42.4004 54.5797 36.9832C49.1625 31.566 47.7063 22.1879 46.0753 4.65492C44.3278 23.7024 42.7551 33.1388 36.0564 38.3812C30.4645 42.7499 21.2029 44.0896 5.24263 45.5458C20.5622 46.9438 29.7073 48.2253 35.3574 52.1862C42.6386 57.2539 44.2696 66.6903 46.0753 86.3785C47.8228 67.3892 49.3955 57.8946 56.0359 52.7105Z" fill="white"></path> </svg>