<?xml version="1.0" encoding="utf-8"?>
<!-- Generator: Adobe Illustrator 26.0.1, SVG Export Plug-In . SVG Version: 6.00 Build 0)  -->
<svg version="1.1" id="Слой_1" xmlns="http://www.w3.org/2000/svg" xmlns:xlink="http://www.w3.org/1999/xlink" x="0px" y="0px"
	 viewBox="0 0 2000 2000" style="enable-background:new 0 0 2000 2000;" xml:space="preserve">
<style type="text/css">
	.st0{fill:#FFFFFF;}
</style>
<path class="st0" d="M986.37,669.54c-1.63,0.28-3.25,0.72-4.89,0.8c-19.52,1.01-39.03,2.27-58.56,2.86
	c-39.08,1.19-78.19,1.64-117.26,3.07c-35.35,1.3-70.67,3.58-106,5.27c-21.55,1.03-43.12,1.48-64.66,2.7
	c-20.2,1.14-40.35,3.04-60.53,4.43c-18.56,1.28-37.13,2.49-55.71,3.43c-23.71,1.2-47.46,1.77-71.15,3.2
	c-22.95,1.39-45.85,3.56-68.78,5.31c-11.9,0.91-23.84,1.34-35.7,2.53c-11.87,1.19-23.68,3.05-35.51,4.62
	c-0.55,0.07-1.09,0.21-1.64,0.25c-14.85,1.01-29.72,1.84-44.56,3.07c-10.01,0.83-19.96,2.25-29.95,3.35
	c-14.59,1.61-29.2,3.07-43.78,4.8c-9.46,1.13-18.88,2.63-28.32,3.97c-9.61,1.36-19.26,2.52-28.83,4.16
	c-10.94,1.88-21.8,4.24-32.71,6.33c-7.85,1.51-15.76,2.78-23.58,4.44c-3.05,0.65-5.93,2.08-10.5,3.73c3.12,1.94,4.48,3.21,6.08,3.7
	c3.98,1.24,8.03,2.44,12.14,3.09c12.82,2.01,25.67,3.9,38.54,5.55c15.75,2.02,31.61,3.29,47.28,5.74
	c15.45,2.42,30.77,4.82,46.49,5.43c19.02,0.74,37.94,3.64,56.95,5.08c27.51,2.09,55.06,3.62,82.58,5.55
	c22.78,1.6,45.51,3.89,68.31,5.07c27.96,1.45,55.97,1.94,83.95,3.06c41.81,1.68,83.61,3.74,125.43,5.27
	c39.61,1.45,79.23,2.65,118.85,3.55c39.28,0.89,78.6,0.66,117.86,2c119.38,4.07,238.79,2.12,358.19,2.34
	c48.9,0.09,97.8-0.96,146.7-1.55c37.83-0.46,75.65-0.87,113.47-1.56c29.87-0.55,59.75-1.17,89.61-2.36
	c26.87-1.07,53.7-2.95,80.55-4.48c0.92-0.05,1.84-0.18,2.76-0.21c28.91-1.08,57.84-1.88,86.73-3.33
	c17.07-0.86,34.09-2.73,51.13-4.17c14.67-1.25,29.35-2.39,44-3.85c14.59-1.46,29.14-3.28,43.71-4.93
	c9.11-1.03,18.28-1.71,27.33-3.16c11.48-1.84,22.87-4.23,34.27-6.51c6.27-1.25,12.49-2.75,18.72-4.19c3.58-0.83,7.13-1.79,10.7-2.69
	c0.27,0.78,0.54,1.56,0.81,2.34c-7.51,2.81-14.96,5.8-22.55,8.39c-6.73,2.3-13.58,4.23-20.43,6.16c-2.95,0.83-6.01,1.26-9.01,1.9
	c-4.25,0.91-8.49,1.82-12.72,2.79c-6.56,1.51-13.11,3.06-19.67,4.6c-0.89,0.21-1.78,0.5-2.68,0.63
	c-13.92,1.97-27.82,3.98-41.75,5.85c-13.58,1.82-27.21,3.35-40.77,5.28c-7.41,1.05-14.74,2.65-22.1,4.03
	c-1.09,0.2-2.14,0.66-3.23,0.75c-12.42,1.06-24.86,1.86-37.26,3.17c-12.03,1.27-24.01,3.06-36.01,4.64
	c-0.73,0.1-1.43,0.41-2.16,0.47c-13.39,0.98-26.79,1.81-40.17,2.93c-17.54,1.47-35.05,3.18-52.58,4.79
	c-0.55,0.05-1.09,0.21-1.64,0.25c-16.35,1.03-32.71,1.98-49.05,3.08c-21.66,1.47-43.29,3.27-64.96,4.54
	c-24.1,1.41-48.23,2.29-72.34,3.55c-29.43,1.54-58.84,3.33-88.27,4.82c-10.13,0.51-20.3,0.29-30.44,0.67
	c-44.42,1.64-88.82,4-133.25,4.89c-45.94,0.92-91.91,0.25-137.86,0.63c-52.21,0.43-104.42,1.88-156.62,1.77
	c-66.96-0.14-133.93-1.13-200.89-2.28c-34.47-0.59-68.93-2.31-103.39-3.55c-12.53-0.45-25.06-1.06-37.59-1.52
	c-26.9-1-53.82-1.67-80.7-3.03c-27.76-1.4-55.48-3.46-83.22-5.22c-14.16-0.9-28.33-1.64-42.47-2.74
	c-21.81-1.69-43.61-3.55-65.41-5.46c-19.19-1.69-38.39-3.37-57.55-5.39c-14.42-1.52-28.81-3.42-43.18-5.44
	c-17.38-2.45-34.79-4.83-52.07-7.94c-16.47-2.96-32.72-7.13-49.17-10.2c-14.79-2.76-29.15-6.83-42.17-14.28
	c-10.94-6.26-20.21-14.54-19.32-28.91c0.58-9.4,5.51-16.98,13.08-21.87c7.14-4.61,15.22-7.97,23.22-11
	c6.55-2.48,13.6-3.66,20.42-5.44c3.35-0.88,6.65-2.08,10.05-2.67c11.31-1.96,22.67-3.63,33.99-5.58c14.4-2.48,28.78-5.13,43.17-7.7
	c0.54-0.1,1.1-0.15,1.65-0.2c13.15-1,26.33-1.76,39.45-3.08c11.14-1.12,22.21-2.88,33.32-4.35c1.28-0.17,2.56-0.4,3.85-0.46
	c19.09-1.01,38.21-1.78,57.28-3.07c16.52-1.12,33-2.84,49.5-4.28c3.67-0.32,7.35-0.73,11.03-0.83c36.84-1.05,73.74-1.14,110.52-3.23
	c127.59-7.22,255.28-4.76,382.95-4.83c44.65-0.03,89.3,1.75,133.94,2.93c5.61,0.15,11.19,1.65,16.79,2.52
	C986.43,668.58,986.4,669.06,986.37,669.54z"/>
<path class="st0" d="M30.8,1072c3.89,1.31,7.94,2.29,11.64,4c14.72,6.77,29.98,11.84,45.67,15.79c12.31,3.1,24.44,6.94,36.76,10.03
	c6.15,1.54,12.55,2.04,18.8,3.21c3.76,0.7,7.42,1.9,11.16,2.69c16.22,3.45,32.43,7.01,48.71,10.18c7.67,1.5,15.5,2.19,23.25,3.29
	c7.42,1.06,14.82,2.19,22.24,3.25c11.38,1.63,22.78,3.2,34.16,4.85c6.15,0.9,12.3,1.79,18.41,2.92c13.9,2.56,27.72,5,41.96,5.6
	c12.75,0.55,25.39,3.48,38.11,5.1c8.5,1.09,17.08,1.56,25.59,2.6c12.17,1.49,24.29,3.39,36.46,4.84c10.57,1.26,21.19,2.14,31.8,3.17
	c14.96,1.46,29.93,2.87,44.88,4.38c9.7,0.98,19.37,2.39,29.09,3.1c17.76,1.31,35.55,2.22,53.32,3.35
	c17.45,1.11,34.89,2.27,52.33,3.46c8.64,0.59,17.27,1.43,25.92,1.88c22.6,1.18,45.21,2.26,67.82,3.27c20.8,0.92,41.6,1.77,62.4,2.52
	c30.6,1.09,61.2,2.59,91.8,2.97c64.55,0.8,129.11,1.27,193.67,1.28c27.09,0.01,54.18-1.46,81.26-2.32
	c23.96-0.76,47.92-1.5,71.87-2.44c20.24-0.79,40.49-1.61,60.71-2.85c25.7-1.58,51.37-3.67,77.06-5.4c14.33-0.97,28.7-1.37,43-2.56
	c12.6-1.04,25.14-2.82,37.7-4.29c0.91-0.11,1.81-0.4,2.73-0.47c14.3-1.06,28.62-1.84,42.89-3.2c13.85-1.31,27.64-3.17,41.45-4.85
	c7.11-0.87,14.18-2.09,21.31-2.79c12.04-1.19,24.11-1.95,36.15-3.17c10.2-1.03,20.36-2.44,30.53-3.69
	c4.37-0.54,8.74-1.04,13.09-1.66c11.53-1.64,23.04-3.33,34.57-4.99c7.08-1.02,14.17-1.99,21.25-3.05
	c11.36-1.7,22.71-3.49,34.07-5.16c7.42-1.09,14.89-1.87,22.29-3.08c8.8-1.44,17.55-3.22,26.33-4.82c1.26-0.23,2.57-0.23,3.83-0.43
	c7.2-1.16,14.4-2.3,21.59-3.53c8.78-1.5,17.56-2.99,26.3-4.67c5.18-1,10.28-2.41,15.44-3.53c7.26-1.57,14.57-2.93,21.82-4.58
	c8.35-1.9,16.69-3.85,24.95-6.06c8.41-2.25,16.82-4.58,25.06-7.38c11.67-3.97,23.18-8.43,34.77-12.64
	c4.06-1.47,8.18-2.81,12.27-4.21c0.34,0.68,0.67,1.37,1.01,2.06c-4.57,3.07-8.87,6.65-13.76,9.09
	c-11.06,5.52-22.24,10.89-33.69,15.54c-9.03,3.67-18.54,6.13-27.81,9.22c-5.52,1.84-10.94,3.98-16.49,5.73
	c-8.46,2.67-16.99,5.15-25.5,7.66c-8.51,2.52-17,5.15-25.58,7.42c-8.43,2.23-16.98,4-25.44,6.12c-7.94,1.99-15.79,4.34-23.76,6.22
	c-7.24,1.71-14.59,2.96-21.87,4.5c-3.9,0.83-7.77,1.79-11.63,2.78c-5.96,1.53-11.9,3.14-17.85,4.68c-1.06,0.28-2.17,0.39-3.25,0.59
	c-7.34,1.36-14.68,2.77-22.03,4.08c-7.89,1.41-15.8,2.7-23.7,4.09c-5.01,0.88-10.03,1.72-15,2.79c-6.42,1.37-12.79,2.95-19.18,4.45
	c-0.89,0.21-1.77,0.55-2.67,0.66c-8.32,1-16.67,1.82-24.97,2.98c-4.51,0.63-8.95,1.82-13.42,2.74c-8.04,1.64-16.09,3.28-24.14,4.87
	c-1.26,0.25-2.57,0.2-3.84,0.38c-10.84,1.57-21.68,3.15-32.51,4.76c-6.88,1.02-13.72,2.37-20.63,3.12
	c-11.08,1.2-22.23,1.76-33.3,3.09c-9.08,1.09-18.07,2.91-27.1,4.41c-0.91,0.15-1.8,0.48-2.71,0.55c-12.77,1.03-25.56,1.8-38.3,3.13
	c-10.39,1.08-20.72,2.82-31.07,4.28c-1.09,0.16-2.15,0.61-3.24,0.69c-13.93,1.01-27.86,1.89-41.79,2.97
	c-12.46,0.96-24.89,2.2-37.35,3.18c-10.46,0.82-20.93,1.57-31.41,2.15c-19.66,1.08-39.32,1.99-58.98,3.01
	c-32.55,1.69-65.08,4.13-97.66,4.95c-57.36,1.46-114.74,2.55-172.11,2.62c-36.69,0.04-73.39-1.97-110.07-3.19
	c-14.37-0.48-28.73-1.28-43.1-1.97c-19.47-0.94-38.95-1.83-58.42-2.89c-13.59-0.74-27.2-1.46-40.75-2.71
	c-13.16-1.22-26.26-3.1-39.39-4.69c-0.37-0.04-0.73-0.15-1.09-0.18c-14.66-1.01-29.34-1.74-43.97-3.09
	c-11.69-1.08-23.31-2.89-34.95-4.39c-0.73-0.09-1.44-0.36-2.17-0.42c-12.97-1.1-25.96-1.96-38.9-3.34
	c-9.65-1.03-19.23-2.75-28.84-4.15c-8.86-1.29-17.72-2.63-26.6-3.81c-12.32-1.65-24.67-3.16-37-4.75c-8.54-1.1-17.1-2.07-25.61-3.37
	c-8.47-1.29-16.91-2.87-25.34-4.42c-5.22-0.96-10.37-2.35-15.61-3.13c-8.46-1.26-17.01-1.99-25.46-3.3
	c-7.03-1.09-13.97-2.78-20.98-4.07c-7.51-1.39-15.07-2.57-22.58-3.94c-5.91-1.08-11.8-2.29-17.7-3.48
	c-7.64-1.53-15.28-3.08-22.92-4.64c-5-1.02-10-2.01-14.98-3.09c-11.89-2.58-23.82-4.98-35.63-7.88c-8.15-2-16.08-4.88-24.19-7.06
	c-8.09-2.18-16.35-3.76-24.43-5.99c-12.07-3.35-24.03-7.11-36.07-10.56c-6.97-2-14.14-3.35-20.99-5.66
	c-12.18-4.1-24.2-8.66-36.26-13.12c-10.04-3.72-20.29-7.01-29.95-11.55c-8.56-4.02-16.43-9.51-24.6-14.35
	C30.11,1073.54,30.45,1072.77,30.8,1072z"/>
<path class="st0" d="M32.79,891.35c1.92,0.34,3.88,0.52,5.75,1.04c8.36,2.36,16.64,5.05,25.06,7.16c5.28,1.33,10.74,1.95,16.14,2.71
	c8,1.12,16.01,2.09,24.03,3.1c12.88,1.62,25.75,3.3,38.65,4.81c8.58,1,17.17,1.89,25.78,2.59c15.19,1.22,30.39,2.42,45.61,3.34
	c28.85,1.73,57.71,3.24,86.57,4.84c0.74,0.04,1.47,0.17,2.21,0.2c29.47,1.04,58.94,2.09,88.41,3.12
	c46.62,1.63,93.23,3.4,139.86,4.81c20.84,0.63,41.71,0.48,62.56,0.77c69.56,0.95,139.11,2.21,208.67,2.85
	c101.66,0.95,203.33,1.55,304.99,2.12c22.14,0.12,44.28-0.54,66.42-0.82c52.39-0.68,104.79-0.96,157.16-2.16
	c47.77-1.09,95.51-3.23,143.26-4.77c10.51-0.34,21.04,0.15,31.56-0.14c31.32-0.87,62.66-1.65,93.96-3
	c34.43-1.49,68.83-3.56,103.24-5.38c15.79-0.84,31.61-1.37,47.37-2.64c14.27-1.14,28.47-3.25,42.72-4.62
	c13.36-1.29,26.77-1.99,40.13-3.27c14.57-1.4,29.11-3.18,43.66-4.79c9.85-1.09,19.75-1.85,29.54-3.36
	c13.14-2.04,26.19-4.64,39.26-7.05c6.24-1.15,12.47-2.41,18.69-3.66c2.32-0.46,4.62-1.06,6.94-1.53c2.19-0.44,4.39-0.77,6.59-1.16
	c0.25,0.75,0.51,1.5,0.77,2.25c-6.54,2.83-12.95,6.03-19.66,8.4c-8,2.83-16.25,4.95-24.39,7.35c-1.22,0.36-2.47,0.6-3.71,0.89
	c-9.19,2.16-18.38,4.32-27.58,6.46c-2.47,0.58-4.96,1.09-7.45,1.6c-7.28,1.5-14.56,2.98-21.84,4.48c-4.83,1-9.62,2.21-14.48,2.99
	c-7.92,1.27-15.89,2.2-23.81,3.41c-6.66,1.02-13.27,2.33-19.93,3.32c-11.2,1.66-22.43,3.15-33.64,4.75
	c-6.87,0.98-13.77,1.86-20.6,3.1c-14.63,2.65-29.3,4.41-44.19,5.4c-17.5,1.16-34.85,4.66-52.27,7.15c-0.73,0.1-1.45,0.28-2.19,0.33
	c-15.21,1-30.44,1.73-45.62,3.05c-11.14,0.97-22.22,2.7-33.32,4.1c-1.1,0.14-2.17,0.47-3.27,0.54c-17.08,1.11-34.17,2.06-51.24,3.31
	c-18.51,1.36-37,2.99-55.5,4.52c-2.21,0.18-4.4,0.59-6.61,0.66c-28.35,1-56.7,1.68-85.03,3c-26.11,1.22-52.18,3.11-78.27,4.71
	c-2.39,0.15-4.79,0.33-7.19,0.38c-54.6,0.98-109.19,1.98-163.79,2.91c-50.91,0.87-101.82,2.42-152.72,2.29
	c-69.92-0.17-139.84-1.44-209.75-2.66c-26.92-0.47-53.81-2.15-80.72-3.21c-16.95-0.67-34.06,0.03-50.82-2.1
	c-23.72-3.02-47.46-1.66-71.17-2.78c-15.26-0.72-30.51-1.57-45.76-2.52c-13.24-0.82-26.46-1.88-39.69-2.81
	c-11.89-0.83-23.8-1.5-35.68-2.47c-16.12-1.31-32.22-2.88-48.33-4.25c-15.56-1.33-31.14-2.39-46.68-3.87
	c-14.39-1.37-28.73-3.18-43.1-4.72c-10.96-1.17-21.96-2.1-32.91-3.37c-12.71-1.47-25.39-3.17-38.07-4.79
	c-7.83-1.01-15.66-2.02-23.48-3.12c-11.75-1.65-23.49-3.35-35.23-5.06c-6.89-1-13.79-1.94-20.65-3.14
	c-8.76-1.54-17.47-3.36-26.22-4.97c-6.12-1.12-12.3-1.9-18.39-3.18c-6.74-1.42-13.38-3.29-20.09-4.86
	c-4.76-1.11-9.62-1.87-14.34-3.13c-5.43-1.45-10.78-3.21-16.12-4.96c-8.61-2.82-17.23-5.61-25.72-8.74
	c-2.02-0.74-3.57-2.76-5.34-4.2C32.12,892.39,32.46,891.87,32.79,891.35z"/>
<path class="st0" d="M1293.49,895.37c-52.91,0.71-103.81,1.24-154.71,2.12c-54.4,0.93-108.79,2.72-163.19,3.18
	c-95.21,0.8-190.43,1.13-285.65,1.08c-30.79-0.02-61.59-1.85-92.38-2.85c-21.35-0.7-42.7-1.28-64.04-2.13
	c-14.36-0.57-28.72-1.22-43.04-2.37c-15.75-1.27-31.44-3.15-47.16-4.77c-0.55-0.06-1.09-0.2-1.64-0.23
	c-18.19-0.98-36.4-1.64-54.55-3.03c-13.18-1.01-26.28-2.97-39.41-4.52c-0.73-0.09-1.44-0.35-2.17-0.41
	c-13.9-1.02-27.84-1.75-41.71-3.11c-11.13-1.09-22.18-2.92-33.26-4.44c-0.73-0.1-1.43-0.42-2.15-0.49
	c-11.49-1.06-23.01-1.88-34.47-3.21c-9.45-1.1-18.82-2.82-28.23-4.23c-8.5-1.28-17.03-2.4-25.51-3.8c-8.45-1.4-16.85-3.07-25.28-4.6
	c-6.46-1.17-12.93-2.25-19.38-3.48c-8.02-1.53-16.04-3.11-24.04-4.78c-9.42-1.96-18.87-3.83-28.21-6.13
	c-5.65-1.39-11.12-3.48-16.65-5.33c-7.9-2.64-15.97-4.88-23.62-8.14c-8.17-3.48-16.79-6.64-22.11-14.59
	c-0.61-0.91-1.88-1.74-1.91-2.63c-0.05-1.87,0.52-3.76,0.83-5.64c1.6,0.4,3.44,0.43,4.75,1.28c4.53,2.97,8.62,6.72,13.38,9.22
	c3.92,2.06,8.49,3.56,12.88,3.9c12.42,0.96,23.93,6.3,36.73,6.14c11.01-0.14,22.05,2.69,33.08,4.15c8.73,1.15,17.46,2.45,26.23,3.24
	c13.7,1.23,27.43,2.21,41.16,3.07c26.27,1.66,52.56,3.16,78.84,4.74c0.92,0.06,1.84,0.2,2.76,0.24c25.94,1.05,51.87,2.13,77.81,3.12
	c40.35,1.53,80.7,3.1,121.06,4.42c21.21,0.69,42.43,0.82,63.64,1.33c32.43,0.78,64.87,1.54,97.29,2.57
	c32.07,1.01,64.13,2.35,96.19,3.54c18.62,0.69,37.25,1.09,55.85,2.1c90.3,4.94,180.69,5.31,271.08,5.35
	c122.35,0.06,244.71-0.25,367.06-0.86c36.31-0.18,72.63-1.76,108.93-3.02c39.24-1.37,78.47-3.07,117.69-4.73
	c19.32-0.82,38.65-1.62,57.95-2.87c23.85-1.54,47.67-3.55,71.51-5.32c12.09-0.9,24.22-1.41,36.27-2.63
	c11.48-1.17,22.87-3.16,34.32-4.56c10.57-1.29,21.2-2.09,31.76-3.42c10.32-1.31,20.6-3.01,30.89-4.55c7.6-1.14,15.25-2,22.76-3.55
	c9.39-1.94,18.67-4.39,27.96-6.77c4.57-1.17,9.31-2.16,13.52-4.17c4.2-2.01,7.81-5.22,11.72-7.86c1.76-1.19,3.5-2.57,5.46-3.27
	c0.89-0.32,2.75,0.5,3.32,1.36c0.45,0.69-0.15,2.36-0.71,3.36c-4.51,8.06-12.24,11.72-20.46,14.61c-7.37,2.59-14.68,5.43-22.2,7.47
	c-8.95,2.42-18.08,4.14-27.15,6.09c-7.8,1.67-15.61,3.27-23.43,4.85c-4.48,0.91-8.95,1.84-13.46,2.56
	c-7.57,1.21-15.17,2.27-22.77,3.38c-11.18,1.63-22.37,3.24-33.55,4.89c-6.35,0.94-12.67,2.19-19.04,2.88
	c-11.1,1.2-22.25,1.99-33.37,3.11c-11.12,1.12-22.2,2.5-33.32,3.63c-14.99,1.53-29.98,3.01-44.99,4.37
	c-18.44,1.67-36.9,3.17-55.34,4.81c-10.82,0.96-21.6,2.4-32.43,3.04c-21.11,1.25-42.26,1.84-63.37,3.18
	c-18.39,1.16-36.72,3.18-55.1,4.42c-10.29,0.69-20.64,0.43-30.96,0.84c-25.39,1.02-50.79,1.97-76.16,3.33
	C1354.41,891.52,1322.97,893.59,1293.49,895.37z"/>
<path class="st0" d="M1128.07,710.35c-1.61,0.17-3.22,0.44-4.84,0.5c-30.2,1.23-60.39,2.51-90.59,3.62
	c-44.96,1.66-89.93,2.94-134.88,4.87c-26.1,1.12-52.15,3.29-78.23,4.83c-12.33,0.73-24.69,1.06-37.03,1.64
	c-9.02,0.42-18.03,1.05-27.05,1.43c-25.39,1.06-50.81,1.74-76.18,3.11c-25.34,1.37-50.64,3.46-75.96,5.11
	c-15.79,1.03-31.62,1.5-47.38,2.8c-14.43,1.18-28.8,3.14-43.19,4.75c-0.55,0.06-1.09,0.19-1.64,0.23c-16.51,0.98-33.05,1.67-49.53,3
	c-13.52,1.1-26.97,3.06-40.48,4.43c-6.04,0.61-12.15,1.2-18.2,0.99c-28.75-0.98-57.48-2.21-86.22-3.41
	c-15.04-0.63-30.09-1.32-45.12-2.13c-15.26-0.82-30.52-1.82-45.77-2.76c-0.91-0.06-1.96-0.07-2.7-0.51
	c-1.28-0.76-2.36-1.85-3.53-2.8c1.35-0.67,2.64-1.7,4.06-1.94c7.02-1.22,14.07-2.36,21.13-3.3c12.86-1.72,25.76-3.23,38.62-4.93
	c6.52-0.86,13.01-1.98,19.53-2.9c11.45-1.61,22.9-3.15,34.35-4.71c1.1-0.15,2.2-0.23,3.3-0.32c21.61-1.76,43.21-3.72,64.84-5.23
	c18.19-1.26,36.41-1.96,54.62-2.96c29.97-1.66,59.92-3.58,89.9-4.98c28-1.31,56.03-2.36,84.05-3.04c25.09-0.6,50.22,0.18,75.28-0.88
	c92.41-3.9,184.85-1.41,277.27-1.47c37.8-0.02,75.61,1.36,113.41,2.41c9.46,0.26,18.88,1.73,28.31,2.64
	C1128.16,709.07,1128.12,709.71,1128.07,710.35z"/>
<path class="st0" d="M1687.4,1201.72c4.2-0.79,7.96-2.02,11.7-1.98c1.72,0.02,3.96,2.16,5.05,3.91
	c23.14,37.06,46.12,74.21,69.2,111.31c5.12,8.23,10.47,16.32,16.98,23.99c-10.21-50.16-20.41-100.33-30.77-151.23
	c5.87-1.2,11.4-2.33,17.8-3.64c14.86,71.17,29.66,142.07,44.56,213.45c-4.1,0.9-7.65,2.22-11.21,2.25
	c-1.76,0.02-4.12-1.96-5.22-3.67c-22.5-35.06-44.89-70.2-67.22-105.37c-7-11.02-13.78-22.17-21.76-32.91
	c9.68,51.37,19.37,102.75,29.19,154.88c-6.24,1.24-12.08,2.39-18.85,3.73C1713.68,1344.79,1700.6,1273.56,1687.4,1201.72z"/>
<path class="st0" d="M1606.96,1436.41c-11.27,0.08-16.95-4.93-18.52-15.35c-3.56-23.69-6.94-47.41-10.46-71.11
	c-5.24-35.34-10.59-70.66-15.72-106.01c-0.62-4.3-0.93-8.94,0.04-13.09c1.37-5.85,6.09-9.19,11.95-10.17
	c20.55-3.42,41.11-6.84,61.73-9.85c10.62-1.55,16.76,3.8,18.79,15.47c9.2,52.81,18.35,105.63,27.52,158.45
	c1.23,7.08,2.45,14.16,3.65,21.24c1.78,10.54-2.8,17.76-13.47,19.7c-19.04,3.45-38.17,6.37-57.26,9.49
	C1611.94,1435.72,1608.65,1436.16,1606.96,1436.41z M1635.49,1228.18c-2.31,0.18-3.79,0.18-5.23,0.41
	c-14.2,2.26-28.4,4.56-42.6,6.83c-7.08,1.13-7.02,1.09-5.91,8.35c7.65,49.67,15.27,99.35,22.92,149.03
	c1.33,8.65,2.75,17.28,4.22,26.51c19.46-3.12,38.08-6.1,57.25-9.17C1655.86,1349.11,1645.72,1288.91,1635.49,1228.18z"/>
<path class="st0" d="M1397.27,1462.59c-1.83-18.11-3.59-35.5-5.33-52.88c-3.47-34.61-6.92-69.23-10.37-103.84
	c-1.86-18.68-3.65-37.38-5.62-56.05c-0.36-3.41,0.81-4.52,4.09-4.84c16.32-1.57,32.61-3.45,48.94-4.98
	c20.87-1.96,39.12,12.51,42.07,33.73c3.12,22.43,5.69,44.94,8.5,67.41c2.79,22.27,4.99,44.64,8.51,66.8
	c5.18,32.56-18.41,47.8-39.05,49.5c-15.42,1.27-30.78,3.24-46.17,4.87C1401.22,1462.48,1399.59,1462.48,1397.27,1462.59z
	 M1415.87,1444.05c9.68-1.03,18.82-1.96,27.95-3c2.19-0.25,4.38-0.68,6.5-1.3c12.57-3.69,19.36-13.1,17.9-25.61
	c-5.28-45.19-10.66-90.36-16.21-135.52c-1.8-14.63-12.26-22.73-27-21.44c-7.9,0.69-15.76,1.87-23.67,2.44
	c-3.95,0.28-4.75,1.65-4.34,5.53c5.55,52.4,10.91,104.81,16.35,157.22C1414.09,1429.46,1414.99,1436.53,1415.87,1444.05z"/>
<path class="st0" d="M982.87,1361c0-26.66,0-52.93,0-80.14c-3.35,0-6.78,0.04-10.21-0.01c-11.62-0.16-23.25-0.21-34.87-0.61
	c-3.99-0.14-5.45,0.88-5.51,5.15c-0.6,44.78-1.39,89.57-2.15,134.35c-0.33,19.35-0.7,38.7-1.07,58.05c-0.02,1.07-0.18,2.15-0.3,3.57
	c-6.57,0-12.9,0-20.05,0c1.62-72.72,3.22-145.03,4.84-217.61c1.76-0.21,2.98-0.49,4.21-0.48c21.77,0.2,43.55,0.43,65.32,0.65
	c13.89,0.14,19.62,5.73,19.67,19.43c0.08,25.25,0.13,50.5,0.12,75.76c0,12.05-4.46,17.21-16.54,18.42
	c-5.61,0.56-11.33,0.1-18.07,0.1c13.09,35.23,25.88,69.65,39,104.97c-6.81,0-12.83,0.33-18.78-0.23c-1.56-0.15-3.49-2.84-4.17-4.75
	c-11.86-33.13-23.55-66.32-35.27-99.5c-1.23-3.47-2.5-6.93-3.61-10.44c-1.38-4.37,0.23-6.61,4.91-6.64
	C961,1360.95,971.66,1361,982.87,1361z"/>
<path class="st0" d="M312.83,1202.08c-13.15,71.71-26.16,142.68-39.34,214.51c-6.69-1.18-13.08-2.31-19.98-3.53
	c6.42-34.33,12.74-68.1,19.22-102.74c-18.1-3.52-35.9-6.98-54.63-10.61c-7,34.07-13.94,67.81-20.99,102.12
	c-6.8-1.36-13.04-2.61-19.93-3.99c2.63-12.52,5.16-24.52,7.66-36.53c11.89-56.96,23.83-113.91,35.53-170.92
	c1.03-5.04,2.76-6.13,7.66-5.02c12.46,2.82,12.59,2.61,10.13,14.88c-5.14,25.63-10.39,51.23-15.58,76.85
	c-0.29,1.42-0.44,2.86-0.77,5.07c18,3.55,35.78,7.05,54.27,10.7c5.97-31.67,11.86-62.87,17.82-94.46
	C300.33,1199.66,306.23,1200.8,312.83,1202.08z"/>
<path class="st0" d="M1038.73,1412c6.49,0,12.51,0,19.62,0c0,17.55,0,34.95,0,52.43c17.73,0,34.35,0,51.14,0
	c0-9.42-0.69-18.09,0.14-26.6c1.78-18.12-4.33-31.96-17.61-44.79c-16.92-16.36-31.67-34.96-47.39-52.56
	c-4.89-5.47-7.3-11.68-7.26-19.11c0.07-12.9-0.36-25.8-0.47-38.7c-0.11-12.82,5.67-18.69,18.34-18.93
	c16.97-0.33,33.94-0.78,50.91-1.03c11.9-0.17,17.93,5.42,18.14,17.3c0.27,15.82,0.07,31.64,0.07,48.16c-5.03,0-11.14,0-17.85,0
	c-0.4-11.58-0.91-23.3-1.17-35.03c-0.31-13.63-0.21-13.58-13.59-13.28c-10.33,0.24-20.66,0.4-31,0.42
	c-3.26,0.01-4.62,1.02-4.54,4.47c0.32,12.9,0.26,25.81,0.75,38.69c0.08,2.26,1.66,4.83,3.26,6.61
	c19.82,22.1,39.67,44.17,59.74,66.05c5.79,6.31,8.82,13.2,8.89,21.86c0.11,14.55,0.9,29.1,1.38,43.66
	c0.42,12.73-5.18,18.82-17.96,19.18c-18.07,0.5-36.15,0.91-54.23,1.16c-13.44,0.19-19.26-5.67-19.29-19.05
	C1038.71,1446.15,1038.73,1429.41,1038.73,1412z"/>
<path class="st0" d="M1368.24,1465.5c-6.33,0.58-11.79,1.41-17.25,1.35c-1.42-0.02-3.57-2.62-4.08-4.4
	c-3.58-12.56-6.97-25.18-10.07-37.87c-0.94-3.86-2.5-4.9-6.43-4.51c-12.11,1.21-24.26,2.11-36.41,2.81
	c-3.99,0.23-5.31,1.76-5.61,5.62c-1.02,13.04-2.47,26.04-3.52,39.08c-0.29,3.65-1.64,5.21-5.38,5.23
	c-4.78,0.02-9.56,0.49-15.25,0.82c0.59-5.79,1.09-11.35,1.73-16.89c6.51-56.15,13.05-112.3,19.55-168.46
	c1.23-10.61,2.44-21.22,3.34-31.86c0.28-3.25,1.46-4.31,4.61-4.69c14.97-1.77,14.78-1.81,18.83,12.79
	c17.86,64.39,35.83,128.76,53.76,193.13C1366.7,1459.92,1367.33,1462.2,1368.24,1465.5z M1290.41,1406.58
	c14.17-1.17,27.33-2.26,40.98-3.39c-9.87-38.39-19.54-75.98-29.21-113.58c-0.36,0.05-0.71,0.1-1.07,0.15
	C1297.58,1328.39,1294.04,1367.03,1290.41,1406.58z"/>
<path class="st0" d="M418.89,1219.81c-0.84,5.49-1.61,10.51-2.52,16.46c-17.12-2.68-33.94-5.3-51.42-8.04
	c-4.46,26.83-8.85,53.23-13.31,80.09c16.31,2.69,31.88,5.27,47.92,7.92c-0.86,5.75-1.67,11.13-2.6,17.36
	c-16-2.51-31.74-4.97-48.39-7.58c-4.74,28.13-9.43,55.95-14.22,84.42c18.41,2.98,36.19,5.86,54.76,8.87
	c-0.78,5.44-1.51,10.57-2.36,16.54c-25.31-4.17-49.94-8.23-75.22-12.39c12.46-71.87,24.81-143.09,37.28-214.98
	C372.16,1212.26,395.02,1215.95,418.89,1219.81z"/>
<path class="st0" d="M879.59,1262.32c0.42,0.84,0.58,1.01,0.57,1.17c-0.19,19.55,2.1,15.23-14.52,15.09
	c-12.31-0.11-24.62-0.02-37.66-0.02c-0.41,7.81-0.9,16.59-1.31,25.37c-0.75,16.38-1.3,32.78-2.25,49.15
	c-0.26,4.47,1.2,5.66,5.48,5.74c14,0.27,27.98,0.92,42.37,1.44c0,5.76,0,11.32,0,17.71c-16.27-0.58-32.01-1.13-48.71-1.72
	c-1.26,28.49-2.5,56.54-3.78,85.54c18.37,0.73,36.33,1.45,54.75,2.18c0,5.4,0,10.6,0,16.73c-25.31-1.05-50.23-2.08-75.87-3.14
	c3.65-72.98,7.26-145.19,10.9-218.02C833.25,1260.48,856.4,1261.4,879.59,1262.32z"/>
<path class="st0" d="M776.32,1257.95c-0.29,5.63-0.55,10.7-0.84,16.38c-17.48-1.07-34.33-2.11-51.74-3.18
	c-1.97,27.1-3.9,53.67-5.89,80.96c16.11,1.12,31.86,2.21,48.44,3.36c-0.38,5.84-0.75,11.39-1.15,17.64
	c-16.24-1.03-32-2.02-48.6-3.07c-2.07,28.23-4.12,56.26-6.23,85c2.89,0.35,5.53,0.8,8.18,0.98c13.99,0.93,27.98,1.91,41.98,2.6
	c4.04,0.2,5.64,1.48,5.01,5.66c-0.51,3.41-0.39,6.91-0.6,11.37c-25.36-1.69-50.27-3.36-75.84-5.07c0.35-5.73,0.58-10.98,0.99-16.22
	c5.09-65.21,10.25-130.42,15.22-195.64c0.34-4.52,1.6-5.83,6.26-5.45c20.05,1.6,40.13,2.78,60.19,4.13
	C772.96,1257.48,774.21,1257.69,776.32,1257.95z"/>
<path class="st0" d="M524.24,1251.32c-11.68-1.46-22.73-2.84-34.23-4.28c-8.96,66.76-17.83,132.92-26.78,199.57
	c-6.78-0.9-12.94-1.72-20.14-2.68c9.26-66.52,18.49-132.77,27.79-199.57c-11.53-1.73-22.57-3.38-34.2-5.13
	c0.79-5.52,1.54-10.69,2.32-16.18c29.23,3.99,57.99,7.92,87.4,11.93C525.66,1240.55,524.98,1245.73,524.24,1251.32z"/>
<path class="st0" d="M1211.92,1477.64c-6.46,0-12.13,0.22-17.75-0.2c-1.03-0.08-2.59-2.71-2.68-4.23
	c-0.98-16.55-1.73-33.11-2.5-49.67c-2.2-46.92-4.39-93.84-6.6-140.75c-0.09-1.81-0.32-3.62-0.55-6.15
	c-9.51,0.42-18.7,0.54-27.83,1.33c-5.35,0.46-7.42-1.21-6.87-6.56c0.31-3.06,0.06-6.18,0.06-9.88c2.87-0.25,5.74-0.6,8.62-0.74
	c24.31-1.18,48.62-2.22,72.92-3.58c4.42-0.25,6.55,0.6,6.35,5.41c-0.14,3.43,0.38,6.88,0.64,10.86c-11.69,0.77-22.8,1.5-34.5,2.28
	C1204.78,1342.96,1208.31,1409.62,1211.92,1477.64z"/>
<path class="st0" d="M585.4,1461.38c7.53-72.7,14.98-144.67,22.49-217.26c6.32,0.63,12.29,1.22,19.03,1.88
	c-6.51,66.71-13,133.17-19.58,200.52c18.21,1.72,35.87,3.4,54.09,5.12c-0.47,5.64-0.9,10.68-1.39,16.55
	C635.1,1465.92,610.75,1463.69,585.4,1461.38z"/>
<path class="st0" d="M1502.57,1230.91c6.61-0.88,12.41-1.66,19.02-2.54c9.97,72.04,19.91,143.8,29.91,216.07
	c-6.72,0.9-13.03,1.74-20.14,2.69C1521.75,1374.97,1512.21,1303.32,1502.57,1230.91z"/>
<path class="st0" d="M991.17,1084.12c0-20.97-0.31-37.91,0.15-54.84c0.18-6.81,1.94-13.59,3.27-20.32c0.21-1.05,2.56-2.73,2.93-2.51
	c1.73,1.05,4.17,2.49,4.44,4.11c1.36,8.04,2.86,16.18,2.94,24.3c0.32,31.67,0.29,63.34-0.02,95.01c-0.06,6.46-1.55,12.98-3.07,19.31
	c-0.41,1.71-3.33,2.81-5.1,4.19c-0.84-1.62-1.96-3.15-2.46-4.86C987.65,1125.96,993.25,1102.86,991.17,1084.12z"/>
<path class="st0" d="M1386.07,1069.88c0,12.88,0.33,25.78-0.13,38.64c-0.25,7.02-1.61,14.04-3.05,20.94
	c-0.32,1.51-3.1,2.52-4.74,3.75c-0.96-1.37-2.19-2.63-2.82-4.13c-4.95-11.78-2.83-24.21-2.99-36.39
	c-0.28-22.27-0.31-44.54,0.06-66.8c0.09-5.73,1.9-11.46,3.3-17.09c0.28-1.12,3.16-2.76,3.4-2.54c1.63,1.45,3.56,3.14,4.14,5.12
	c4.63,15.75,2.44,31.97,2.87,48.01c0.09,3.49,0.01,6.99,0.01,10.49C1386.1,1069.88,1386.08,1069.88,1386.07,1069.88z"/>
<path class="st0" d="M621.62,1005.29c1.66,5.24,4.7,10.46,4.77,15.72c0.45,32.2,0.48,64.42-0.01,96.62
	c-0.08,5.63-3.24,11.21-5.25,17.69c-6.38-4.35-7.71-10.03-7.77-14.79c-0.45-33.68-0.44-67.36-0.08-101.04
	c0.05-4.94,2.01-10.18,5.63-14.1C619.82,1005.36,620.72,1005.32,621.62,1005.29z"/>
<path class="st0" d="M306.94,1045.32c0-11.41-0.39-22.84,0.16-34.23c0.28-5.89,2.12-11.72,3.51-17.52c0.21-0.86,2.16-2.16,2.7-1.91
	c1.71,0.77,4.06,1.91,4.5,3.39c1.47,5,3.04,10.21,3.11,15.36c0.33,24.11,0.34,48.22,0.04,72.33c-0.06,5.2-1.56,10.47-3.08,15.5
	c-0.5,1.65-3.13,2.65-4.79,3.94c-0.95-1.33-2.03-2.58-2.82-3.99c-5.08-9.03-3.03-18.98-3.43-28.58c-0.34-8.08-0.07-16.19-0.07-24.29
	C306.83,1045.32,306.89,1045.32,306.94,1045.32z"/>
<path class="st0" d="M1688.58,988.68c2.14,5.31,5.36,9.68,5.43,14.1c0.46,29.29,0.39,58.59,0.08,87.88
	c-0.04,3.35-2.43,6.77-4.16,9.92c-0.3,0.55-3.83,0.35-4.06-0.24c-1.96-4.84-4.81-9.83-4.92-14.83c-0.51-23.39,0.01-46.8-0.34-70.19
	C1680.47,1006.26,1681.5,997.83,1688.58,988.68z"/>
</svg>
