
<svg width="717" height="546" viewBox="0 0 717 546" fill="none" xmlns="http://www.w3.org/2000/svg">
<g clip-path="url(#clip0_632_820)">
<path d="M591.452 79.8357C591.452 79.8357 535.87 5.53914 443.606 0.292447C351.343 -4.95424 299.882 57.834 262.114 104.934C224.347 152.034 110.009 124.802 40.7682 197.018C-28.4726 269.233 5.10443 311.069 35.5945 352.922C66.0846 394.775 95.2468 401.105 95.2468 435.613C95.2468 470.121 112.044 516.188 178.129 526.647C244.214 537.106 312.402 473.32 359.603 497.404C406.804 521.487 486.013 540.306 534.542 526.647C583.071 512.989 568.361 462.81 620.77 446.072C673.179 429.334 723.57 377.005 716.224 320.496C708.877 263.986 666.919 253.527 649.087 199.116C631.255 144.705 606.145 102.852 591.452 79.8357Z" fill="#09302F"/>
<path d="M654.657 538.414C654.657 541.459 558.082 543.918 439.088 543.918C320.094 543.918 223.519 541.459 223.519 538.414C223.519 535.369 320.094 532.926 439.088 532.926C558.082 532.926 654.657 535.386 654.657 538.414Z" fill="#203333"/>
<path d="M484.099 28.2461H281.55C275.245 28.2461 270.134 33.3446 270.134 39.634V118.61C270.134 124.899 275.245 129.998 281.55 129.998H484.099C490.404 129.998 495.516 124.899 495.516 118.61V39.634C495.516 33.3446 490.404 28.2461 484.099 28.2461Z" fill="#C6FF00"/>
<path d="M484.099 28.2461H281.55C275.245 28.2461 270.134 33.3446 270.134 39.634V118.61C270.134 124.899 275.245 129.998 281.55 129.998H484.099C490.404 129.998 495.516 124.899 495.516 118.61V39.634C495.516 33.3446 490.404 28.2461 484.099 28.2461Z" fill="#03EECA"/>
<path d="M270.134 112.107V148.851L290.673 125.25" fill="#C6FF00"/>
<path d="M270.134 112.107V148.851L290.673 125.25" fill="#03EECA"/>
<path d="M443.607 84.0675H298.072C296.992 84.0675 295.957 83.6398 295.194 82.8784C294.43 82.1171 294.002 81.0844 294.002 80.0077C294.006 78.934 294.437 77.9058 295.2 77.1482C295.963 76.3905 296.995 75.9652 298.072 75.9652H443.607C444.683 75.9652 445.716 76.3905 446.478 77.1482C447.241 77.9058 447.672 78.934 447.677 80.0077C447.677 80.5409 447.571 81.0688 447.367 81.5613C447.162 82.0539 446.862 82.5014 446.485 82.8784C446.107 83.2554 445.658 83.5544 445.164 83.7584C444.67 83.9625 444.141 84.0675 443.607 84.0675Z" fill="#203333"/>
<path d="M443.607 102.715H298.072C297.537 102.715 297.008 102.61 296.514 102.406C296.02 102.202 295.572 101.903 295.194 101.526C294.816 101.149 294.516 100.701 294.312 100.209C294.107 99.716 294.002 99.1881 294.002 98.6549C294.006 97.5812 294.437 96.553 295.2 95.7954C295.963 95.0378 296.995 94.6124 298.072 94.6124H443.607C444.683 94.6124 445.716 95.0378 446.478 95.7954C447.241 96.553 447.672 97.5812 447.677 98.6549C447.677 99.1881 447.571 99.716 447.367 100.209C447.162 100.701 446.862 101.149 446.485 101.526C446.107 101.903 445.658 102.202 445.164 102.406C444.67 102.61 444.141 102.715 443.607 102.715Z" fill="#203333"/>
<path d="M306.194 65.4202C314.271 65.4202 320.819 58.8891 320.819 50.8326C320.819 42.7762 314.271 36.2451 306.194 36.2451C298.118 36.2451 291.57 42.7762 291.57 50.8326C291.57 58.8891 298.118 65.4202 306.194 65.4202Z" fill="#203333"/>
<path d="M484.099 165.95H281.55C275.245 165.95 270.134 171.049 270.134 177.338V256.314C270.134 262.603 275.245 267.702 281.55 267.702H484.099C490.404 267.702 495.516 262.603 495.516 256.314V177.338C495.516 171.049 490.404 165.95 484.099 165.95Z" fill="#C6FF00"/>
<path d="M484.099 165.95H281.55C275.245 165.95 270.134 171.049 270.134 177.338V256.314C270.134 262.603 275.245 267.702 281.55 267.702H484.099C490.404 267.702 495.516 262.603 495.516 256.314V177.338C495.516 171.049 490.404 165.95 484.099 165.95Z" fill="#60A78A"/>
<path d="M270.134 249.794V286.538L290.673 262.937" fill="#C6FF00"/>
<path opacity="0.1" d="M270.134 249.794V286.538L290.673 262.937" fill="black"/>
<path d="M443.607 221.754H298.072C296.995 221.754 295.963 221.329 295.2 220.571C294.437 219.814 294.006 218.786 294.002 217.712C294.002 216.635 294.43 215.603 295.194 214.841C295.957 214.08 296.992 213.652 298.072 213.652H443.607C444.141 213.652 444.67 213.757 445.164 213.961C445.658 214.165 446.107 214.464 446.485 214.841C446.862 215.218 447.162 215.666 447.367 216.158C447.571 216.651 447.677 217.179 447.677 217.712C447.672 218.786 447.241 219.814 446.478 220.571C445.716 221.329 444.683 221.754 443.607 221.754Z" fill="white"/>
<path d="M443.607 240.402H298.072C296.995 240.402 295.963 239.976 295.2 239.219C294.437 238.461 294.006 237.433 294.002 236.359C294.002 235.282 294.43 234.25 295.194 233.489C295.957 232.727 296.992 232.299 298.072 232.299H443.607C444.141 232.299 444.67 232.404 445.164 232.608C445.658 232.812 446.107 233.112 446.485 233.489C446.862 233.866 447.162 234.313 447.367 234.806C447.571 235.298 447.677 235.826 447.677 236.359C447.672 237.433 447.241 238.461 446.478 239.219C445.716 239.976 444.683 240.402 443.607 240.402Z" fill="white"/>
<path d="M306.194 203.107C314.271 203.107 320.819 196.576 320.819 188.52C320.819 180.463 314.271 173.932 306.194 173.932C298.118 173.932 291.57 180.463 291.57 188.52C291.57 196.576 298.118 203.107 306.194 203.107Z" fill="white"/>
<path d="M113.614 367.561C113.458 367.561 112.769 356.775 112.803 356.087C113.2 348.122 118.684 332.95 127.358 330.645C128.806 330.3 130.311 330.263 131.774 330.537C133.238 330.811 134.626 331.39 135.85 332.236C137.074 333.081 138.105 334.175 138.877 335.445C139.648 336.715 140.142 338.134 140.327 339.607C141.327 345.834 137.257 352.475 133.135 356.809C128.272 361.833 113.614 367.561 113.614 367.561Z" fill="#60A78A"/>
<path d="M102.3 326C102.145 326 103.094 315.232 103.232 314.543C104.853 306.734 112.579 292.559 121.478 291.596C122.962 291.474 124.455 291.666 125.86 292.159C127.265 292.651 128.55 293.433 129.632 294.454C130.713 295.474 131.568 296.711 132.139 298.083C132.71 299.455 132.985 300.931 132.946 302.416C132.946 308.729 127.962 314.681 123.237 318.311C117.666 322.577 102.3 326 102.3 326Z" fill="#60A78A"/>
<path d="M99.4377 276.957C99.2825 276.957 100.248 266.188 100.386 265.5C101.99 257.69 109.716 243.515 118.632 242.552C120.115 242.431 121.608 242.622 123.012 243.115C124.416 243.608 125.7 244.39 126.78 245.411C127.861 246.432 128.713 247.669 129.283 249.04C129.852 250.412 130.124 251.888 130.083 253.372C130.083 259.685 125.116 265.62 120.374 269.267C114.803 273.533 99.455 276.957 99.4377 276.957Z" fill="#60A78A"/>
<path d="M94.4883 230.803C94.3331 230.803 95.2988 220.017 95.4368 219.346C97.0406 211.519 104.767 197.362 113.683 196.381C115.167 196.262 116.659 196.456 118.064 196.951C119.468 197.446 120.751 198.23 121.832 199.252C122.912 200.274 123.764 201.512 124.333 202.885C124.902 204.257 125.175 205.734 125.134 207.219C125.134 213.515 120.167 219.467 115.424 223.096C109.854 227.362 94.5055 230.803 94.4883 230.803Z" fill="#60A78A"/>
<path d="M79.7261 193.766C79.5881 193.766 77.6566 183.153 77.6049 182.464C77.0875 174.5 80.7953 158.794 89.1249 155.526C90.5235 155.016 92.0141 154.807 93.4993 154.911C94.9846 155.016 96.431 155.431 97.7444 156.131C99.0577 156.83 100.208 157.798 101.121 158.972C102.034 160.145 102.689 161.497 103.042 162.94C104.767 169.012 101.49 176.065 97.8684 180.813C93.6605 186.404 79.7261 193.766 79.7261 193.766Z" fill="#60A78A"/>
<path d="M109.043 367.681C109.216 367.681 104.508 357.859 104.129 357.274C99.8689 350.531 87.6418 339.968 78.9673 342.188C77.5372 342.595 76.2091 343.299 75.0697 344.252C73.9303 345.206 73.0051 346.388 72.3543 347.722C71.7035 349.056 71.3417 350.512 71.2926 351.995C71.2434 353.477 71.508 354.954 72.0691 356.328C74.242 362.263 81.0367 366.064 86.7623 367.802C93.5225 369.849 109.043 367.681 109.043 367.681Z" fill="#60A78A"/>
<path d="M99.9896 320.444C100.162 320.444 94.0054 311.43 93.557 310.914C88.3833 304.876 74.5869 296.292 66.3953 299.784C65.0397 300.401 63.83 301.296 62.845 302.411C61.86 303.526 61.122 304.836 60.6793 306.255C60.2366 307.674 60.099 309.17 60.2757 310.646C60.4524 312.122 60.9392 313.544 61.7045 314.819C64.7397 320.341 72.0518 323.076 77.967 323.936C84.8997 324.934 99.9896 320.444 99.9896 320.444Z" fill="#60A78A"/>
<path d="M97.3855 274.17C97.5407 274.17 91.4013 265.156 90.9529 264.64C85.7792 258.602 71.9828 250.018 63.774 253.527C62.4038 254.14 61.1797 255.035 60.1825 256.155C59.1853 257.275 58.4379 258.593 57.9895 260.022C57.5412 261.452 57.4023 262.96 57.5819 264.447C57.7615 265.934 58.2556 267.366 59.0314 268.648C62.0839 274.17 69.3788 276.905 75.3112 277.748C82.2957 278.677 97.3855 274.187 97.3855 274.17Z" fill="#60A78A"/>
<path d="M92.9189 231.715C93.0914 231.715 86.9347 222.701 86.4863 222.185C81.3127 216.147 67.5162 207.563 59.3246 211.055C57.9691 211.672 56.7593 212.567 55.7743 213.682C54.7893 214.797 54.0513 216.107 53.6086 217.526C53.1659 218.945 53.0283 220.441 53.205 221.917C53.3817 223.392 53.8686 224.814 54.6338 226.09C57.669 231.629 64.9811 234.347 70.8964 235.207C77.8291 236.204 92.9189 231.715 92.9189 231.715Z" fill="#60A78A"/>
<path d="M79.8295 195.16C79.9848 195.16 72.9313 186.868 72.3795 186.387C66.516 180.968 51.9608 173.932 44.1486 178.319C42.8659 179.081 41.7593 180.104 40.9013 181.323C40.0432 182.541 39.4532 183.927 39.1698 185.389C38.8864 186.851 38.9162 188.356 39.2571 189.806C39.598 191.256 40.2423 192.617 41.1478 193.801C44.7866 198.961 52.3402 200.888 58.3934 201.077C65.3261 201.284 79.8295 195.177 79.8295 195.16Z" fill="#60A78A"/>
<path d="M61.0147 164.953C61.1699 164.953 58.6865 154.39 58.4624 153.737C55.7548 146.219 46.0973 133.3 37.1296 133.593C35.6433 133.683 34.1926 134.084 32.872 134.771C31.5515 135.457 30.3906 136.413 29.4649 137.576C28.5393 138.74 27.8696 140.085 27.4995 141.524C27.1294 142.962 27.0672 144.463 27.3169 145.927C28.1792 152.189 33.991 157.349 39.1991 160.274C45.3213 163.714 60.9975 164.953 61.0147 164.953Z" fill="#60A78A"/>
<path d="M128.686 423.296C128.686 423.296 126.841 419.082 123.944 411.702C121.046 404.322 117.045 393.674 112.803 380.738C110.682 374.27 108.526 367.217 106.422 359.699C105.353 355.915 104.387 352.113 103.335 348.036C102.887 346.041 102.456 344.028 102.007 341.998C101.559 339.968 101.249 337.818 100.869 335.702C99.5078 327.024 98.627 318.278 98.2305 309.503C97.7994 300.575 97.6269 291.544 97.4028 282.513C97.1786 273.482 96.9544 264.485 96.2301 255.677C95.5983 247.052 94.3594 238.481 92.5223 230.029C90.6719 222.157 88.1209 214.466 84.8997 207.047C82.0231 200.371 78.7582 193.869 75.1215 187.574C71.7932 181.673 68.3785 176.495 65.3261 171.919C62.2736 167.344 59.4109 163.49 57.0137 160.342C52.2195 154.046 49.2188 150.675 49.2188 150.675C49.2188 150.675 52.2885 153.995 57.2379 160.17C59.6868 163.284 62.6185 167.051 65.8607 171.593C69.1028 176.134 72.5519 181.226 76.0183 187.075C79.8406 193.332 83.2955 199.805 86.3656 206.462C89.8055 213.899 92.5813 221.624 94.6607 229.547C96.7076 238.037 98.154 246.659 98.9893 255.351C99.9034 264.244 100.369 273.292 100.714 282.324C101.059 291.355 101.49 300.352 102.111 309.176C102.692 317.782 103.74 326.35 105.249 334.842C105.681 336.889 105.939 338.885 106.474 340.915C107.009 342.944 107.457 344.94 107.94 346.918C109.009 350.685 110.095 354.608 111.234 358.272C113.458 365.651 115.752 372.584 117.994 378.914C122.443 391.644 126.617 402.069 129.669 409.328C132.722 416.587 134.601 420.613 134.601 420.613C134.886 421.357 134.877 422.18 134.577 422.918C134.277 423.656 133.707 424.252 132.984 424.588C132.26 424.924 131.436 424.974 130.677 424.728C129.918 424.482 129.28 423.958 128.893 423.262L128.686 423.296Z" fill="#60A78A"/>
<path d="M169.299 356.62C169.144 356.62 171.576 346.041 171.8 345.387C174.456 337.87 184.044 324.882 192.995 325.123C194.481 325.202 195.934 325.593 197.259 326.271C198.583 326.948 199.75 327.896 200.682 329.054C201.615 330.211 202.292 331.551 202.67 332.988C203.048 334.424 203.119 335.923 202.876 337.388C202.066 343.65 196.289 348.862 191.098 351.821C184.924 355.296 169.403 356.62 169.299 356.62Z" fill="#263238"/>
<path d="M170.3 313.58C170.144 313.58 174.145 303.465 174.473 302.863C178.25 295.81 189.684 284.422 198.496 286.022C199.954 286.326 201.331 286.933 202.538 287.803C203.745 288.673 204.754 289.787 205.501 291.073C206.248 292.358 206.715 293.786 206.872 295.263C207.029 296.74 206.872 298.234 206.412 299.646C204.687 305.719 198.151 309.968 192.615 312.118C186.01 314.629 170.317 313.58 170.3 313.58Z" fill="#60A78A"/>
<path d="M181.475 265.741C181.302 265.741 185.303 255.626 185.631 255.024C189.408 247.988 200.859 236.6 209.671 238.183C211.129 238.488 212.506 239.097 213.713 239.969C214.919 240.842 215.928 241.958 216.673 243.245C217.418 244.532 217.883 245.961 218.038 247.439C218.192 248.917 218.033 250.411 217.57 251.824C215.845 257.879 209.309 262.145 203.773 264.296C197.254 266.807 181.475 265.741 181.475 265.741Z" fill="#60A78A"/>
<path d="M189.942 220.103C189.77 220.103 193.771 210.005 194.098 209.386C197.875 202.35 209.326 190.962 218.139 192.562C219.596 192.866 220.973 193.473 222.179 194.343C223.386 195.214 224.395 196.328 225.14 197.614C225.885 198.9 226.351 200.328 226.505 201.805C226.66 203.282 226.5 204.775 226.037 206.186C224.313 212.259 217.777 216.508 212.241 218.658C205.618 221.17 189.942 220.103 189.942 220.103Z" fill="#60A78A"/>
<path d="M186.372 180.383C186.2 180.383 187.39 169.632 187.545 168.961C189.27 161.168 197.341 147.165 206.274 146.391C207.76 146.303 209.247 146.527 210.64 147.05C212.033 147.572 213.301 148.382 214.36 149.425C215.418 150.468 216.245 151.722 216.787 153.105C217.328 154.488 217.571 155.969 217.501 157.452C217.501 163.766 212.327 169.597 207.464 173.124C201.807 177.269 186.372 180.383 186.372 180.383Z" fill="#60A78A"/>
<path d="M164.953 355.451C165.109 355.451 163.384 344.751 163.229 344.097C161.073 336.408 152.364 322.818 143.414 322.474C141.924 322.457 140.447 322.754 139.079 323.344C137.712 323.935 136.485 324.807 135.477 325.902C134.47 326.998 133.706 328.293 133.234 329.703C132.762 331.113 132.593 332.606 132.739 334.085C133.135 340.381 138.568 345.955 143.552 349.241C149.381 353.111 164.936 355.451 164.953 355.451Z" fill="#60A78A"/>
<path d="M169.679 307.594C169.851 307.594 166.506 297.272 166.23 296.619C162.919 289.342 152.244 277.232 143.345 278.247C141.87 278.457 140.457 278.974 139.196 279.765C137.935 280.556 136.855 281.603 136.027 282.838C135.199 284.073 134.641 285.468 134.39 286.933C134.138 288.397 134.198 289.898 134.567 291.338C135.912 297.496 142.138 302.192 147.553 304.687C153.882 307.628 169.662 307.594 169.679 307.594Z" fill="#60A78A"/>
<path d="M180.371 262.489C180.526 262.489 177.198 252.168 176.922 251.514C173.628 244.255 162.953 232.145 154.054 233.16C152.574 233.367 151.155 233.883 149.889 234.676C148.624 235.468 147.54 236.518 146.71 237.757C145.879 238.997 145.321 240.397 145.071 241.866C144.821 243.336 144.885 244.842 145.259 246.285C146.622 252.461 152.83 257.14 158.262 259.634C164.626 262.524 180.354 262.489 180.371 262.489Z" fill="#60A78A"/>
<path d="M188.183 220.482C188.356 220.482 185.01 210.16 184.734 209.507C181.423 202.247 170.765 190.12 161.849 191.152C160.375 191.359 158.962 191.875 157.701 192.664C156.441 193.453 155.361 194.499 154.532 195.733C153.704 196.966 153.146 198.36 152.894 199.824C152.642 201.287 152.703 202.787 153.071 204.225C154.416 210.401 160.642 215.08 166.074 217.574C172.438 220.482 188.183 220.482 188.183 220.482Z" fill="#60A78A"/>
<path d="M186.045 181.759C186.217 181.759 181.768 171.833 181.406 171.231C177.319 164.35 165.385 153.496 156.641 155.491C155.198 155.86 153.85 156.528 152.683 157.452C151.517 158.376 150.559 159.534 149.872 160.853C149.185 162.171 148.785 163.619 148.697 165.102C148.61 166.585 148.837 168.07 149.364 169.46C151.381 175.429 158.073 179.402 163.746 181.295C170.403 183.514 186.045 181.759 186.045 181.759Z" fill="#60A78A"/>
<path d="M176.629 147.458C176.767 147.458 177.405 136.672 177.353 135.984C176.905 128.002 171.334 112.864 162.66 110.611C161.209 110.276 159.704 110.251 158.243 110.535C156.781 110.819 155.397 111.407 154.178 112.261C152.96 113.115 151.935 114.214 151.171 115.489C150.407 116.764 149.92 118.184 149.743 119.659C148.777 125.903 152.882 132.509 157.038 136.861C161.918 141.816 176.611 147.441 176.629 147.458Z" fill="#60A78A"/>
<path d="M167.885 414.334C167.885 414.334 167.299 409.775 166.626 401.862C165.954 393.949 165.143 382.63 164.781 369.023C164.591 362.142 164.522 354.848 164.66 347.039C164.66 343.117 164.867 339.194 165.022 334.997C165.16 332.967 165.316 330.903 165.454 328.839C165.592 326.774 165.936 324.607 166.161 322.474C167.343 313.79 168.995 305.176 171.11 296.67C173.231 287.983 175.646 279.262 178.008 270.557C180.371 261.853 182.699 253.149 184.527 244.479C186.378 236.033 187.629 227.468 188.269 218.847C188.713 210.771 188.436 202.671 187.442 194.644C186.59 187.424 185.311 180.262 183.613 173.192C182.096 166.587 180.319 160.652 178.698 155.405C177.077 150.159 175.404 145.634 174.025 141.953C171.214 134.556 169.299 130.462 169.299 130.462C169.299 130.462 171.3 134.522 174.266 141.85C175.749 145.514 177.457 150.004 179.25 155.216C181.044 160.428 182.906 166.363 184.562 172.952C186.424 180.029 187.869 187.209 188.89 194.454C190.077 202.563 190.539 210.761 190.27 218.951C189.809 227.697 188.731 236.4 187.045 244.995C185.32 253.768 183.251 262.575 181.061 271.349C178.871 280.122 176.663 288.861 174.749 297.496C172.848 305.909 171.409 314.42 170.438 322.99C170.265 325.071 169.955 327.05 169.886 329.148C169.817 331.247 169.679 333.294 169.575 335.324C169.575 339.246 169.455 343.306 169.575 347.142C169.575 354.866 169.834 362.159 170.179 368.885C170.817 382.355 171.903 393.554 172.714 401.346C173.525 409.139 174.214 413.577 174.214 413.577C174.274 413.985 174.253 414.4 174.152 414.8C174.051 415.2 173.872 415.575 173.626 415.906C173.379 416.237 173.07 416.516 172.715 416.727C172.36 416.938 171.967 417.078 171.559 417.138C171.15 417.198 170.733 417.177 170.333 417.076C169.932 416.975 169.555 416.797 169.224 416.551C168.892 416.305 168.612 415.996 168.401 415.642C168.189 415.288 168.049 414.896 167.989 414.489V414.403L167.885 414.334Z" fill="#60A78A"/>
<path d="M187.89 528.092H114.872L94.333 408.795H208.412L187.89 528.092Z" fill="#2F5245"/>
<path d="M316.507 539.36C404.199 539.36 475.287 468.45 475.287 380.979C475.287 293.507 404.199 222.597 316.507 222.597C228.816 222.597 157.728 293.507 157.728 380.979C157.728 468.45 228.816 539.36 316.507 539.36Z" fill="#03EECA"/>
<path d="M274.445 485.138C261.013 480.195 248.702 472.634 238.23 462.896C227.665 452.766 219.479 440.429 214.258 426.771C208.339 411.456 205.406 395.155 205.618 378.742C205.505 364.729 207.984 350.814 212.931 337.698C217.403 325.666 224.101 314.579 232.677 305.013C249.624 286.477 271.539 273.171 295.83 266.67C307.748 263.48 320.033 261.861 332.373 261.853C342.612 261.816 352.817 263.029 362.76 265.465C372.368 267.837 381.565 271.636 390.042 276.733C398.42 281.763 405.927 288.113 412.272 295.535C418.91 303.51 423.973 312.668 427.189 322.525C430.913 333.747 432.749 345.506 432.621 357.325C432.493 380.065 424.328 402.03 409.564 419.357C403.182 426.627 395.6 432.754 387.145 437.471C379.869 441.68 371.635 443.966 363.225 444.111C357.453 444.181 351.815 442.369 347.17 438.95C344.824 437.232 342.915 434.989 341.594 432.402C340.274 429.815 339.578 426.956 339.564 424.053C329.723 437.884 316.409 444.799 299.624 444.799C285.954 444.799 275.032 440.137 266.857 430.814C258.683 421.49 254.613 410.022 254.647 396.409C254.685 386.053 256.492 375.779 259.994 366.03C263.419 356.173 268.327 346.892 274.549 338.506C280.724 330.237 288.612 323.39 297.675 318.431C306.714 313.338 316.922 310.671 327.303 310.69C334.515 310.617 341.631 312.35 347.997 315.73C354.201 319.013 359.232 324.134 362.397 330.387L363.743 326.017C364.358 324.182 365.399 322.517 366.781 321.16C368.163 319.802 369.848 318.789 371.697 318.204C373.546 317.618 375.508 317.477 377.422 317.792C379.337 318.106 381.149 318.868 382.713 320.014C383.71 320.826 384.502 321.861 385.023 323.036C385.545 324.211 385.781 325.491 385.713 326.774C385.715 328.004 385.511 329.224 385.11 330.387L363.708 401.346C361.294 409.466 360.087 415.033 360.087 418.049C360.087 423.164 362.702 425.716 367.933 425.704C374.763 425.704 381.471 422.574 388.059 416.312C395.157 409.248 400.635 400.732 404.114 391.352C408.212 381.09 410.307 370.143 410.288 359.097C410.389 349.366 408.963 339.679 406.063 330.387C403.658 322.374 399.82 314.862 394.733 308.213C389.903 302.155 384.071 296.965 377.487 292.869C370.914 288.74 363.742 285.647 356.224 283.7C348.521 281.697 340.592 280.685 332.632 280.689C322.51 280.702 312.44 282.121 302.711 284.904C292.722 287.755 283.201 292.037 274.445 297.616C265.615 303.178 257.62 309.96 250.698 317.76C243.559 325.973 237.994 335.425 234.28 345.645C230.151 356.787 228.082 368.584 228.176 380.463C227.952 394.534 230.513 408.511 235.712 421.593C240.15 432.938 247.197 443.085 256.286 451.215C265.048 458.821 275.17 464.71 286.12 468.573C297.664 472.649 309.832 474.686 322.077 474.593C335.167 474.617 348.184 472.638 360.673 468.727C361.933 468.303 363.258 468.099 364.588 468.125C365.852 468.074 367.113 468.296 368.283 468.778C369.453 469.259 370.504 469.987 371.365 470.912C373.019 472.626 373.941 474.915 373.935 477.294C374.098 479.208 373.561 481.117 372.423 482.666C371.285 484.216 369.623 485.302 367.744 485.723C352.157 490.48 335.962 492.96 319.663 493.086C304.231 493.201 288.908 490.508 274.445 485.138ZM328.941 416.88C335.444 412.2 340.277 405.57 342.738 397.957L356.534 349.55L355.62 347.589C354.743 345.993 353.684 344.504 352.464 343.151C350.815 341.261 349.022 339.501 347.101 337.887C344.633 335.905 341.829 334.378 338.823 333.38C331.015 330.623 322.45 330.918 314.852 334.206C310.72 335.982 306.923 338.448 303.625 341.499C300.182 344.698 297.121 348.283 294.502 352.182C291.768 356.219 289.456 360.525 287.604 365.032C285.748 369.524 284.31 374.177 283.31 378.932C282.322 383.453 281.813 388.066 281.792 392.693C281.774 395.661 281.952 398.626 282.326 401.57C282.647 404.177 283.225 406.747 284.051 409.242C284.781 411.501 285.82 413.648 287.138 415.624C288.355 417.453 289.884 419.054 291.656 420.355C293.542 421.729 295.664 422.749 297.916 423.365C300.566 424.1 303.307 424.453 306.056 424.414C314.311 424.503 322.361 421.852 328.941 416.88Z" fill="#203333"/>
<path d="M532.438 247.781C532.438 247.781 527.265 257.38 526.506 258.722C525.747 260.064 522.971 267.323 523.798 269.043C524.626 270.764 525.419 271.744 527.058 272.019C528.696 272.295 530.041 275.271 532.749 275.804C534.453 276.141 536.185 276.325 537.922 276.354C538.348 276.667 538.84 276.877 539.361 276.97C539.881 277.062 540.415 277.034 540.923 276.888C542.544 276.354 543.907 275.546 544.993 270.936C545.657 268.652 545.839 266.257 545.528 263.9L545.045 254.593L532.438 247.781Z" fill="white" stroke="#263238" stroke-width="0.91" stroke-linecap="round" stroke-linejoin="round"/>
<path d="M562.342 506.245C562.342 506.245 554.978 518.201 554.978 521.091C554.978 523.981 565.119 529.297 569.465 531.223C573.81 533.15 581.536 534.664 587.814 535.558C594.091 536.453 607.129 538.999 603.335 534.113C599.541 529.228 576.225 516.36 575.259 514.829C574.063 513.4 572.722 512.097 571.258 510.942L562.342 506.245Z" fill="white" stroke="#263238" stroke-width="0.91" stroke-linecap="round" stroke-linejoin="round"/>
<path d="M573.879 525.082L576.466 528.935C579.248 533.146 583.027 536.608 587.469 539.016C594.367 542.732 604.99 546.981 614.268 544.435C629.479 540.254 591.194 517.221 591.194 517.221C591.194 517.221 577.553 526.682 573.879 525.082Z" fill="white" stroke="#263238" stroke-width="0.91" stroke-linecap="round" stroke-linejoin="round"/>
<path d="M578.26 526.905C582.45 533.228 588.799 537.819 596.126 539.824C608.629 543.385 612.216 542.491 614.889 538.93" stroke="#263238" stroke-width="0.68" stroke-linecap="round" stroke-linejoin="round"/>
<path d="M555.927 518.889C555.927 518.889 569.723 528.746 576.466 528.935" stroke="#263238" stroke-width="0.68" stroke-linecap="round" stroke-linejoin="round"/>
<path d="M525.971 251.084C525.971 251.084 538.216 271.331 540.837 276.028C543.458 280.724 576.501 318.414 589.607 350.857C602.714 383.301 615.32 412.579 614.786 422.006C614.251 431.433 571.224 510.942 571.224 510.942L562.308 506.245C562.308 506.245 575.932 431.416 574.38 423.571C572.827 415.727 524.661 337.766 524.661 337.766C524.661 337.766 502.104 322.078 492.67 303.758" fill="#60A78A"/>
<path d="M527.713 301.676C527.713 301.676 520.901 316.315 520.901 318.414C520.901 320.513 559.186 432.998 570.206 458.63C577.181 475.048 583.306 491.814 588.555 508.86C588.555 508.86 592.763 514.021 589.607 519.319C586.451 524.618 573.879 528.213 571.258 523.499C568.637 518.786 542.924 494.256 531.921 469.622C520.918 444.988 505.173 403.17 496.24 387.481C484.472 367.393 473.967 346.596 464.784 325.209C453.23 298.012 441.348 268.527 441.348 268.527C456.921 269.825 472.598 268.072 487.497 263.367C511.64 255.522 521.988 240.505 521.988 240.505C521.988 240.505 528.127 256.159 529.696 259.187" fill="#60A78A"/>
<path d="M531.3 345.267L519.228 313.941L532.749 302.381" stroke="white" stroke-width="0.68" stroke-linecap="round" stroke-linejoin="round"/>
<path d="M544.355 312.978L519.228 313.941C519.228 313.941 519.228 304.308 514.882 298.046C510.537 291.785 509.571 290.821 509.088 288.895C508.827 287.138 508.827 285.353 509.088 283.597" stroke="white" stroke-width="0.68" stroke-linecap="round" stroke-linejoin="round"/>
<path d="M576.225 417.998C576.225 417.998 592.16 426.186 603.266 425.223" stroke="white" stroke-width="0.68" stroke-linecap="round" stroke-linejoin="round"/>
<path d="M579.122 422.814C579.122 422.814 590.228 431.983 599.817 434.392" stroke="white" stroke-width="0.68" stroke-linecap="round" stroke-linejoin="round"/>
<path d="M515.365 278.298C514.882 279.743 517.297 286.486 518.814 289.858C520.332 293.23 525.092 295.638 525.092 298.046C525.092 300.455 518.814 304.79 518.814 304.79" stroke="white" stroke-width="0.68" stroke-linecap="round" stroke-linejoin="round"/>
<path d="M473.838 290.822C473.838 290.822 470.941 300.455 466.112 304.308L461.283 308.161" stroke="white" stroke-width="0.68" stroke-linecap="round" stroke-linejoin="round"/>
<path d="M454.523 288.895C454.523 288.895 462.732 315.868 474.804 336.597C486.876 357.325 514.469 402.103 515.365 410.773C516.262 419.443 515.365 428.113 522.126 432.465C528.886 436.817 528.403 438.727 529.369 444.507C530.197 448.655 531.499 452.695 533.249 456.548C533.249 456.548 552.564 489.232 559.324 501.274C564.23 509.656 569.783 517.645 575.932 525.168" stroke="white" stroke-width="0.68" stroke-linecap="round" stroke-linejoin="round"/>
<path d="M441.348 268.527C441.348 268.527 442.451 280.707 447.28 284.56C452.109 288.413 466.595 291.785 486.393 288C506.191 284.216 527.92 267.358 529.852 261.509C531.783 255.66 521.953 240.522 521.953 240.522C521.953 240.522 510.537 256.692 478.667 261.991C446.797 267.289 441.348 268.527 441.348 268.527Z" fill="white" stroke="#263238" stroke-width="0.91" stroke-linecap="round" stroke-linejoin="round"/>
<path d="M568.637 150.468C560.755 145.308 499.396 97.6229 493.619 95.5242C487.841 93.4255 476.373 95.5242 476.373 95.5242C476.373 95.5242 440.813 99.8591 433.363 102.852C432.656 103.128 416.635 112.314 416.117 112.795C410.34 117.509 385.075 129.103 378.281 143.759C370.572 160.342 438.312 260.184 441.468 268.545C444.624 276.905 461.163 278.969 476.373 276.87C491.584 274.772 504.932 271.71 515.952 259.135C517.95 256.63 519.624 253.885 520.936 250.964C522.51 247.7 522.912 243.995 522.074 240.47C518.142 224.128 508.105 177.011 501.483 145.858C512.52 152.963 535.474 167.395 548.822 172.487C566.653 179.368 580.295 174.586 580.295 168.823C580.295 163.06 576.501 155.698 568.637 150.468Z" fill="white"/>
<mask id="mask0_632_820" style="mask-type:luminance" maskUnits="userSpaceOnUse" x="377" y="94" width="204" height="184">
<path d="M568.637 150.468C560.755 145.308 499.396 97.6229 493.619 95.5242C487.841 93.4255 476.373 95.5242 476.373 95.5242C476.373 95.5242 440.813 99.8591 433.363 102.852C432.656 103.128 416.635 112.314 416.117 112.795C410.34 117.509 385.075 129.103 378.281 143.759C370.572 160.342 438.312 260.184 441.468 268.545C444.624 276.905 461.163 278.969 476.373 276.87C491.584 274.772 504.932 271.71 515.952 259.135C517.95 256.63 519.624 253.885 520.936 250.964C522.51 247.7 522.912 243.995 522.074 240.47C518.142 224.128 508.105 177.011 501.483 145.858C512.52 152.963 535.474 167.395 548.822 172.487C566.653 179.368 580.295 174.586 580.295 168.823C580.295 163.06 576.501 155.698 568.637 150.468Z" fill="white"/>
</mask>
<g mask="url(#mask0_632_820)">
<path d="M500.655 133.438C505.369 135.185 510.313 136.24 515.331 136.569C521.625 136.569 517.952 139.184 515.331 140.233C512.709 141.282 532.128 138.667 531.593 141.798C531.059 144.929 517.435 151.225 517.435 151.225C526.641 156.395 536.824 159.6 547.339 160.635C565.688 162.733 554.237 173.726 554.237 173.726C554.237 173.726 524.712 162.905 501.448 145.806L500.655 133.438Z" fill="#CAE3DC"/>
<g style="mix-blend-mode:multiply">
<path d="M407.805 169.012C407.805 169.012 403.614 175.807 405.718 176.34C407.822 176.874 429.31 167.963 421.981 175.291C414.651 182.619 405.718 182.619 409.392 184.701C413.065 186.782 422.498 186.799 419.359 188.898C416.221 190.997 422.498 200.406 438.226 219.243C453.954 238.079 460.852 251.153 478.098 260.047C495.343 268.94 506.949 268.94 496.464 271.555C485.979 274.17 474.959 275.735 474.424 280.449C474.424 280.449 474.959 284.113 468.664 286.727C462.37 289.342 458.697 288.826 453.971 286.727C449.246 284.629 447.677 284.629 446.625 282.014C445.573 279.399 441.347 268.527 441.347 268.527L433.828 252.495L431.414 249.054L429.31 247.489L392.594 184.701L407.805 169.012Z" fill="#CAE3DC"/>
</g>
</g>
<path d="M568.637 150.468C560.755 145.308 499.396 97.6229 493.619 95.5242C487.841 93.4255 476.373 95.5242 476.373 95.5242C476.373 95.5242 440.813 99.8591 433.363 102.852C432.656 103.128 416.635 112.314 416.117 112.795C410.34 117.509 385.075 129.103 378.281 143.759C370.572 160.342 438.312 260.184 441.468 268.545C444.624 276.905 461.163 278.969 476.373 276.87C491.584 274.772 504.932 271.71 515.952 259.135C517.95 256.63 519.624 253.885 520.936 250.964C522.51 247.7 522.912 243.995 522.074 240.47C518.142 224.128 508.105 177.011 501.483 145.858C512.52 152.963 535.474 167.395 548.822 172.487C566.653 179.368 580.295 174.586 580.295 168.823C580.295 163.06 576.501 155.698 568.637 150.468Z" stroke="#263238" stroke-width="0.91" stroke-linecap="round" stroke-linejoin="round"/>
<path d="M386.593 133.042C386.593 133.042 380.298 139.923 377.849 143.106C364.708 159.947 322.888 213.91 322.422 218.262C321.957 222.614 323.94 225.539 334.167 229.461C344.393 233.383 412.806 165.004 412.806 165.004" fill="white"/>
<mask id="mask1_632_820" style="mask-type:luminance" maskUnits="userSpaceOnUse" x="322" y="133" width="91" height="97">
<path d="M386.593 133.042C386.593 133.042 380.298 139.923 377.849 143.106C364.708 159.947 322.888 213.91 322.422 218.262C321.957 222.614 323.94 225.539 334.167 229.461C344.393 233.383 412.806 165.004 412.806 165.004" fill="white"/>
</mask>
<g mask="url(#mask1_632_820)">
<g style="mix-blend-mode:multiply" opacity="0.8">
<path d="M390.508 131.855L340.133 201.972C340.133 201.972 345.307 207.734 351.671 213.48C358.034 219.226 368.916 222.907 360.587 222.374C352.257 221.84 336.443 215.579 336.443 215.579C336.443 215.579 331.718 219.243 337.495 222.907C343.272 226.571 344.307 223.939 361.104 232.316C377.901 240.694 404.735 246.078 404.735 246.078L402.562 250.482L331.2 232.299C331.2 232.299 320.853 227.139 322.336 218.537C323.819 209.936 347.911 182.413 347.911 182.413L382.402 137.326C382.402 137.326 385.644 132.543 390.508 131.855Z" fill="#CAE3DC"/>
</g>
</g>
<path d="M386.593 133.042C386.593 133.042 380.298 139.923 377.849 143.106C364.708 159.947 322.888 213.91 322.422 218.262C321.957 222.614 323.94 225.539 334.167 229.461C344.393 233.383 412.806 165.004 412.806 165.004" stroke="#263238" stroke-width="0.91" stroke-linecap="round" stroke-linejoin="round"/>
<path d="M525.023 129.911L501.362 145.806C504.811 145.325 521.16 139.545 521.16 139.545" stroke="#263238" stroke-width="0.68" stroke-linecap="round" stroke-linejoin="round"/>
<path d="M524.057 139.063L529.369 138.1" stroke="#263238" stroke-width="0.68" stroke-linecap="round" stroke-linejoin="round"/>
<path d="M348.756 201.559C345.105 201.45 341.474 202.137 338.116 203.572" stroke="#263238" stroke-width="0.91" stroke-linecap="round" stroke-linejoin="round"/>
<path d="M400.32 177.975C400.32 177.975 413.617 173.915 417.135 171.214" stroke="#263238" stroke-width="0.68" stroke-linecap="round" stroke-linejoin="round"/>
<path d="M420.394 169.872C420.394 169.872 422.567 167.98 423.378 167.98" stroke="#263238" stroke-width="0.68" stroke-linecap="round" stroke-linejoin="round"/>
<path d="M501.362 145.824L499.206 123.701" stroke="#263238" stroke-width="0.91" stroke-linecap="round" stroke-linejoin="round"/>
<path d="M322.371 218.486C322.371 218.486 319.318 230.132 338.892 234.966C348.187 237.254 409.702 252.168 409.702 252.168C409.702 252.168 415.203 240.402 412.065 240.402C408.926 240.402 352.205 202.78 352.205 202.78" fill="white"/>
<mask id="mask2_632_820" style="mask-type:luminance" maskUnits="userSpaceOnUse" x="322" y="202" width="92" height="51">
<path d="M322.371 218.486C322.371 218.486 319.318 230.132 338.892 234.966C348.187 237.254 409.702 252.168 409.702 252.168C409.702 252.168 415.203 240.402 412.065 240.402C408.926 240.402 352.205 202.78 352.205 202.78" fill="white"/>
</mask>
<g mask="url(#mask2_632_820)">
<path d="M390.508 131.855L340.133 201.972C340.133 201.972 345.307 207.735 351.671 213.48C358.034 219.226 368.916 222.907 360.587 222.374C352.257 221.84 336.443 215.579 336.443 215.579C336.443 215.579 331.718 219.243 337.495 222.907C343.272 226.571 344.307 223.939 361.104 232.317C377.901 240.694 404.752 246.078 404.752 246.078L402.855 250.585L331.2 232.334C331.2 232.334 317.628 225.935 322.336 218.572C327.682 210.126 347.911 182.447 347.911 182.447L383.127 137.721C383.545 136.073 384.493 134.607 385.826 133.548C387.159 132.488 388.804 131.894 390.508 131.855Z" fill="#CAE3DC"/>
</g>
<path d="M322.371 218.486C322.371 218.486 319.318 230.132 338.892 234.966C348.187 237.254 409.702 252.168 409.702 252.168C409.702 252.168 415.203 240.402 412.065 240.402C408.926 240.402 352.205 202.78 352.205 202.78" stroke="#263238" stroke-width="0.91" stroke-linecap="round" stroke-linejoin="round"/>
<path d="M412.065 240.453C412.065 240.453 432.259 249.88 433.828 252.495C435.398 255.11 439.002 268.699 439.002 272.897C439.002 277.094 438.485 277.077 435.863 277.077C433.242 277.077 426.413 267.134 424.844 265.035C423.274 262.937 419.67 262.937 414.876 259.875C413.54 259.029 412.392 257.92 411.502 256.615C410.612 255.311 410 253.838 409.702 252.288L412.065 240.453Z" fill="white" stroke="#263238" stroke-width="0.91" stroke-linecap="round" stroke-linejoin="round"/>
<path d="M403.442 250.207L406.581 240.488" stroke="#263238" stroke-width="0.91" stroke-linecap="round" stroke-linejoin="round"/>
<path d="M450.677 147.251C450.677 147.251 418.325 128.914 406.718 130.565C395.112 132.217 385.162 133.868 385.162 133.868L406.701 118.833C417.342 123.925 432.897 135.21 450.677 147.251Z" fill="#CAE3DC"/>
<path d="M556.565 167.154C556.565 167.154 551.391 184.941 549.218 195.4C547.045 205.859 532.438 247.73 532.438 247.73L545.028 255.574C545.028 255.574 572.827 198.118 578.122 185.526C583.416 172.934 581.795 163.542 576.552 158.312" fill="white"/>
<path d="M556.565 167.154C556.565 167.154 551.391 184.941 549.218 195.4C547.045 205.859 532.438 247.73 532.438 247.73L545.028 255.574C545.028 255.574 572.827 198.118 578.122 185.526C583.416 172.934 581.795 163.542 576.552 158.312" stroke="#263238" stroke-width="0.91" stroke-linecap="round" stroke-linejoin="round"/>
<path d="M534.818 241.743C535.767 241.743 547.718 248.315 547.718 248.315L534.818 241.743Z" fill="#263238"/>
<path d="M452.109 147.251C449.211 146.77 433.742 136.655 423.119 128.466C412.496 120.278 406.701 118.833 406.701 118.833L399.458 123.65C398.362 120.129 398.709 116.319 400.424 113.053C403.321 107.755 413.461 102.457 423.602 98.6033C433.742 94.75 445.331 91.4644 452.592 91.4644C459.852 91.4644 461.766 94.3543 461.766 98.2076C461.766 102.061 461.766 114.103 459.352 123.254C456.937 132.406 452.109 147.251 452.109 147.251Z" fill="white"/>
<mask id="mask3_632_820" style="mask-type:luminance" maskUnits="userSpaceOnUse" x="398" y="91" width="64" height="57">
<path d="M452.109 147.251C449.211 146.77 433.742 136.655 423.119 128.466C412.496 120.278 406.701 118.833 406.701 118.833L399.458 123.65C398.362 120.129 398.709 116.319 400.424 113.053C403.321 107.755 413.461 102.457 423.602 98.6033C433.742 94.75 445.331 91.4644 452.592 91.4644C459.852 91.4644 461.766 94.3543 461.766 98.2076C461.766 102.061 461.766 114.103 459.352 123.254C456.937 132.406 452.109 147.251 452.109 147.251Z" fill="white"/>
</mask>
<g mask="url(#mask3_632_820)">
<g opacity="0.5">
<path d="M447.556 97.0206C447.556 97.0206 443.089 110.37 438.623 114.378C435.174 117.263 431.441 119.793 427.482 121.93C427.482 121.93 424.809 112.589 418.118 112.589C411.426 112.589 401.165 117.044 401.165 117.044C401.165 117.044 401.165 113.483 409.633 109.028L418.118 104.59L437.743 97.0206H447.556Z" fill="#CAE3DC"/>
</g>
</g>
<path d="M452.109 147.251C449.211 146.77 433.742 136.655 423.119 128.466C412.496 120.278 406.701 118.833 406.701 118.833L399.458 123.65C398.362 120.129 398.709 116.319 400.424 113.053C403.321 107.755 413.461 102.457 423.602 98.6033C433.742 94.75 445.331 91.4644 452.592 91.4644C459.852 91.4644 461.766 94.3543 461.766 98.2076C461.766 102.061 461.766 114.103 459.352 123.254C456.937 132.406 452.109 147.251 452.109 147.251Z" stroke="#263238" stroke-width="0.91" stroke-linecap="round" stroke-linejoin="round"/>
<path d="M409.116 86.1145C414.773 92.3381 418.744 99.8993 420.653 108.082C423.792 121.689 443.52 137.687 448.246 137.687C452.971 137.687 452.643 114.361 451.074 107.566C449.505 100.771 443.21 82.4505 443.21 82.4505C443.21 82.4505 418.101 70.4089 409.116 86.1145Z" fill="white"/>
<mask id="mask4_632_820" style="mask-type:luminance" maskUnits="userSpaceOnUse" x="409" y="78" width="44" height="60">
<path d="M409.116 86.1145C414.773 92.3381 418.744 99.8993 420.653 108.082C423.792 121.689 443.52 137.687 448.246 137.687C452.971 137.687 452.643 114.361 451.074 107.566C449.505 100.771 443.21 82.4505 443.21 82.4505C443.21 82.4505 418.101 70.4089 409.116 86.1145Z" fill="white"/>
</mask>
<g mask="url(#mask4_632_820)">
<g style="mix-blend-mode:multiply">
<path d="M447.556 97.0208C447.556 97.0208 443.089 110.37 438.623 114.378C435.174 117.263 431.441 119.793 427.482 121.93C427.482 121.93 424.809 112.589 418.118 112.589C411.426 112.589 401.165 117.044 401.165 117.044C401.165 117.044 401.165 113.483 409.633 109.028L418.118 104.59L437.743 97.0208H447.556Z" fill="#CAE3DC"/>
</g>
</g>
<path d="M409.116 86.1145C414.773 92.3381 418.744 99.8993 420.653 108.082C423.792 121.689 443.52 137.687 448.246 137.687C452.971 137.687 452.643 114.361 451.074 107.566C449.505 100.771 443.21 82.4505 443.21 82.4505C443.21 82.4505 418.101 70.4089 409.116 86.1145Z" stroke="#263238" stroke-width="0.91" stroke-linecap="round" stroke-linejoin="round"/>
<path d="M392.543 60.8959C396.243 70.9326 400.819 80.6261 406.218 89.8646C414.186 102.921 429.569 110.318 438.105 106.912C446.642 103.506 452.454 92.5137 450.177 75.4835C449.677 71.7334 446.4 70.2024 445.348 66.8823C441.572 54.8407 437.726 43.2292 436.398 38.8082C434.673 33.1143 421.015 27.4375 406.787 31.4112C392.56 35.385 390.266 47.2545 392.543 60.8959Z" fill="white"/>
<mask id="mask5_632_820" style="mask-type:luminance" maskUnits="userSpaceOnUse" x="391" y="30" width="60" height="78">
<path d="M392.543 60.8959C396.243 70.9326 400.819 80.6261 406.218 89.8646C414.186 102.921 429.569 110.318 438.105 106.912C446.642 103.506 452.454 92.5137 450.177 75.4835C449.677 71.7334 446.4 70.2024 445.348 66.8823C441.572 54.8407 437.726 43.2292 436.398 38.8082C434.673 33.1143 421.015 27.4375 406.787 31.4112C392.56 35.385 390.266 47.2545 392.543 60.8959Z" fill="white"/>
</mask>
<g mask="url(#mask5_632_820)">
<path d="M439.813 50.4714C439.813 50.4714 434.639 54.3075 423.015 52.0884C411.392 49.8693 403.39 50.3682 403.838 53.4302C404.287 56.4922 405.184 60.5347 405.184 60.5347C405.184 60.5347 391.232 48.4931 403.873 45.2935C412.979 42.9368 418.238 46.5149 420.463 47.0137C422.688 47.5126 439.813 50.4714 439.813 50.4714Z" fill="#CAE3DC"/>
</g>
<path d="M392.543 60.8959C396.243 70.9326 400.819 80.6261 406.218 89.8646C414.186 102.921 429.569 110.318 438.105 106.912C446.642 103.506 452.454 92.5137 450.177 75.4835C449.677 71.7334 446.4 70.2024 445.348 66.8823C441.572 54.8407 437.726 43.2292 436.398 38.8082C434.673 33.1143 421.015 27.4375 406.787 31.4112C392.56 35.385 390.266 47.2545 392.543 60.8959Z" stroke="#263238" stroke-width="0.91" stroke-linecap="round" stroke-linejoin="round"/>
<path d="M402.804 79.6293C402.804 79.6293 393.681 75.6555 393.112 79.6293C392.543 83.603 396.561 86.5102 400.51 88.2304C401.495 88.7677 402.618 89.0006 403.735 88.8995C404.853 88.7985 405.916 88.3679 406.787 87.6627" fill="white"/>
<path d="M402.804 79.6293C402.804 79.6293 393.681 75.6555 393.112 79.6293C392.543 83.603 396.561 86.5102 400.51 88.2304C401.495 88.7677 402.618 89.0006 403.735 88.8995C404.853 88.7985 405.916 88.3679 406.787 87.6627" stroke="#263238" stroke-width="0.91" stroke-linecap="round" stroke-linejoin="round"/>
<path d="M440.037 57.1631C440.037 57.1631 429.879 54.7547 434.225 68.2585C435.087 70.9249 441.003 74.0385 441.003 74.0385C441.003 74.0385 440.52 78.3734 438.105 78.8551" fill="white"/>
<path d="M440.037 57.1631C440.037 57.1631 429.879 54.7547 434.225 68.2585C435.087 70.9249 441.003 74.0385 441.003 74.0385C441.003 74.0385 440.52 78.3734 438.105 78.8551" stroke="#263238" stroke-width="0.91" stroke-linecap="round" stroke-linejoin="round"/>
<path d="M432.776 88.4884C432.776 88.4884 425.533 89.9334 422.636 86.5618L432.776 88.4884Z" fill="white"/>
<path d="M432.776 88.4884C432.776 88.4884 425.533 89.9334 422.636 86.5618" stroke="#263238" stroke-width="0.91" stroke-linecap="round" stroke-linejoin="round"/>
<path d="M422.153 65.8502C422.153 65.8502 416.842 63.9236 413.944 66.3319C412.394 67.4085 411.194 68.916 410.495 70.6669" fill="white"/>
<path d="M422.153 65.8502C422.153 65.8502 416.842 63.9236 413.944 66.3319C412.394 67.4085 411.194 68.916 410.495 70.6669" stroke="#263238" stroke-width="0.91" stroke-linecap="round" stroke-linejoin="round"/>
<path d="M422.015 74.0901C422.705 75.6899 422.567 77.2725 421.705 77.6338C420.843 77.995 419.601 77.0145 418.911 75.4147C418.221 73.8149 418.376 72.2495 419.239 71.871C420.101 71.4926 421.343 72.5419 422.015 74.0901Z" fill="#263238"/>
<path d="M439.381 65.661C440.071 67.2436 439.916 68.8262 439.071 69.2046C438.226 69.5831 436.95 68.5681 436.277 66.9855C435.605 65.4029 435.725 63.8031 436.588 63.4419C437.45 63.0806 438.692 64.0783 439.381 65.661Z" fill="#263238"/>
<path d="M400.269 81.9171C400.269 81.9171 406.029 77.737 404.977 74.0729C403.925 70.4088 401.838 70.4088 403.942 68.3274C406.046 66.2459 407.598 65.1793 407.081 62.0485C406.563 58.9177 398.165 53.671 400.786 50.5402C403.407 47.4094 402.355 43.6593 423.86 48.9576C445.366 54.2559 459.007 45.8268 452.712 37.9826C446.418 30.1383 441.175 29.089 441.175 29.089C441.175 29.089 453.247 23.9283 443.279 18.6128C433.311 13.2973 410.754 13.4521 398.165 23.3262C385.575 33.2003 388.197 41.5778 388.197 41.5778C388.197 41.5778 381.385 42.6272 380.85 53.1033C380.315 63.5795 400.269 81.9171 400.269 81.9171Z" fill="#203333"/>
<path d="M400.131 46.1708C400.131 46.1708 401.855 40.8553 410.806 40.8553C419.756 40.8553 427.706 48.3899 439.709 45.7235C451.712 43.0572 445.055 35.9698 445.055 35.9698" stroke="white" stroke-width="0.68" stroke-linecap="round" stroke-linejoin="round"/>
<path d="M396.112 44.8462C396.112 44.8462 396.975 33.8196 406.787 31.3424C416.6 28.8653 429.483 33.7507 433.035 32.409" stroke="white" stroke-width="0.68" stroke-linecap="round" stroke-linejoin="round"/>
<path d="M391.232 45.2936C391.232 45.2936 385.886 45.2936 385.437 52.3809C385.208 54.2785 385.454 56.2033 386.152 57.9832C386.85 59.7632 387.979 61.3431 389.438 62.5819" stroke="white" stroke-width="0.68" stroke-linecap="round" stroke-linejoin="round"/>
<path d="M396.112 49.7145C395.343 49.9872 394.642 50.4223 394.057 50.99C393.472 51.5577 393.016 52.2447 392.722 53.004C392.427 53.7634 392.3 54.5772 392.35 55.39C392.399 56.2027 392.624 56.9953 393.008 57.7135" stroke="white" stroke-width="0.68" stroke-linecap="round" stroke-linejoin="round"/>
<path d="M392.112 63.9236L394.336 67.0372" stroke="white" stroke-width="0.68" stroke-linecap="round" stroke-linejoin="round"/>
</g>
<defs>
<clipPath id="clip0_632_820">
<rect width="717" height="546" fill="white"/>
</clipPath>
</defs>
</svg>
