<svg width="19" height="19" viewBox="0 0 19 19" fill="none" xmlns="http://www.w3.org/2000/svg">
<path d="M12.3067 8.85392L11.9531 9.20747L12.3067 9.56103L17.8933 15.1476C17.9006 15.1549 17.9057 15.1631 17.909 15.1721L17.9101 15.1751C17.9207 15.2032 17.9139 15.2336 17.8933 15.2542L15.2542 17.8933C15.235 17.9124 15.2042 17.9209 15.1728 17.9092L15.1721 17.909C15.1631 17.9057 15.1549 17.9006 15.1476 17.8933L9.56103 12.3067L9.20747 11.9531L8.85392 12.3067L3.26733 17.8933C3.26004 17.9006 3.25188 17.9057 3.24283 17.909L3.23988 17.9101C3.21177 17.9207 3.18133 17.9139 3.16073 17.8933L0.521662 15.2542C0.502498 15.235 0.49405 15.2042 0.505715 15.1728L0.505952 15.1721C0.509291 15.1631 0.514369 15.1549 0.521662 15.1476L6.10825 9.56103L6.46181 9.20747L6.10825 8.85392L0.521662 3.26733C0.51437 3.26004 0.509292 3.25188 0.505952 3.24283L0.505961 3.24283L0.504852 3.23988C0.49427 3.21177 0.501065 3.18133 0.521662 3.16073L3.16073 0.521662C3.1799 0.502498 3.21073 0.49405 3.24219 0.505715L3.24283 0.505952C3.25188 0.509292 3.26004 0.51437 3.26733 0.521662L8.85392 6.10825L9.20747 6.46181L9.56103 6.10825L15.1476 0.521662C15.1549 0.514369 15.1631 0.509291 15.1721 0.505952L15.1721 0.505961L15.1751 0.504852C15.2032 0.49427 15.2336 0.501065 15.2542 0.521662L17.892 3.15949C17.8922 3.15961 17.8923 3.15972 17.8924 3.15984C17.9128 3.18065 17.9202 3.21262 17.9092 3.24219L17.909 3.24283C17.9057 3.25188 17.9006 3.26004 17.8933 3.26733L12.3067 8.85392Z" stroke="#878585"/>
</svg>
